<svg width="515" height="398" viewBox="0 0 515 398" fill="none" xmlns="http://www.w3.org/2000/svg">
<g clip-path="url(#clip0_1_23)">
<path d="M257.5 398C399.713 398 515 383.88 515 366.462C515 349.043 399.713 334.923 257.5 334.923C115.287 334.923 0 349.043 0 366.462C0 383.88 115.287 398 257.5 398Z" fill="#D7E5FB"/>
<g opacity="0.6">
<path d="M308.945 231.459C338.145 191.591 380.043 143.415 402.593 159.034C429.765 177.85 373.502 214.621 332.116 249.929C317.257 262.595 290.337 256.868 308.945 231.459Z" fill="#ACC9C5"/>
</g>
<path d="M295.471 311.17C295.471 311.17 412.439 162.546 458.337 198.488C504.236 234.43 354.183 279.244 321.734 323.679L295.471 311.17Z" fill="#CCD39C"/>
<path d="M310.112 318.301C331.986 287.207 365.83 261.357 390.36 245.156C416.967 227.592 438.654 217.269 438.871 217.168L438.278 215.776C438.062 215.877 416.277 226.247 389.587 243.867C364.938 260.14 330.935 286.108 308.921 317.41L310.112 318.301Z" fill="#C2C68E"/>
<path d="M449.007 316.983C430.612 321.043 433.543 349.887 412.625 344.468C394.935 339.872 393.452 338.172 387.298 343.44C385.189 345.268 383.348 347.385 381.829 349.727C379.984 352.534 376.425 356.671 371.041 357.631C338.172 363.494 293.44 312.965 327.84 285.323C330.325 283.325 333.931 282.566 337.908 281.933C359.564 278.506 366.265 288.827 383.425 262.447C400.585 236.067 423.567 274.055 438.086 272.77C452.605 271.485 465.415 267.019 476.655 282.999C487.896 298.978 467.402 312.938 449.007 316.983Z" fill="#ACC9C5"/>
<g opacity="0.5">
<path d="M338.154 322.009L337.47 320.943C337.923 320.629 383.961 289.508 479.255 287.536L479.279 288.818C384.331 290.784 338.604 321.698 338.154 322.009Z" fill="#68A1BF"/>
<path d="M397.609 284.068C385.092 272.296 382.919 262.98 382.833 262.589L384.038 262.293C384.059 262.385 386.244 271.639 398.441 283.111L397.609 284.068Z" fill="#68A1BF"/>
<path d="M399.726 297.906C396.223 291.442 396.599 282.146 400.81 271.023C402.806 265.823 405.295 260.825 408.246 256.101L409.27 256.82C409.105 257.072 392.75 282.412 400.807 297.278L399.726 297.906Z" fill="#68A1BF"/>
<path d="M424.817 295.765C423.336 294.462 422.522 293.615 422.486 293.577L423.375 292.688C423.54 292.866 440.511 310.673 465.675 309.974L465.705 311.256C445.418 311.816 430.369 300.622 424.817 295.765Z" fill="#68A1BF"/>
<path d="M437.046 325.453C431.334 318.79 429.726 312.15 429.38 307.753C429.007 302.964 429.972 299.784 430.025 299.65L431.21 300.047C431.171 300.169 427.517 312.405 437.979 324.6L437.046 325.453Z" fill="#68A1BF"/>
</g>
<path d="M337.873 162.158C338.809 157.224 341.4 156.176 344.251 156.697C347.103 157.218 349.134 159.108 348.199 164.041C346.493 173.032 340.499 176.434 340.499 176.434C340.499 176.434 336.149 171.279 337.873 162.158Z" fill="#ACC9C5"/>
<path d="M39.8163 267.973C34.8148 267.517 33.5237 265.038 33.7665 262.151C34.0094 259.264 35.6943 257.057 40.6958 257.51C49.8074 258.343 53.7695 263.972 53.7695 263.972C53.7695 263.972 49.0612 268.814 39.8163 267.973Z" fill="#ACC9C5"/>
<path d="M450.046 250.661C454.811 249.065 456.987 250.815 457.929 253.557C458.87 256.299 458.225 258.997 453.449 260.59C444.775 263.495 438.879 259.936 438.879 259.936C438.879 259.936 441.245 253.607 450.046 250.661Z" fill="#ACC9C5"/>
<path d="M364.21 242.165C325.744 233.541 281.731 215.983 233.396 189.986C194.9 169.28 162.685 151.53 147.817 141.665C147.817 141.665 166.304 95.2667 174.415 100.642C188.726 110.118 218.51 129.861 255.146 149.569C299.801 173.586 339.878 189.675 374.266 197.386L364.21 242.165Z" fill="#1A6FEF"/>
<path d="M195.54 205.314C192.623 207.292 191.122 206.957 190.34 205.823C189.558 204.689 189.789 203.178 192.709 201.2C198.039 197.602 202.007 197.919 202.007 197.919C202.007 197.919 200.929 201.662 195.54 205.314Z" fill="#ACC9C5"/>
<path d="M196.973 228.003C194.859 230.811 193.331 230.965 192.235 230.153C191.14 229.342 190.855 227.826 192.97 225.018C196.819 219.904 200.692 218.924 200.692 218.924C200.692 218.924 200.876 222.815 196.973 228.003Z" fill="#ACC9C5"/>
<path d="M199.674 287.118H199.004C199.004 287.017 199.132 276.715 194.619 261.947C190.453 248.324 181.373 227.977 161.767 208.506L162.241 208.035C181.954 227.616 191.08 248.07 195.267 261.784C199.807 276.62 199.677 287.014 199.674 287.118Z" fill="#ACC9C5"/>
<path d="M181.945 232.94L181.353 232.62C193.008 211.485 183.426 187.418 183.322 187.178L183.941 186.93C184.047 187.187 193.757 211.524 181.945 232.94Z" fill="#ACC9C5"/>
<path d="M171.148 222.869C166.924 223.098 162.714 222.199 158.951 220.265L159.286 219.691C159.354 219.729 166.218 223.594 174.139 221.764L174.293 222.409C173.259 222.647 172.207 222.8 171.148 222.869V222.869Z" fill="#ACC9C5"/>
<path d="M161.063 204.822C164.814 207.745 165.238 209.492 164.382 210.573C163.526 211.654 161.717 211.66 157.968 208.737C151.137 203.406 149.381 198.879 149.381 198.879C149.381 198.879 154.133 199.418 161.063 204.822Z" fill="#ACC9C5"/>
<path d="M160.592 218.003C165.054 219.67 165.987 221.207 165.501 222.495C165.016 223.784 163.295 224.328 158.833 222.664C150.701 219.629 147.654 215.832 147.654 215.832C147.654 215.832 152.345 214.923 160.592 218.003Z" fill="#ACC9C5"/>
<path d="M177.237 211.858C178.279 215.21 177.515 216.537 176.191 216.94C174.868 217.343 173.485 216.673 172.442 213.318C170.547 207.209 172.025 203.528 172.025 203.528C172.025 203.528 175.312 205.66 177.237 211.858Z" fill="#ACC9C5"/>
<path d="M185.167 184.152C186.594 188.668 185.949 190.341 184.628 190.753C183.307 191.164 181.809 190.16 180.381 185.635C177.782 177.412 178.901 172.694 178.901 172.694C178.901 172.694 182.528 175.807 185.167 184.152Z" fill="#ACC9C5"/>
<path d="M207.201 279.94C207.201 279.94 97.3406 159.413 65.4188 190.412C33.4971 221.412 157.115 254.884 187.977 290.977L207.201 279.94Z" fill="#ACC9C5"/>
<path d="M163.627 263.09C163.627 263.09 47.9625 180.468 20.5152 215.708C-6.93218 250.948 113.683 252.26 146.381 277.482L163.627 263.09Z" fill="#92BCB5"/>
<path d="M154.05 271.216C131.788 253.388 101.59 241.797 80.1774 235.214C56.9616 228.078 38.7947 225.125 38.614 225.095L38.8006 223.973C38.9842 224.003 57.2281 226.967 80.518 234.128C102.028 240.74 132.369 252.387 154.77 270.33L154.05 271.216Z" fill="#68A1BF"/>
<path d="M54.1426 331.734C77.7285 331.713 81.2553 366.402 105.602 354.575C126.227 344.539 127.595 342.164 136.496 346.789C139.503 348.372 142.271 350.372 144.717 352.73C147.678 355.552 153.067 359.488 159.914 359.215C201.741 357.539 244.16 286.449 195.093 262.906C191.539 261.206 186.935 261.254 181.874 261.547C154.438 263.164 148.762 277.049 121.169 250.498C93.5769 223.946 74.7466 274.615 56.6152 276.89C38.4837 279.164 21.6375 277.251 11.7856 298.975C1.93366 320.7 30.5536 331.769 54.1426 331.734Z" fill="#CCD39C"/>
<path d="M191.492 308.742L192.084 307.312C191.45 307.06 127.234 282.457 9.73643 304.984L10.0325 306.497C127.089 284.056 190.861 308.493 191.492 308.742Z" fill="#C2C68E"/>
<path d="M109.117 279.623C121.581 262.512 121.945 250.99 121.954 250.507L120.402 250.483C120.402 250.596 120.006 262.05 107.859 278.723L109.117 279.623Z" fill="#C2C68E"/>
<path d="M109.935 296.461C112.641 287.944 109.884 277.109 101.963 265.124C98.2159 259.511 93.9229 254.283 89.1469 249.515L88.069 250.625C88.3355 250.88 114.675 276.422 108.457 296.002L109.935 296.461Z" fill="#C2C68E"/>
<path d="M78.5991 300.471C80.1064 298.552 80.8881 297.347 80.9207 297.29L79.6118 296.473C79.449 296.728 63.0114 322.092 31.9365 327.834L32.2119 329.347C57.2548 324.721 72.9817 307.628 78.5991 300.471Z" fill="#C2C68E"/>
<path d="M70.9178 338.575C76.2864 329.252 76.621 321.023 75.9518 315.772C75.2293 310.045 73.2423 306.562 73.1594 306.417L71.812 307.187C71.889 307.32 79.3957 320.759 69.5645 337.828L70.9178 338.575Z" fill="#C2C68E"/>
<path d="M360.18 362.499C324.773 362.499 284.373 358.268 239.383 349.822C183.929 339.413 125.457 324.253 102.532 317.513L126.923 272.299C149.093 278.814 195.226 292.374 248.297 302.339C312.738 314.437 366.061 317.309 406.786 310.88L414.325 358.605C397.861 361.201 379.812 362.499 360.18 362.499Z" fill="#1A6FEF"/>
<path d="M289.321 145.154C288.729 143.303 288.344 139.373 287.784 137.51C287.538 136.702 286.896 133.927 287.642 133.569C288.285 133.258 289.801 135.212 290.414 136.234C292.341 129.618 297.307 121.863 294.077 135.301H294.094C294.459 134.17 296.86 125.781 298.536 126.876C299.765 127.679 297.586 134.517 297.002 136.382L297.05 136.406C297.799 134.561 299.762 128.869 300.973 129.577C302.566 130.51 299.789 137.762 299.789 137.762C299.789 137.762 301.936 131.683 303.268 133.391C304.017 134.354 302.635 137.904 301.74 140.102C301.554 140.564 301.388 140.966 301.266 141.286C301.178 141.515 301.064 141.732 300.926 141.935C300.013 143.914 298.877 145.783 297.541 147.505C297.058 148.285 296.318 148.873 295.448 149.166C294.578 149.459 293.634 149.439 292.777 149.11C290.742 148.408 289.579 145.956 289.321 145.154Z" fill="#FFB27D"/>
<path d="M226.736 204.801C226.736 204.801 228.69 193.299 249.114 191.626C264.844 190.338 280.799 199.622 282.682 213.715C285.3 233.215 285.765 243.642 283.653 253.468C283.653 253.468 240.372 245.621 226.976 255.082C226.976 255.082 231.578 236.988 226.413 211.461C225.946 209.251 226.057 206.957 226.736 204.801V204.801Z" fill="#58A1C7"/>
<path d="M206.564 155.353C210.894 169.917 234.376 192.18 242.851 192.535C244.672 192.612 227.177 215.181 226.884 214.221C225.404 209.418 224 207.318 220.879 203.818C210.657 192.355 196.695 176.982 194.338 162.845L206.564 155.353Z" fill="#58A1C7"/>
<path d="M253.165 191.786C253.165 191.786 283.265 179.579 287.29 147.588C287.337 147.133 287.479 146.694 287.708 146.298C287.936 145.902 288.245 145.558 288.615 145.289C288.985 145.021 289.407 144.833 289.854 144.738C290.301 144.643 290.763 144.644 291.21 144.739L297.097 146.048C297.626 146.17 298.098 146.466 298.438 146.889C298.778 147.312 298.966 147.836 298.972 148.379C299.102 154.396 298.308 173.885 284.859 198.84C283.479 201.402 280.713 205.355 282.644 213.685L253.165 191.786Z" fill="#58A1C7"/>
<path d="M226.932 255.052C226.958 257.854 239.641 259.299 255.359 259.053C271.077 258.807 283.644 256.24 283.618 253.427C283.591 250.613 270.568 245.863 254.859 246.109C239.149 246.355 226.905 252.251 226.932 255.052Z" fill="#331832"/>
<path d="M249.386 188.816L249.875 183.385L250.017 181.8L250.849 172.502L252.981 181.107L254.26 186.275L254.663 187.91C254.939 189.02 255.649 189.112 256.659 189.909C257.065 190.231 259.65 192.168 257.497 193.758C254.814 195.748 248.862 194.913 246.209 192.704C246.227 192.701 249.232 190.572 249.386 188.816Z" fill="#FFB27D"/>
<path d="M256.943 167.752C257.59 169.256 257.923 170.876 257.92 172.514C257.92 175.28 253.973 169.336 253.973 169.336L256.943 167.752Z" fill="#5C305D"/>
<path d="M254.896 186.584C258.994 185.346 261.078 180.245 259.551 175.189C258.023 170.133 253.463 167.038 249.366 168.276C245.268 169.514 243.184 174.616 244.711 179.672C246.239 184.727 250.798 187.822 254.896 186.584Z" fill="#FFB27D"/>
<path d="M243.114 175.845L246.668 174.661C247.061 174.531 247.42 174.315 247.717 174.028C248.015 173.741 248.245 173.39 248.388 173.002C248.889 171.634 249.662 170.82 253.094 170.213C257.438 169.44 259.742 166.176 259.73 163.754C259.73 161.281 257.18 160.156 255.25 161.758C253.319 163.36 253.674 160.387 251.533 160.544C247.53 160.84 247.435 164.097 244.228 164.69C240.023 165.466 233.212 170.361 238.306 177.151L243.114 175.845Z" fill="#331832"/>
<path d="M251.438 175.368C251.456 175.351 251.469 175.329 251.477 175.306C251.484 175.282 251.487 175.257 251.483 175.232C251.481 175.212 251.475 175.192 251.465 175.173C251.456 175.155 251.442 175.139 251.426 175.126C251.41 175.113 251.392 175.104 251.372 175.098C251.352 175.092 251.332 175.091 251.311 175.093C250.931 175.121 250.572 175.276 250.29 175.532C250.009 175.789 249.822 176.133 249.759 176.509C249.749 176.549 249.755 176.592 249.776 176.629C249.797 176.665 249.832 176.692 249.872 176.704C249.955 176.728 250.023 176.668 250.061 176.588C250.348 176.062 250.801 175.645 251.35 175.404C251.382 175.401 251.413 175.389 251.438 175.368V175.368Z" fill="#080435"/>
<path d="M251.19 177.53C251.361 177.871 251.693 178.042 251.933 177.918C252.173 177.794 252.229 177.409 252.06 177.068C251.891 176.728 251.557 176.553 251.317 176.68C251.077 176.808 251.018 177.19 251.19 177.53Z" fill="#080435"/>
<path d="M256.997 173.672C257.015 173.662 257.03 173.648 257.042 173.631C257.053 173.614 257.06 173.594 257.062 173.574C257.068 173.534 257.061 173.494 257.043 173.459C257.025 173.423 256.996 173.394 256.961 173.375C256.829 173.301 256.682 173.256 256.531 173.242C256.38 173.229 256.227 173.247 256.084 173.296C255.94 173.346 255.809 173.424 255.697 173.528C255.586 173.631 255.498 173.757 255.439 173.897C255.422 173.933 255.417 173.974 255.425 174.013C255.432 174.052 255.452 174.088 255.48 174.116C255.491 174.129 255.504 174.139 255.519 174.146C255.535 174.154 255.551 174.157 255.568 174.157C255.585 174.157 255.601 174.154 255.616 174.146C255.631 174.139 255.645 174.129 255.655 174.116C255.822 173.957 256.021 173.836 256.239 173.761C256.456 173.686 256.687 173.658 256.917 173.68C256.943 173.688 256.972 173.685 256.997 173.672V173.672Z" fill="#080435"/>
<path d="M255.934 175.585C255.966 175.967 256.209 176.26 256.478 176.236C256.748 176.212 256.94 175.884 256.911 175.502C256.881 175.12 256.635 174.829 256.366 174.85C256.096 174.871 255.901 175.203 255.934 175.585Z" fill="#080435"/>
<path d="M238.332 177.145C238.332 177.145 242.001 182.179 245.661 181.827C245.661 181.827 241.894 178.191 247.438 174.267C247.45 174.267 241.687 174.578 238.332 177.145Z" fill="#5C305D"/>
<path d="M244.006 179.138C244.198 179.223 244.405 179.269 244.615 179.273C244.825 179.277 245.034 179.238 245.229 179.16C245.424 179.082 245.602 178.966 245.751 178.818C245.901 178.67 246.019 178.494 246.099 178.3C246.226 177.89 246.187 177.446 245.992 177.064C245.797 176.681 245.46 176.39 245.054 176.251C244.862 176.166 244.655 176.121 244.445 176.117C244.235 176.114 244.026 176.152 243.831 176.23C243.636 176.308 243.459 176.424 243.309 176.572C243.16 176.719 243.041 176.895 242.961 177.089C242.834 177.499 242.873 177.943 243.068 178.325C243.263 178.708 243.599 178.999 244.006 179.138Z" fill="#FFB27D"/>
<path d="M247.45 174.267C247.45 174.267 247.929 179.067 249.04 179.754C250.15 180.441 256.363 179.488 258.992 177.726C259.662 180.731 258.143 183.844 255.353 184.972C254.42 185.35 253.428 185.562 252.422 185.6V185.6C250.349 185.674 248.22 185.244 247 183.527C246.629 183 246.626 179.26 246.626 179.26C246.626 179.26 246.47 177.101 245.054 176.266C245.054 176.251 246.167 174.684 247.45 174.267Z" fill="#5C305D"/>
<path d="M257.832 179.748C256.311 180.504 254.676 181.004 252.993 181.229C252.993 181.229 253.881 183.598 256.372 182.541C257.826 181.916 257.832 179.748 257.832 179.748Z" fill="white"/>
<path d="M254.376 161.53C254.134 161.53 253.899 161.454 253.702 161.313C253.506 161.173 253.358 160.974 253.28 160.745L253.485 160.686C253.547 160.871 253.667 161.032 253.827 161.145C253.986 161.257 254.178 161.317 254.373 161.314C254.493 161.314 254.612 161.298 254.728 161.266L254.779 161.477C254.647 161.51 254.512 161.527 254.376 161.53Z" fill="#331832"/>
<path d="M254.074 168.702L254.024 168.611C254.065 168.587 258.365 166.188 258.057 163.721C257.968 163.014 257.761 162.578 257.417 162.392C256.884 162.096 256.102 162.472 255.412 162.806L255.116 162.954L255.069 162.857L255.383 162.709C256.096 162.368 256.905 161.977 257.482 162.3C257.858 162.504 258.074 162.963 258.178 163.707C258.48 166.247 254.255 168.605 254.074 168.702Z" fill="white"/>
<path d="M242.632 165.945V165.839C247.234 165.489 248.85 162.43 248.877 162.401L248.972 162.445C248.945 162.478 247.296 165.59 242.632 165.945Z" fill="white"/>
<path d="M202.244 162.492C198.155 165.75 195.229 164.565 194.338 162.845C193.446 161.124 195.537 158.184 199.01 156.271C202.484 154.358 205.673 153.635 206.564 155.353C207.456 157.07 205.365 160.014 202.244 162.492Z" fill="#331832"/>
<path d="M263.458 239.011C263.433 239.162 263.379 239.308 263.297 239.438C263.216 239.568 263.109 239.681 262.984 239.77C262.859 239.859 262.717 239.922 262.567 239.955C262.417 239.988 262.262 239.992 262.111 239.964C261.805 239.902 261.537 239.722 261.363 239.463C261.19 239.204 261.125 238.888 261.184 238.581C261.299 237.936 261.776 237.397 262.401 237.518C262.573 237.537 262.739 237.592 262.888 237.679C263.037 237.767 263.166 237.885 263.266 238.026C263.366 238.167 263.435 238.328 263.468 238.498C263.501 238.668 263.498 238.842 263.458 239.011V239.011Z" fill="#331832"/>
<path d="M262.3 228.391C262.275 228.543 262.22 228.688 262.139 228.818C262.057 228.948 261.951 229.061 261.825 229.149C261.7 229.238 261.559 229.301 261.409 229.335C261.259 229.368 261.104 229.372 260.953 229.345C260.647 229.283 260.378 229.102 260.204 228.843C260.031 228.583 259.967 228.266 260.026 227.959C260.141 227.313 260.618 226.775 261.243 226.896C261.415 226.915 261.581 226.97 261.73 227.058C261.879 227.146 262.008 227.264 262.108 227.406C262.208 227.547 262.277 227.708 262.31 227.878C262.343 228.048 262.34 228.223 262.3 228.391Z" fill="#331832"/>
<path d="M260.87 216.351C260.845 216.502 260.79 216.648 260.709 216.778C260.628 216.908 260.521 217.021 260.396 217.11C260.271 217.199 260.129 217.263 259.979 217.296C259.829 217.33 259.674 217.334 259.522 217.307C259.217 217.245 258.948 217.064 258.774 216.805C258.6 216.545 258.536 216.228 258.596 215.921C258.711 215.276 259.188 214.737 259.813 214.858C259.985 214.877 260.151 214.931 260.3 215.019C260.449 215.106 260.578 215.225 260.678 215.366C260.778 215.507 260.847 215.668 260.88 215.838C260.913 216.007 260.909 216.182 260.87 216.351Z" fill="#331832"/>
<path d="M254.947 358.765C254.947 358.765 254.838 363.092 257.861 364.48C260.885 365.869 269.771 367.46 266.286 370.054C264.287 371.534 255.303 370.015 252.75 369.876C250.198 369.737 247.749 370.658 245.939 368.937C243.947 367.042 246.49 358.3 246.49 358.3C246.49 358.3 248.637 359.508 250.636 359.568C253.473 359.653 254.947 358.765 254.947 358.765Z" fill="#331832"/>
<path d="M270.538 251.644C280.091 253.918 281.814 254.99 281.198 260.872C280.031 272.024 278.214 283.098 275.756 294.039C270.055 318.846 263.556 343.789 260.378 355.762C259.244 360.041 255.235 362.997 250.671 362.92L248.22 362.878C243.283 362.795 239.496 358.57 240.103 353.823L250.529 272.296L251.281 255.041L270.538 251.644Z" fill="#366F90"/>
<path d="M217.405 358.765C217.405 358.765 217.293 363.092 220.316 364.48C223.34 365.869 232.229 367.46 228.741 370.054C226.742 371.534 217.758 370.015 215.205 369.876C212.653 369.737 210.204 370.658 208.394 368.937C206.402 367.042 208.948 358.3 208.948 358.3C208.948 358.3 211.092 359.508 213.076 359.568C215.925 359.653 217.405 358.765 217.405 358.765Z" fill="#331832"/>
<path d="M270.538 251.644L225.119 356.112C223.455 360.409 219.141 363.177 214.4 362.994L212.327 362.914C207.447 362.727 203.941 358.253 205.072 353.654L230.834 255.041C231.477 252.84 249.881 247.569 270.538 251.644Z" fill="#366F90"/>
<path d="M245.954 308.428C245.931 308.432 245.907 308.432 245.883 308.428C245.854 308.419 245.826 308.404 245.802 308.384C245.778 308.364 245.758 308.34 245.744 308.312C245.73 308.285 245.721 308.254 245.719 308.223C245.716 308.193 245.72 308.161 245.729 308.132L255.107 278.323C255.403 277.624 255.661 276.904 255.942 276.155C257.63 271.669 259.727 266.087 265.714 262.237C265.767 262.203 265.832 262.192 265.893 262.205C265.954 262.219 266.008 262.256 266.042 262.309C266.075 262.362 266.087 262.427 266.073 262.488C266.059 262.549 266.022 262.603 265.969 262.637C260.109 266.389 258.039 271.897 256.381 276.318C256.085 277.073 255.824 277.799 255.546 278.48L246.173 308.268C246.158 308.314 246.128 308.354 246.089 308.382C246.05 308.411 246.003 308.427 245.954 308.428Z" fill="#020202"/>
<path d="M203.272 155.696C203.568 153.771 203.272 149.833 203.529 147.902C203.636 147.067 203.808 144.224 203.02 143.99C202.333 143.789 201.16 145.968 200.725 147.076C197.731 140.857 191.545 134.046 196.958 146.762H196.941C196.393 145.707 192.644 137.827 191.169 139.187C190.088 140.179 193.366 146.566 194.249 148.308L194.204 148.34C193.159 146.646 190.287 141.351 189.209 142.252C187.79 143.436 191.714 150.132 191.714 150.132C191.714 150.132 188.596 144.505 187.568 146.392C186.976 147.464 188.936 150.739 190.18 152.761C190.441 153.185 190.672 153.555 190.84 153.836C190.964 154.051 191.113 154.25 191.285 154.429C192.517 156.233 193.951 157.891 195.558 159.371C196.162 160.062 196.988 160.519 197.893 160.665C198.799 160.811 199.727 160.636 200.518 160.171C202.404 159.137 203.15 156.528 203.272 155.696Z" fill="#FFB27D"/>
<path d="M254.269 197.048C253.301 201.899 247.935 220.852 222.202 230.675C220.54 231.307 219.059 232.339 217.891 233.68L213.224 239.067C213.028 239.294 212.887 239.564 212.812 239.854C212.738 240.145 212.731 240.449 212.794 240.742C212.856 241.036 212.986 241.311 213.173 241.546C213.359 241.781 213.598 241.969 213.87 242.097L220.728 245.162C223.063 246.222 225.719 246.328 228.131 245.458C236.481 242.408 257.935 226.689 257.926 195.559C257.926 194.229 256.869 195.263 255.617 195.594C255.279 195.688 254.975 195.874 254.737 196.131C254.499 196.387 254.337 196.705 254.269 197.048Z" fill="#5C305D"/>
<path d="M252.854 192.944C252.854 192.944 256.36 191.529 257.379 192.352C258.397 193.175 257.989 197.274 256.36 197.762C254.731 198.251 251.29 194.049 252.854 192.944Z" fill="#331832"/>
<path d="M254.894 191.828C254.894 191.828 250.085 190.48 249.049 188.845C248.012 187.211 243.446 191.511 243.615 192.695C243.784 193.88 252.99 199.72 253.502 198.852C254.015 197.984 256.117 192.855 254.894 191.828Z" fill="#62B6D9"/>
<path d="M254.894 191.828C254.894 191.828 255.463 189.986 255.057 189.038C255.057 189.038 254.761 188.203 255.492 188.206C256.224 188.209 260.292 190.705 260.698 191.531C261.104 192.358 261.447 196.347 260.212 196.738C258.978 197.128 255.637 193.065 255.252 192.669C255.14 192.559 255.05 192.428 254.989 192.284C254.927 192.14 254.895 191.985 254.894 191.828V191.828Z" fill="#62B6D9"/>
<path d="M102.532 317.516L104.077 276.792C104.142 275.055 104.822 273.397 105.996 272.115C107.17 270.833 108.761 270.009 110.485 269.791C266.928 250.066 338.234 222.173 374.251 197.386L391.325 232.223C391.81 233.207 391.92 234.332 391.636 235.391C391.353 236.449 390.694 237.368 389.783 237.977C352.226 263.022 308.521 278.468 238.083 294.711C181.323 307.797 129.484 314.17 109.97 316.572C106.618 316.983 103.725 317.339 102.532 317.516Z" fill="#3E88F7"/>
<path d="M147.817 141.665L146.556 106.478C146.496 104.791 147.045 103.137 148.104 101.821C149.163 100.505 150.66 99.6147 152.321 99.312C168.033 96.4513 194.607 91.0202 225.054 79.7108C267.565 63.906 302.954 42.0305 330.227 14.6972L359.158 43.5615C327.698 75.097 287.367 100.147 239.28 118.022C201.051 132.236 167.675 138.118 153.423 140.632C150.971 141.067 148.854 141.44 147.817 141.665Z" fill="#3E88F6"/>
<path d="M285.285 14.8926C303.396 13.5156 337.674 9.79911 369.359 0.165827C369.993 -0.0295748 370.668 -0.0497105 371.313 0.107559C371.957 0.264829 372.547 0.593636 373.02 1.0591C373.493 1.52456 373.831 2.10931 373.998 2.75131C374.165 3.39331 374.155 4.06862 373.97 4.70558C369.786 19.0208 360.31 53.8641 357.84 83.6553C357.544 87.1704 352.939 88.2868 351.071 85.2959C341.734 70.3351 321.021 43.1765 283.736 21.7304C280.594 19.9329 281.687 15.1651 285.285 14.8926Z" fill="#3E88F6"/>
<g opacity="0.6">
<path d="M123.213 72.4584C123.213 72.4584 119.751 64.1962 110.995 65.2327C102.238 66.2692 103.296 74.5491 99.1113 73.7732C94.9272 72.9974 89.1025 73.7732 87.8588 78.9497C86.6151 84.1261 80.9799 81.2773 80.7697 85.6779C80.5594 90.0784 87.234 93.1819 94.9479 89.2996C102.662 85.4173 106.414 92.3172 117.255 91.0764C128.096 89.8356 129.44 88.275 135.857 89.0509C142.274 89.8267 142.12 84.3719 139.203 80.7591C136.286 77.1462 124.462 77.4631 123.213 72.4584Z" fill="white"/>
</g>
<g opacity="0.6">
<path d="M138.874 156.78C138.874 156.78 136.064 150.078 128.96 150.917C121.856 151.755 122.703 158.477 119.319 157.846C115.934 157.215 111.202 157.846 110.186 162.045C109.171 166.244 104.604 163.935 104.436 167.503C104.267 171.071 109.68 173.595 115.937 170.444C122.194 167.293 125.241 172.89 134.036 171.877C142.83 170.864 143.92 169.603 149.138 170.233C154.355 170.864 154.222 166.44 151.853 163.499C149.484 160.559 139.887 160.831 138.874 156.78Z" fill="white"/>
</g>
<path d="M128.039 382.044C128.039 382.044 119.68 374.049 122.555 369.506C125.43 364.963 130.284 379.278 130.284 379.278C130.284 379.278 127.77 362.339 132.982 362.046C138.193 361.753 132.982 379.278 132.982 379.278C132.982 379.278 134.915 375.192 136.801 374.94C138.688 374.688 138.149 378.405 134.779 382.047L128.039 382.044Z" fill="#B8D5DC"/>
<path d="M128.652 382.257C128.258 381.884 119.034 372.968 122.386 367.664C122.916 366.823 123.553 366.441 124.276 366.524C126.73 366.82 129.419 372.843 130.79 376.391C130.334 372.005 129.801 363.296 132.312 360.213C132.563 359.88 132.883 359.606 133.25 359.408C133.617 359.21 134.022 359.094 134.438 359.067C134.808 359.043 135.178 359.108 135.517 359.256C135.857 359.405 136.155 359.634 136.387 359.923C138.626 362.751 136.523 372.248 135.374 376.693C136.242 375.363 137.483 373.859 138.747 373.69C139.016 373.627 139.299 373.657 139.548 373.776C139.797 373.895 139.998 374.096 140.118 374.345C140.814 375.683 139.736 379.012 136.727 382.254L136.295 381.855C139.256 378.671 140.103 375.603 139.591 374.614C139.521 374.484 139.409 374.381 139.274 374.322C139.139 374.262 138.988 374.249 138.845 374.285C137.222 374.508 135.333 377.795 134.743 379.044L134.19 378.834C134.234 378.683 138.632 363.713 135.94 360.299C135.773 360.078 135.552 359.904 135.298 359.794C135.045 359.683 134.767 359.64 134.492 359.668C134.158 359.689 133.832 359.782 133.538 359.941C133.244 360.101 132.988 360.323 132.789 360.592C129.615 364.495 131.688 378.733 131.708 378.876L131.137 379.015C130.047 375.805 126.695 367.415 124.219 367.122C123.728 367.072 123.304 367.353 122.902 367.99C119.801 372.888 128.981 381.754 129.073 381.843L128.652 382.257Z" fill="#444092"/>
<path d="M22.5584 358.946C22.5584 358.946 14.1989 350.95 17.0772 346.404C19.9555 341.859 24.806 356.177 24.806 356.177C24.806 356.177 22.2889 339.238 27.5007 338.945C32.7124 338.651 27.5007 356.177 27.5007 356.177C27.5007 356.177 29.4343 352.09 31.3206 351.835C33.2069 351.581 32.6709 355.303 29.2981 358.943L22.5584 358.946Z" fill="#B8D5DC"/>
<path d="M23.1803 359.165C22.7864 358.792 13.5623 349.875 16.9173 344.571C17.4533 343.73 18.1018 343.351 18.8095 343.434C21.2614 343.73 23.9531 349.757 25.3242 353.298C24.8682 348.919 24.3351 340.203 26.8462 337.12C27.0973 336.788 27.4172 336.513 27.7841 336.315C28.1511 336.117 28.5564 336.001 28.9724 335.974H29.1352C29.4781 335.967 29.8179 336.041 30.1267 336.191C30.4355 336.34 30.7046 336.56 30.912 336.833C33.1506 339.667 31.0511 349.161 29.8992 353.597C30.7669 352.271 32.0106 350.775 33.275 350.606C33.5394 350.55 33.8152 350.582 34.0595 350.698C34.3037 350.814 34.5026 351.008 34.6253 351.249C35.3182 352.588 34.2403 355.913 31.2377 359.159L30.8024 358.756C33.7636 355.573 34.6134 352.511 34.1012 351.522C34.0348 351.387 33.9233 351.281 33.7864 351.221C33.6494 351.161 33.4956 351.151 33.352 351.193C31.7293 351.409 29.84 354.696 29.2507 355.949L28.6999 355.736C28.7444 355.585 33.1417 340.633 30.4471 337.2C30.2933 336.997 30.0933 336.834 29.8635 336.723C29.6338 336.613 29.3811 336.559 29.1264 336.567C29.084 336.564 29.0414 336.564 28.999 336.567C28.6654 336.586 28.3402 336.678 28.0464 336.838C27.7527 336.997 27.4976 337.219 27.2993 337.488C24.1249 341.391 26.1948 355.629 26.2185 355.771L25.644 355.91C24.5572 352.7 21.2022 344.314 18.7266 344.017C18.2469 343.958 17.8146 344.243 17.4089 344.885C14.3085 349.783 23.4853 358.65 23.58 358.738L23.1803 359.165Z" fill="#444092"/>
<path d="M328.252 375.843C328.252 375.843 319.893 367.847 322.771 363.305C325.649 358.762 330.5 373.077 330.5 373.077C330.5 373.077 327.983 356.138 333.194 355.842C338.406 355.546 333.194 373.077 333.194 373.077C333.194 373.077 335.128 368.988 337.014 368.736C338.9 368.484 338.364 372.201 334.992 375.843H328.252Z" fill="#B8D5DC"/>
<path d="M328.865 376.059C328.471 375.683 319.247 366.77 322.599 361.46C323.132 360.616 323.783 360.237 324.491 360.32C326.943 360.616 329.635 366.648 331.006 370.19C330.55 365.807 330.017 357.095 332.528 354.009C332.78 353.677 333.1 353.403 333.466 353.206C333.833 353.009 334.238 352.893 334.654 352.866H334.817C335.16 352.859 335.5 352.933 335.809 353.083C336.118 353.233 336.387 353.454 336.594 353.728C338.832 356.559 336.733 366.053 335.581 370.495C336.449 369.165 337.689 367.664 338.957 367.492C339.221 367.434 339.498 367.466 339.743 367.583C339.987 367.7 340.186 367.895 340.307 368.138C341.003 369.479 339.925 372.805 336.922 376.05L336.484 375.648C339.445 372.464 340.295 369.396 339.783 368.41C339.713 368.279 339.602 368.175 339.466 368.115C339.33 368.055 339.177 368.043 339.034 368.081C337.411 368.301 335.525 371.588 334.932 372.84L334.382 372.627C334.426 372.476 338.823 357.524 336.129 354.092C335.975 353.889 335.776 353.726 335.546 353.617C335.317 353.507 335.065 353.454 334.811 353.461H334.681C334.347 353.482 334.022 353.575 333.728 353.734C333.435 353.894 333.18 354.116 332.981 354.385C329.804 358.282 331.876 372.523 331.897 372.666L331.326 372.805C330.239 369.595 326.884 361.205 324.408 360.912C324.368 360.907 324.327 360.907 324.287 360.912C323.852 360.912 323.461 361.208 323.102 361.8C320.005 366.704 329.182 375.568 329.274 375.657L328.865 376.059Z" fill="#444092"/>
<path d="M443.674 375.843C443.674 375.843 435.317 367.847 438.192 363.305C441.068 358.762 445.921 373.077 445.921 373.077C445.921 373.077 443.404 356.138 448.619 355.842C453.833 355.546 448.619 373.077 448.619 373.077C448.619 373.077 450.549 368.988 452.439 368.736C454.328 368.484 453.786 372.201 450.416 375.843H443.674Z" fill="#B8D5DC"/>
<path d="M444.287 376.059C443.893 375.683 434.669 366.77 438.021 361.46C438.557 360.616 439.205 360.237 439.913 360.32C442.368 360.616 445.056 366.648 446.428 370.19C445.971 365.81 445.438 357.095 447.95 354.009C448.201 353.677 448.521 353.403 448.888 353.206C449.255 353.009 449.66 352.893 450.076 352.866H450.239C450.582 352.859 450.922 352.933 451.231 353.083C451.54 353.233 451.809 353.454 452.015 353.728C454.257 356.559 452.154 366.053 451.003 370.495C451.87 369.165 453.111 367.664 454.378 367.492C454.644 367.433 454.921 367.465 455.166 367.582C455.411 367.699 455.61 367.894 455.732 368.138C456.425 369.479 455.35 372.805 452.344 376.05L451.906 375.648C454.867 372.461 455.717 369.396 455.205 368.41C455.137 368.278 455.026 368.173 454.89 368.113C454.754 368.053 454.601 368.042 454.458 368.081C452.836 368.301 450.946 371.588 450.354 372.84L449.803 372.627C449.848 372.476 454.245 357.524 451.55 354.092C451.397 353.889 451.197 353.726 450.968 353.617C450.739 353.507 450.487 353.454 450.233 353.461H450.102C449.769 353.482 449.444 353.575 449.15 353.734C448.856 353.894 448.601 354.116 448.403 354.385C445.228 358.282 447.301 372.523 447.322 372.666L446.747 372.805C445.661 369.595 442.306 361.205 439.83 360.912C439.79 360.907 439.749 360.907 439.709 360.912C439.273 360.912 438.882 361.208 438.524 361.8C435.427 366.704 444.603 375.568 444.695 375.657L444.287 376.059Z" fill="#444092"/>
</g>
<defs>
<clipPath id="clip0_1_23">
<rect width="515" height="398" fill="white"/>
</clipPath>
</defs>
</svg>
