<svg width="219" height="263" viewBox="0 0 219 263" fill="none" xmlns="http://www.w3.org/2000/svg">
<g clip-path="url(#clip0_20_410)">
<path d="M218.895 124.354C218.816 125.562 218.717 126.777 218.593 127.966C218.534 128.577 218.468 129.175 218.396 129.779C217.233 139.743 214.631 149.136 210.439 157.367C210.091 158.056 209.73 158.733 209.349 159.403C206.434 164.725 202.661 169.53 198.18 173.623C197.779 173.991 197.379 174.346 196.965 174.687C192.906 178.108 188.335 180.867 183.418 182.865C182.82 183.115 182.222 183.351 181.611 183.581C169.903 187.923 155.2 188.803 137.179 184.895H137.133C136.515 184.763 135.891 184.639 135.28 184.54C118.566 181.558 106.143 188.218 92.9505 194.984C92.4709 195.227 91.9979 195.477 91.5117 195.713C75.6126 203.825 58.3273 211.589 30.9244 202.584C-11.3856 188.698 -2.84475 141.215 12.9558 107.361C13.2054 106.816 13.4617 106.284 13.7179 105.745C16.8155 99.2448 20.3653 92.9697 24.3414 86.966C27.102 82.772 29.4392 78.3143 31.3186 73.6584C31.5682 73.0607 31.8047 72.463 32.0413 71.8587C41.4559 47.7065 40.6412 21.6102 57.3878 11.4291C57.8123 11.1525 58.2509 10.8982 58.7018 10.6671C63.2735 8.31383 68.3538 7.12015 73.4954 7.19116C78.637 7.26218 83.6824 8.59571 88.1873 11.0744C88.7524 11.4028 89.3108 11.7312 89.8561 12.0925C102.68 20.3162 111.478 37.1642 119.69 50.5244C119.986 51.0236 120.288 51.5031 120.583 51.9826C127.114 62.4527 133.349 70.407 141.049 69.6517C142.606 69.5006 144.182 69.3889 145.766 69.3232L147.408 69.2641C161.106 68.9226 175.54 71.6353 187.826 77.3433C188.338 77.5732 188.838 77.8162 189.337 78.0658C200.552 83.5899 209.822 91.6888 214.854 102.369C215.078 102.835 215.288 103.308 215.511 103.781C218.256 110.273 219.415 117.325 218.895 124.354V124.354Z" fill="#E4EBF7"/>
<path d="M179.844 53.6181C178.258 54.398 176.615 55.0567 174.929 55.5886C174.351 55.766 173.786 55.9302 173.221 56.0682C144.826 63.3197 121.378 27.8502 119.421 11.0941C117.45 -5.8853 139.353 -0.775063 160.397 9.12356C161.054 9.43228 161.711 9.741 162.368 10.0628C163.025 10.3847 163.728 10.7197 164.398 11.0678C187.024 22.4772 211.129 38.3597 179.844 53.6181Z" fill="#E4EBF7"/>
<path opacity="0.62" d="M137.166 184.934H137.12C136.502 184.803 135.878 184.678 135.267 184.579C130.937 174.136 124.644 163.613 116.057 159.803C110.203 157.176 103.784 158.01 97.0041 162.214C77.0514 174.549 61.6319 181.492 51.245 175.285C41.3245 169.374 37.4482 151.343 39.3207 120.222C40.5098 100.517 37.8424 84.8904 31.3711 73.6715C31.6208 73.0738 31.8573 72.4761 32.0938 71.8718C39.1761 83.4453 42.1194 99.6759 40.8646 120.314C39.0119 150.805 42.6713 168.349 52.0334 173.952C62.3086 180.1 79.3312 171.324 96.1763 160.9C103.443 156.407 110.348 155.56 116.701 158.385C126.063 162.536 132.718 173.919 137.166 184.934Z" fill="white"/>
<path opacity="0.62" d="M92.9373 195.01C92.4577 195.253 91.9847 195.503 91.4986 195.739C90.4934 192.324 88.8049 189.026 86.0456 186.839C82.0511 183.673 76.3681 183.279 69.1544 185.663C53.1896 190.918 41.0157 190.452 32.9413 184.192C23.9143 177.203 20.0644 162.937 21.5032 141.799C22.5478 126.357 18.4285 115.223 12.9623 107.361C13.212 106.816 13.4682 106.284 13.7244 105.745C19.6373 113.877 24.1705 125.549 23.0602 141.872C21.6543 162.457 25.3137 176.277 33.9071 182.937C41.5347 188.849 53.2356 189.269 68.6748 184.153C76.4207 181.591 82.5898 182.083 87.0245 185.598C90.0006 188.002 91.8336 191.45 92.9373 195.01Z" fill="white"/>
<path opacity="0.62" d="M165.16 128.728C162.532 148.578 165.528 164.02 174.049 174.635C176.678 177.894 179.847 180.678 183.418 182.865C182.82 183.115 182.222 183.351 181.611 183.581C178.301 181.403 175.348 178.724 172.86 175.64C164.043 164.684 160.942 148.841 163.629 128.538C167.111 102.185 178.083 86.4143 187.859 77.3433C188.371 77.5732 188.871 77.8162 189.37 78.0658C179.692 86.8543 168.629 102.395 165.16 128.728Z" fill="white"/>
<path opacity="0.62" d="M187.681 135.474C185.435 150.542 187.307 161.892 193.259 169.196C194.654 170.91 196.302 172.401 198.147 173.617C197.746 173.985 197.346 174.339 196.932 174.681C195.1 173.419 193.459 171.902 192.057 170.175C185.816 162.516 183.832 150.765 186.144 135.237C188.503 119.473 198.397 108.156 214.874 102.33C215.098 102.796 215.308 103.269 215.531 103.742C199.35 109.378 189.987 120.038 187.681 135.474Z" fill="white"/>
<path opacity="0.62" d="M218.593 127.966C218.534 128.577 218.468 129.175 218.396 129.779C215.276 131.253 212.721 133.701 211.116 136.755C207.93 142.903 208.797 150.923 210.459 157.347C210.111 158.036 209.75 158.713 209.369 159.383C207.398 152.486 206.031 143.218 209.756 136.032C211.674 132.398 214.799 129.546 218.593 127.966Z" fill="white"/>
<path opacity="0.62" d="M147.441 69.2313C146.539 73.3319 145.291 77.3487 143.709 81.2383C137.415 96.4902 126.996 104.51 113.488 104.51C112.956 104.51 112.43 104.51 111.885 104.477C93.4892 103.63 82.9774 75.0115 72.7613 47.3321C67.7682 33.7946 62.9196 20.6249 57.4141 11.4291C57.8386 11.1525 58.2772 10.8982 58.7281 10.6671C64.3453 20.06 69.2398 33.2494 74.2198 46.8329C84.252 74.0393 94.6324 102.165 111.97 102.96C133.94 103.965 142.514 83.2549 145.792 69.3232L147.441 69.2313Z" fill="white"/>
<path opacity="0.62" d="M120.616 51.9694C119.181 52.2335 117.726 52.3676 116.267 52.3701C112.583 52.3997 108.956 51.4548 105.755 49.6311C96.2683 44.2121 90.3817 31.2394 88.1939 11.0612C88.7589 11.3896 89.3174 11.7181 89.8627 12.0793C92.0833 31.0687 97.6677 43.2203 106.524 48.278C110.531 50.5045 115.179 51.2926 119.696 50.5112C120.012 51.0104 120.321 51.4965 120.616 51.9694Z" fill="white"/>
<path opacity="0.62" d="M174.929 55.5887C174.351 55.766 173.786 55.9302 173.221 56.0682C169.122 51.7855 164.68 43.1743 163.616 25.8534C163.336 20.1681 162.252 14.551 160.397 9.16956C161.054 9.47827 161.711 9.78699 162.368 10.1088C163.955 15.1862 164.9 20.4425 165.18 25.7548C166.257 43.529 170.895 51.7724 174.929 55.5887Z" fill="white"/>
<path d="M108.114 263.007C142.998 263.007 171.276 260.16 171.276 256.648C171.276 253.137 142.998 250.29 108.114 250.29C73.23 250.29 44.951 253.137 44.951 256.648C44.951 260.16 73.23 263.007 108.114 263.007Z" fill="#E4EBF7"/>
<path d="M32.6325 105.62C32.6325 105.62 33.7363 106.376 35.7138 107.525C42.1917 111.295 58.0513 119.348 75.4681 119.237C76.0199 119.237 76.5718 119.237 77.1171 119.237C77.6624 119.237 78.3588 119.178 78.9829 119.132C80.6517 119.007 82.3204 118.81 84.0023 118.521L86.1835 101.791L80.4086 102.067L78.8253 102.146L77.8858 102.192L62.5846 102.947L39.4652 95.5904L36.1802 94.5328C36.1802 94.5328 32.0412 97.3967 32.6325 105.62Z" fill="url(#paint0_linear_20_410)"/>
<path d="M32.6325 105.62C32.6325 105.62 33.7363 106.376 35.7138 107.525C35.9437 102.986 37.895 98.5002 39.4652 95.5575L36.1802 94.5C36.1802 94.5 32.0412 97.3967 32.6325 105.62Z" fill="#FAFCFF" stroke="#0C6BF4" stroke-width="1.18" stroke-miterlimit="10"/>
<path opacity="0.47" d="M77.1368 119.204C77.761 119.204 78.3785 119.145 79.0027 119.099C80.6714 118.974 82.3402 118.777 84.022 118.488L86.2032 101.758L80.4283 102.034L78.845 102.113C78.3911 103.898 78.0271 105.704 77.7544 107.525C77.1563 111.387 76.9494 115.3 77.1368 119.204V119.204Z" fill="#3150BC"/>
<path d="M48.1919 88.6507L27.5038 91.96L31.9244 119.584L52.6126 116.274L48.1919 88.6507Z" fill="#BAC1CC"/>
<path d="M50.542 90.1189H29.5907V118.094H50.542V90.1189Z" fill="#EDF1F9"/>
<path d="M36.5022 96.0239C36.5035 96.4376 36.3819 96.8423 36.1528 97.1868C35.9238 97.5313 35.5975 97.8001 35.2155 97.959C34.8335 98.1179 34.4129 98.1598 34.007 98.0794C33.6011 97.999 33.2283 97.8 32.9357 97.5075C32.6431 97.2149 32.444 96.8422 32.3636 96.4364C32.2832 96.0306 32.3251 95.6101 32.484 95.2281C32.643 94.8462 32.9118 94.52 33.2564 94.291C33.6009 94.062 34.0058 93.9404 34.4195 93.9417C34.9719 93.9417 35.5016 94.1611 35.8922 94.5516C36.2828 94.9421 36.5022 95.4717 36.5022 96.0239V96.0239Z" fill="#F4D242"/>
<path d="M44.6883 102.638H32.9479C32.7841 102.638 32.627 102.573 32.5112 102.457C32.3954 102.342 32.3303 102.185 32.3303 102.021V102.021C32.3321 101.858 32.3979 101.703 32.5135 101.589C32.6291 101.474 32.7852 101.41 32.9479 101.41H44.6883C44.8503 101.41 45.0057 101.474 45.1203 101.589C45.2349 101.704 45.2992 101.859 45.2992 102.021C45.2993 102.184 45.2351 102.34 45.1207 102.455C45.0063 102.571 44.8509 102.637 44.6883 102.638V102.638Z" fill="#BAC1CC"/>
<path d="M47.4279 105.87H32.9742C32.8104 105.87 32.6533 105.805 32.5375 105.689C32.4217 105.573 32.3566 105.416 32.3566 105.253V105.253C32.3583 105.09 32.4242 104.935 32.5398 104.82C32.6554 104.706 32.8115 104.642 32.9742 104.642H47.4279C47.5905 104.642 47.7466 104.706 47.8623 104.82C47.9779 104.935 48.0437 105.09 48.0454 105.253V105.253C48.0454 105.416 47.9804 105.573 47.8646 105.689C47.7487 105.805 47.5917 105.87 47.4279 105.87V105.87Z" fill="#BAC1CC"/>
<path d="M47.4279 108.872H32.9742C32.8104 108.872 32.6533 108.807 32.5375 108.691C32.4217 108.575 32.3566 108.418 32.3566 108.254V108.254C32.3566 108.091 32.4217 107.934 32.5375 107.818C32.6533 107.702 32.8104 107.637 32.9742 107.637H47.4279C47.5917 107.637 47.7487 107.702 47.8646 107.818C47.9804 107.934 48.0454 108.091 48.0454 108.254V108.254C48.0454 108.418 47.9804 108.575 47.8646 108.691C47.7487 108.807 47.5917 108.872 47.4279 108.872V108.872Z" fill="#BAC1CC"/>
<path d="M47.4279 111.69H32.9742C32.8104 111.69 32.6533 111.625 32.5375 111.509C32.4217 111.393 32.3566 111.236 32.3566 111.072V111.072C32.3583 110.91 32.4242 110.754 32.5398 110.64C32.6554 110.525 32.8115 110.461 32.9742 110.461H47.4279C47.5905 110.461 47.7466 110.525 47.8623 110.64C47.9779 110.754 48.0437 110.91 48.0454 111.072V111.072C48.0454 111.236 47.9804 111.393 47.8646 111.509C47.7487 111.625 47.5917 111.69 47.4279 111.69V111.69Z" fill="#BAC1CC"/>
<path d="M28.9074 100.661C28.9074 100.661 33.4012 100.182 33.5063 101.41C33.6115 102.638 30.7864 102.96 30.7864 102.96C30.7864 102.96 34.9254 103.183 35.0568 104.11C35.1882 105.036 30.7864 105.87 30.7864 105.87C30.7864 105.87 34.3144 105.87 34.3933 106.744C34.4721 107.617 30.8521 108.254 30.8521 108.254C30.8521 108.254 33.6312 108.392 33.6969 109.167C33.7626 109.942 29.1702 111.368 28.2636 110.481C27.3569 109.594 28.5855 107.893 27.554 106.888C27.1083 106.47 26.8199 105.912 26.7374 105.307C26.6548 104.701 26.7831 104.086 27.1007 103.564C27.7117 102.829 25.767 100.687 28.9074 100.661Z" fill="#FEB19E"/>
<path d="M54.3131 180.822L42.218 176.697L43.6305 172.553C43.892 171.79 44.4455 171.161 45.1696 170.805C45.8938 170.45 46.7295 170.395 47.4936 170.654L53.8269 172.815C54.2054 172.944 54.5548 173.146 54.8551 173.41C55.1554 173.674 55.4007 173.994 55.577 174.353C55.7534 174.712 55.8573 175.102 55.8828 175.501C55.9082 175.899 55.8548 176.299 55.7256 176.678L54.3131 180.822ZM44.2546 175.692L53.3079 178.786L54.208 176.159C54.334 175.799 54.3121 175.404 54.1471 175.06C53.982 174.717 53.6873 174.453 53.3276 174.326L46.9943 172.165C46.8161 172.104 46.6277 172.079 46.4397 172.091C46.2518 172.103 46.0681 172.151 45.899 172.234C45.73 172.317 45.579 172.433 45.4547 172.574C45.3303 172.716 45.2351 172.88 45.1744 173.058L44.2546 175.692Z" fill="#593131"/>
<path d="M29.2989 174.722L63.777 186.484L58.297 202.541C57.8941 203.722 57.0387 204.694 55.9189 205.244C54.7991 205.794 53.5067 205.876 52.3259 205.474L26.7518 196.749C25.571 196.347 24.5987 195.491 24.0487 194.372C23.4986 193.252 23.416 191.96 23.8188 190.78L29.2989 174.722Z" fill="#593131"/>
<path d="M61.4808 188.882L45.0562 186.911C44.4784 186.839 43.9216 186.649 43.4203 186.353L29.2359 177.853C28.8888 177.645 28.6238 177.324 28.4851 176.944C28.3463 176.564 28.3424 176.147 28.4738 175.765L29.8338 171.771C29.9092 171.551 30.0274 171.347 30.1815 171.173C30.3355 170.998 30.5226 170.855 30.7318 170.753C30.9411 170.65 31.1685 170.59 31.4011 170.575C31.6337 170.561 31.8668 170.592 32.0872 170.668L63.6226 181.42C63.8437 181.495 64.0478 181.613 64.2233 181.766C64.3988 181.92 64.5423 182.107 64.6454 182.316C64.7485 182.526 64.8094 182.753 64.8244 182.986C64.8394 183.219 64.8083 183.452 64.7329 183.673L63.3664 187.667C63.2392 188.055 62.9824 188.387 62.6391 188.609C62.2958 188.83 61.8869 188.926 61.4808 188.882V188.882Z" fill="#754343"/>
<path d="M56.2841 166.135C56.2841 166.135 58.5441 172.362 57.2893 173.282C56.0344 174.201 53.6955 170.76 52.9663 172.067C52.237 173.374 54.6153 175.85 51.3698 176.047C48.1243 176.244 45.2073 173.768 45.5489 170.319C45.8905 166.871 48.663 164.736 48.6565 163.698L49.3134 161.544L56.7834 164.066L56.2841 166.135Z" fill="#FEB19E"/>
<path d="M48.0455 163.508L57.0724 166.391L58.9711 162.411V162.345L67.9324 143.619L77.3931 141.3L81.4532 140.308L82.1102 140.144L86.9325 138.962L90.8744 137.996L85.8945 121.575C85.8945 121.575 84.1994 121.838 81.5649 122.547C80.6254 122.803 79.594 123.119 78.4114 123.5C78.1157 123.598 77.807 123.697 77.4982 123.808C76.8412 124.025 76.1842 124.275 75.5272 124.537C70.5078 126.475 64.5358 129.562 59.6807 134.331C52.4538 141.438 49.6419 152.657 48.5973 158.91L48.5579 159.166C48.1506 161.807 48.0455 163.508 48.0455 163.508Z" fill="url(#paint1_linear_20_410)"/>
<path opacity="0.47" d="M78.4508 123.486C78.1552 123.585 77.8464 123.684 77.5376 123.795C78.2452 129.444 79.7954 134.955 82.1365 140.144L86.9588 138.962L90.9007 137.996L85.9207 121.575C85.9207 121.575 84.2257 121.838 81.5912 122.547C80.6649 122.79 79.6005 123.092 78.4508 123.486Z" fill="#3150BC"/>
<path d="M48.5842 159.153C48.1506 161.78 48.0455 163.508 48.0455 163.508L57.0724 166.392L58.9711 162.411V162.345C55.3745 161.781 51.8769 160.706 48.5842 159.153V159.153Z" fill="#9EB2EF"/>
<path d="M192.047 83.2518L183.781 84.9678C182.943 85.1418 182.404 85.9624 182.578 86.8007L186.267 104.564C186.442 105.402 187.262 105.94 188.101 105.766L196.367 104.051C197.205 103.876 197.744 103.056 197.57 102.218L193.881 84.4544C193.706 83.6162 192.886 83.0778 192.047 83.2518Z" fill="#23406D"/>
<path d="M184.848 87.174L191.222 85.8734C191.502 85.8163 191.793 85.8727 192.032 86.0303C192.27 86.1878 192.436 86.4337 192.493 86.7136L195.464 101.268L186.978 102.999L184.007 88.4451C183.95 88.1651 184.007 87.8739 184.164 87.6355C184.322 87.3971 184.568 87.2311 184.848 87.174V87.174Z" fill="#A8AFBA"/>
<path d="M179.141 103.17L181.223 102.441C181.223 102.441 182.958 103.354 185.73 102.073L184.048 93.9811C184.048 93.9811 186.952 91.9646 186.9 90.756C186.847 89.5475 181.177 89.8299 178.898 95.3539L176.375 96.418L179.141 103.17Z" fill="#FEB19E"/>
<path d="M179.798 105.62C179.798 105.62 178.694 106.376 176.716 107.525C170.238 111.295 154.379 119.348 136.962 119.237C136.41 119.237 135.865 119.237 135.313 119.237C134.761 119.237 134.071 119.178 133.447 119.132C131.778 119.007 130.11 118.81 128.428 118.521L126.247 101.791L132.022 102.067L133.605 102.146L134.544 102.192L149.846 102.947L172.965 95.5904L176.25 94.5328C176.25 94.5328 180.395 97.3967 179.798 105.62Z" fill="url(#paint2_linear_20_410)"/>
<path opacity="0.47" d="M135.3 119.204C134.676 119.204 134.058 119.145 133.434 119.099C131.765 118.974 130.097 118.777 128.415 118.488L126.233 101.758L132.008 102.034L133.592 102.113C134.046 103.898 134.41 105.704 134.682 107.525C135.28 111.387 135.487 115.3 135.3 119.204Z" fill="#3150BC"/>
<path d="M176.263 94.5L172.978 95.5575C174.548 98.5002 176.5 102.986 176.729 107.525C178.7 106.376 179.811 105.62 179.811 105.62C180.395 97.3967 176.263 94.5 176.263 94.5Z" fill="#9EB2EF"/>
<path d="M166.71 170.149C166.762 170.27 166.79 170.4 166.791 170.532C166.792 170.663 166.767 170.794 166.718 170.916C166.668 171.038 166.595 171.15 166.503 171.243C166.41 171.337 166.3 171.411 166.178 171.462L155.62 175.968L154.832 174.123L165.396 169.623C165.517 169.571 165.647 169.543 165.779 169.542C165.91 169.54 166.041 169.564 166.163 169.613C166.285 169.662 166.396 169.734 166.49 169.826C166.584 169.918 166.659 170.028 166.71 170.149Z" fill="#A1A7AF"/>
<path d="M142.349 180.514C142.906 181.83 143.84 182.951 145.034 183.736C146.228 184.521 147.627 184.935 149.056 184.925C150.485 184.915 151.879 184.482 153.062 183.68C154.245 182.878 155.163 181.744 155.701 180.42C156.239 179.097 156.372 177.643 156.084 176.244C155.796 174.845 155.1 173.562 154.083 172.558C153.066 171.555 151.774 170.875 150.371 170.605C148.968 170.335 147.516 170.487 146.199 171.042C145.324 171.411 144.53 171.948 143.863 172.624C143.196 173.3 142.668 174.1 142.311 174.98C141.953 175.86 141.772 176.801 141.779 177.751C141.786 178.7 141.98 179.639 142.349 180.514V180.514ZM154.366 175.397C154.825 176.455 154.96 177.625 154.753 178.76C154.546 179.894 154.006 180.942 153.202 181.769C152.399 182.597 151.367 183.167 150.239 183.407C149.111 183.647 147.937 183.547 146.865 183.119C145.794 182.691 144.875 181.954 144.223 181.002C143.571 180.05 143.217 178.927 143.206 177.773C143.194 176.62 143.526 175.489 144.158 174.525C144.791 173.56 145.695 172.805 146.758 172.356C148.174 171.748 149.773 171.727 151.204 172.297C152.636 172.867 153.782 173.982 154.392 175.397H154.366Z" fill="#BAC1CC"/>
<path d="M156.041 165.038L156.77 167.219C156.867 168.41 156.893 169.605 156.849 170.799C156.744 171.994 155.864 174.011 157.026 174.3C158.189 174.589 157.94 177.137 160.462 176.559C162.985 175.981 166.789 173.689 166.697 171.646C166.605 169.603 163.596 165.899 163.596 165.899L163.163 163.961L156.041 165.038Z" fill="#FEB19E"/>
<path d="M164.391 163.508L155.371 166.391L153.466 162.411L153.433 162.345L144.471 143.619L135.011 141.3L130.951 140.308L130.294 140.144L125.471 138.962L121.529 137.996L126.509 121.575C126.509 121.575 128.204 121.838 130.839 122.547C131.778 122.803 132.81 123.119 133.992 123.5C134.288 123.598 134.597 123.697 134.906 123.808C135.563 124.025 136.22 124.275 136.877 124.537C141.896 126.475 147.875 129.562 152.723 134.331C159.95 141.438 162.768 152.657 163.807 158.91C163.807 158.995 163.839 159.081 163.846 159.166C164.286 161.807 164.391 163.508 164.391 163.508Z" fill="url(#paint3_linear_20_410)"/>
<path opacity="0.47" d="M133.986 123.486C134.282 123.585 134.59 123.684 134.899 123.795C134.192 129.444 132.641 134.955 130.3 140.144L125.478 138.962L121.536 137.996L126.516 121.575C126.516 121.575 128.211 121.838 130.846 122.547C131.772 122.79 132.836 123.092 133.986 123.486Z" fill="#3150BC"/>
<path d="M153.433 162.345L153.466 162.411L155.371 166.392L164.391 163.508C164.391 163.508 164.286 161.807 163.853 159.153C160.549 160.709 157.041 161.784 153.433 162.345V162.345Z" fill="#9EB2EF"/>
<path d="M75.5009 44.1267C75.5009 44.1267 71.513 42.373 71.1845 40.9082C70.856 39.4434 70.291 36.0804 69.1479 35.8571C68.0047 35.6338 68.6617 41.0593 68.6617 41.0593C68.6617 41.0593 68.3595 35.9031 66.8221 35.3644C65.2848 34.8258 66.5659 41.7424 66.4082 41.5059C66.2506 41.2695 65.5147 36.2512 64.6935 36.3628C63.8723 36.4745 63.5898 41.4797 64.7526 43.9362C65.4531 45.4155 65.9694 46.9751 66.29 48.5801L73.5168 49.0531L75.5009 44.1267Z" fill="#F49D8C"/>
<path d="M74.0227 49.0268C76.3919 47.3716 78.0117 44.8481 78.5296 42.0051C79.1866 38.7209 76.1054 41.519 75.1002 43.8574C75.1002 43.8574 69.8443 43.5487 68.9311 48.6721L74.0227 49.0268Z" fill="#FEB19E"/>
<path d="M66.6251 79.7802C70.0874 86.9726 75.8229 92.5361 80.2969 96.1027C80.4021 96.1815 80.494 96.2472 80.586 96.3261L80.6911 96.4114C82.6775 97.9804 84.7768 99.4008 86.9719 100.661L97.2341 86.8675L93.844 84.6211L92.3526 83.6818L91.4854 83.1038L77.5442 73.8292L75.4549 53.0992L75.0148 48.7181L65.5345 48.3699C65.5345 48.3699 65.0417 50.1106 64.5293 52.9087C63.3861 59.1422 62.2298 70.6435 66.6251 79.7802Z" fill="url(#paint4_linear_20_410)"/>
<path opacity="0.47" d="M86.9719 100.661L97.2341 86.8675L93.844 84.6211L92.3526 83.6818L91.4854 83.1038C88.5159 84.7656 83.9301 88.4834 80.6911 96.4443C82.6785 98.0019 84.7778 99.4114 86.9719 100.661V100.661Z" fill="#3150BC"/>
<path d="M64.5227 52.9021C68.1635 52.5851 71.8274 52.649 75.4549 53.0926L75.0148 48.7115L65.541 48.3633C65.541 48.3633 65.0351 50.104 64.5227 52.9021Z" fill="#9EB2EF"/>
<path d="M77.9646 20.2176C77.965 19.2653 77.7305 18.3276 77.282 17.4875C76.8335 16.6474 76.1848 15.9308 75.3933 15.401C74.6017 14.8713 73.6918 14.5449 72.744 14.4505C71.7961 14.3562 70.8397 14.4969 69.9592 14.8603C69.0788 15.2236 68.3015 15.7983 67.6961 16.5335C67.0908 17.2688 66.6761 18.1419 66.4887 19.0755C66.3012 20.0092 66.3469 20.9747 66.6217 21.8865C66.8964 22.7983 67.3918 23.6284 68.0638 24.3032C68.878 25.1112 69.4649 26.1193 69.7654 27.2261L70.2319 28.9536H74.0227L74.4629 27.3181C74.7763 26.1895 75.3813 25.1633 76.217 24.3426C76.7691 23.8065 77.2082 23.1654 77.5083 22.4569C77.8085 21.7484 77.9636 20.987 77.9646 20.2176Z" fill="#F4D242"/>
<path d="M70.8232 21.5248C70.7043 21.5245 70.5871 21.5523 70.481 21.6058C70.3749 21.6594 70.283 21.7372 70.2126 21.833C70.1423 21.9287 70.0955 22.0397 70.0761 22.1569C70.0567 22.2742 70.0653 22.3943 70.1011 22.5076C70.1369 22.6209 70.1989 22.7242 70.2821 22.809C70.3653 22.8938 70.4673 22.9579 70.5799 22.9959C70.6925 23.0338 70.8125 23.0448 70.9301 23.0277C71.0477 23.0106 71.1597 22.966 71.2568 22.8976V28.9537H71.5787V22.2801C71.577 22.0803 71.4969 21.8892 71.3555 21.7479C71.2142 21.6066 71.023 21.5265 70.8232 21.5248V21.5248ZM70.8232 22.7137C70.7374 22.7137 70.6536 22.6882 70.5823 22.6406C70.511 22.593 70.4554 22.5253 70.4226 22.446C70.3898 22.3668 70.3812 22.2797 70.3979 22.1956C70.4146 22.1115 70.4559 22.0342 70.5166 21.9736C70.5772 21.913 70.6545 21.8717 70.7386 21.855C70.8227 21.8382 70.9099 21.8468 70.9891 21.8796C71.0683 21.9124 71.1361 21.968 71.1837 22.0393C71.2314 22.1106 71.2568 22.1944 71.2568 22.2801C71.2551 22.3946 71.2089 22.5039 71.1279 22.5848C71.047 22.6658 70.9377 22.712 70.8232 22.7137V22.7137Z" fill="white"/>
<path d="M73.0701 22.1816C72.8697 22.1816 72.6775 22.2612 72.5358 22.4028C72.3941 22.5445 72.3145 22.7366 72.3145 22.9369L72.2751 28.9536H72.597L72.6365 23.5544C72.763 23.6446 72.9147 23.6928 73.0701 23.6923C73.2705 23.6923 73.4626 23.6127 73.6043 23.4711C73.746 23.3294 73.8256 23.1373 73.8256 22.9369C73.8256 22.7366 73.746 22.5445 73.6043 22.4028C73.4626 22.2612 73.2705 22.1816 73.0701 22.1816V22.1816ZM73.0701 23.3705C72.984 23.3718 72.8996 23.3475 72.8274 23.3006C72.7552 23.2538 72.6986 23.1865 72.6648 23.1075C72.631 23.0284 72.6215 22.941 72.6374 22.8565C72.6534 22.7719 72.6942 22.6941 72.7546 22.6328C72.8149 22.5715 72.8922 22.5296 72.9765 22.5123C73.0607 22.495 73.1483 22.5032 73.2279 22.5358C73.3075 22.5684 73.3756 22.624 73.4236 22.6954C73.4715 22.7669 73.4971 22.8509 73.4971 22.9369C73.4971 23.0508 73.4523 23.1601 73.3724 23.2412C73.2925 23.3223 73.1839 23.3687 73.0701 23.3705V23.3705Z" fill="white"/>
<path d="M72.1174 31.1344C71.5947 31.1344 71.0934 30.9268 70.7238 30.5572C70.3541 30.1877 70.1465 29.6864 70.1465 29.1638V28.704H74.0884V29.1638C74.0884 29.6864 73.8807 30.1877 73.5111 30.5572C73.1415 30.9268 72.6402 31.1344 72.1174 31.1344V31.1344Z" fill="#383838"/>
<path d="M74.1081 29.6105H70.1136C70.073 29.6088 70.0345 29.5914 70.0064 29.562C69.9782 29.5327 69.9625 29.4935 69.9625 29.4528V29.4528C69.9641 29.4133 69.9806 29.3758 70.0086 29.3478C70.0366 29.3198 70.0741 29.3034 70.1136 29.3018H74.1081C74.1477 29.3034 74.1852 29.3198 74.2132 29.3478C74.2412 29.3758 74.2576 29.4133 74.2592 29.4528C74.2592 29.4935 74.2435 29.5327 74.2154 29.562C74.1872 29.5914 74.1488 29.6088 74.1081 29.6105V29.6105Z" fill="#838689"/>
<path d="M74.1344 30.2542H70.1465C70.1064 30.2542 70.068 30.2383 70.0396 30.21C70.0113 30.1816 69.9954 30.1432 69.9954 30.1031C69.9945 30.0828 69.9978 30.0624 70.0049 30.0433C70.0121 30.0242 70.0231 30.0068 70.0373 29.992C70.0514 29.9773 70.0683 29.9656 70.0871 29.9576C70.1059 29.9496 70.1261 29.9455 70.1465 29.9455H74.1344C74.1548 29.9455 74.175 29.9496 74.1938 29.9576C74.2126 29.9656 74.2295 29.9773 74.2436 29.992C74.2578 30.0068 74.2688 30.0242 74.276 30.0433C74.2831 30.0624 74.2864 30.0828 74.2855 30.1031V30.1031C74.2855 30.1432 74.2696 30.1816 74.2413 30.21C74.2129 30.2383 74.1745 30.2542 74.1344 30.2542V30.2542Z" fill="#838689"/>
<path d="M65.1074 19.968H63.5898C63.5113 19.968 63.4362 19.9369 63.3807 19.8815C63.3253 19.826 63.2941 19.7508 63.2941 19.6724V19.6724C63.2941 19.6339 63.3018 19.5958 63.3167 19.5603C63.3317 19.5248 63.3535 19.4927 63.3811 19.4657C63.4086 19.4388 63.4413 19.4177 63.4771 19.4035C63.513 19.3894 63.5512 19.3826 63.5898 19.3834H65.1074C65.1459 19.3826 65.1842 19.3894 65.22 19.4035C65.2559 19.4177 65.2885 19.4388 65.3161 19.4657C65.3436 19.4927 65.3655 19.5248 65.3804 19.5603C65.3954 19.5958 65.4031 19.6339 65.403 19.6724C65.403 19.7508 65.3719 19.826 65.3165 19.8815C65.261 19.9369 65.1858 19.968 65.1074 19.968V19.968Z" fill="#F4D242"/>
<path d="M65.5739 17.2356L64.2599 16.5327C64.2255 16.5154 64.1949 16.4914 64.1699 16.462C64.145 16.4327 64.1261 16.3987 64.1145 16.362C64.1029 16.3252 64.0987 16.2866 64.1022 16.2482C64.1058 16.2099 64.1169 16.1726 64.1351 16.1386V16.1386C64.1524 16.1042 64.1765 16.0737 64.2058 16.0487C64.2351 16.0238 64.2692 16.0049 64.3059 15.9933C64.3426 15.9817 64.3813 15.9775 64.4196 15.981C64.458 15.9845 64.4953 15.9957 64.5292 16.0138L65.8761 16.7167C65.9443 16.753 65.9955 16.8146 66.0189 16.8883C66.0422 16.9619 66.0357 17.0418 66.0009 17.1108V17.1108C65.984 17.1497 65.9588 17.1845 65.9269 17.2126C65.8951 17.2408 65.8575 17.2615 65.8167 17.2734C65.7759 17.2853 65.733 17.2881 65.691 17.2816C65.6491 17.275 65.6091 17.2593 65.5739 17.2356V17.2356Z" fill="#F4D242"/>
<path d="M65.6724 22.0568L64.3584 22.7596C64.324 22.777 64.2935 22.801 64.2685 22.8303C64.2435 22.8597 64.2247 22.8937 64.213 22.9304C64.2014 22.9671 64.1972 23.0058 64.2008 23.0441C64.2043 23.0825 64.2155 23.1198 64.2336 23.1537V23.1537C64.251 23.1881 64.275 23.2187 64.3043 23.2436C64.3337 23.2686 64.3677 23.2875 64.4044 23.2991C64.4411 23.3107 64.4798 23.3149 64.5182 23.3113C64.5565 23.3078 64.5938 23.2967 64.6278 23.2785L65.9418 22.5757C65.9762 22.5584 66.0067 22.5343 66.0317 22.505C66.0567 22.4757 66.0755 22.4416 66.0872 22.4049C66.0988 22.3682 66.103 22.3295 66.0994 22.2912C66.0959 22.2528 66.0847 22.2156 66.0666 22.1816V22.1816C66.0492 22.1472 66.0252 22.1166 65.9959 22.0917C65.9665 22.0667 65.9325 22.0479 65.8958 22.0363C65.859 22.0246 65.8204 22.0205 65.782 22.024C65.7436 22.0275 65.7064 22.0387 65.6724 22.0568Z" fill="#F4D242"/>
<path d="M67.2163 14.9826L66.1389 13.9053C66.0847 13.8501 66.0544 13.7758 66.0544 13.6984C66.0544 13.6211 66.0847 13.5468 66.1389 13.4915C66.1941 13.4374 66.2684 13.407 66.3458 13.407C66.4232 13.407 66.4975 13.4374 66.5528 13.4915L67.6302 14.5688C67.6844 14.624 67.7147 14.6983 67.7147 14.7757C67.7147 14.853 67.6844 14.9273 67.6302 14.9826V14.9826C67.575 15.0367 67.5007 15.0671 67.4233 15.0671C67.3459 15.0671 67.2716 15.0367 67.2163 14.9826V14.9826Z" fill="#F4D242"/>
<path d="M69.0756 13.5507L68.55 12.1253C68.5365 12.0891 68.5304 12.0506 68.5321 12.012C68.5337 11.9734 68.5431 11.9356 68.5596 11.9007C68.5762 11.8658 68.5995 11.8345 68.6284 11.8088C68.6572 11.7831 68.6909 11.7634 68.7274 11.7509V11.7509C68.7632 11.7373 68.8013 11.7309 68.8396 11.7321C68.8779 11.7333 68.9155 11.7421 68.9504 11.758C68.9852 11.7739 69.0165 11.7965 69.0426 11.8246C69.0686 11.8527 69.0887 11.8857 69.1019 11.9217L69.6275 13.3536C69.6529 13.4268 69.6485 13.507 69.6154 13.5771C69.5822 13.6471 69.5228 13.7013 69.4501 13.728V13.728C69.3769 13.7534 69.2966 13.7491 69.2266 13.7159C69.1565 13.6827 69.1023 13.6234 69.0756 13.5507V13.5507Z" fill="#F4D242"/>
<path d="M79.2326 19.7644H80.7568C80.8341 19.7627 80.9076 19.7308 80.9616 19.6755C81.0157 19.6203 81.0459 19.5461 81.0459 19.4688V19.4688C81.0459 19.3922 81.0154 19.3187 80.9612 19.2645C80.907 19.2103 80.8335 19.1798 80.7568 19.1798H79.2326C79.1559 19.1798 79.0824 19.2103 79.0282 19.2645C78.974 19.3187 78.9435 19.3922 78.9435 19.4688C78.9435 19.5461 78.9738 19.6203 79.0278 19.6755C79.0818 19.7308 79.1553 19.7627 79.2326 19.7644V19.7644Z" fill="#F4D242"/>
<path d="M78.7662 17.0451L80.1195 16.3357C80.1534 16.3178 80.1833 16.2933 80.2076 16.2637C80.2319 16.2342 80.2501 16.2 80.2611 16.1634C80.2721 16.1267 80.2757 16.0882 80.2717 16.0502C80.2677 16.0121 80.2562 15.9752 80.2378 15.9416C80.2199 15.9078 80.1954 15.8779 80.1658 15.8536C80.1362 15.8293 80.1021 15.8111 80.0654 15.8001C80.0288 15.7891 79.9903 15.7855 79.9522 15.7895C79.9141 15.7935 79.8772 15.805 79.8436 15.8234L78.4968 16.5262C78.4624 16.5435 78.4318 16.5676 78.4069 16.5969C78.3819 16.6262 78.363 16.6603 78.3514 16.697C78.3398 16.7337 78.3356 16.7724 78.3391 16.8107C78.3427 16.8491 78.3538 16.8863 78.372 16.9203C78.4083 16.9885 78.4699 17.0397 78.5436 17.0631C78.6173 17.0864 78.6972 17.0799 78.7662 17.0451Z" fill="#F4D242"/>
<path d="M78.6742 21.8663L79.9882 22.5691C80.0225 22.5865 80.0531 22.6105 80.0781 22.6398C80.1031 22.6692 80.1219 22.7032 80.1335 22.7399C80.1452 22.7766 80.1493 22.8153 80.1458 22.8536C80.1423 22.892 80.1311 22.9293 80.113 22.9632V22.9632C80.0766 23.0314 80.015 23.0827 79.9413 23.106C79.8677 23.1293 79.7878 23.1229 79.7188 23.088L78.3654 22.3786C78.2972 22.3423 78.2459 22.2807 78.2226 22.207C78.1993 22.1334 78.2057 22.0535 78.2406 21.9845C78.2596 21.9467 78.2864 21.9133 78.3192 21.8864C78.352 21.8596 78.3901 21.84 78.431 21.8288C78.4719 21.8177 78.5147 21.8152 78.5566 21.8217C78.5985 21.8282 78.6385 21.8434 78.6742 21.8663V21.8663Z" fill="#F4D242"/>
<path d="M77.1303 14.7855L78.2011 13.7149C78.2296 13.6884 78.2523 13.6564 78.2678 13.6208C78.2833 13.5852 78.2914 13.5468 78.2914 13.508C78.2914 13.4691 78.2833 13.4307 78.2678 13.3951C78.2523 13.3595 78.2296 13.3275 78.2011 13.3011C78.1747 13.2726 78.1427 13.2499 78.1071 13.2344C78.0715 13.2189 78.033 13.2109 77.9942 13.2109C77.9554 13.2109 77.9169 13.2189 77.8813 13.2344C77.8457 13.2499 77.8137 13.2726 77.7872 13.3011L76.7164 14.3717C76.6879 14.3982 76.6652 14.4302 76.6497 14.4658C76.6342 14.5014 76.6262 14.5398 76.6262 14.5786C76.6262 14.6175 76.6342 14.6559 76.6497 14.6915C76.6652 14.7271 76.6879 14.7591 76.7164 14.7855V14.7855C76.7428 14.814 76.7748 14.8367 76.8104 14.8522C76.846 14.8677 76.8845 14.8757 76.9233 14.8757C76.9621 14.8757 77.0006 14.8677 77.0362 14.8522C77.0718 14.8367 77.1038 14.814 77.1303 14.7855Z" fill="#F4D242"/>
<path d="M75.2644 13.3602L75.79 11.9283C75.8036 11.8925 75.81 11.8544 75.8088 11.8161C75.8076 11.7779 75.7988 11.7402 75.7829 11.7054C75.767 11.6706 75.7444 11.6392 75.7162 11.6132C75.6881 11.5872 75.6551 11.5671 75.6192 11.5539C75.583 11.5404 75.5444 11.5343 75.5059 11.536C75.4673 11.5376 75.4294 11.547 75.3945 11.5635C75.3596 11.5801 75.3283 11.6034 75.3026 11.6322C75.2769 11.661 75.2572 11.6947 75.2447 11.7312L74.7191 13.1566C74.7055 13.1924 74.6991 13.2305 74.7003 13.2688C74.7015 13.307 74.7103 13.3447 74.7262 13.3795C74.7421 13.4143 74.7648 13.4457 74.7929 13.4717C74.821 13.4977 74.854 13.5178 74.8899 13.531V13.531C74.9257 13.5446 74.9638 13.551 75.0021 13.5498C75.0404 13.5486 75.078 13.5398 75.1129 13.5239C75.1477 13.508 75.1791 13.4854 75.2051 13.4573C75.2311 13.4292 75.2513 13.3962 75.2644 13.3602V13.3602Z" fill="#F4D242"/>
<path d="M71.8481 12.9069V11.3831C71.8498 11.3058 71.8817 11.2323 71.937 11.1783C71.9922 11.1243 72.0664 11.094 72.1437 11.0941C72.2204 11.0941 72.2939 11.1245 72.3481 11.1787C72.4023 11.2329 72.4328 11.3064 72.4328 11.3831V12.9069C72.4328 12.9836 72.4023 13.0571 72.3481 13.1113C72.2939 13.1655 72.2204 13.196 72.1437 13.196V13.196C72.1052 13.1968 72.0669 13.19 72.0311 13.1759C71.9953 13.1617 71.9626 13.1406 71.9351 13.1137C71.9075 13.0867 71.8856 13.0546 71.8707 13.0191C71.8558 12.9836 71.8481 12.9455 71.8481 12.9069Z" fill="#F4D242"/>
<path d="M137.093 43.9297C137.093 43.9297 141.081 42.1824 141.41 40.7177C141.738 39.2529 142.303 35.8833 143.447 35.66C144.59 35.4367 143.933 40.8688 143.933 40.8688C143.933 40.8688 144.235 35.706 145.772 35.1674C147.31 34.6288 146.028 41.5453 146.186 41.3154C146.344 41.0855 147.08 36.0607 147.901 36.1658C148.722 36.2709 149.011 41.2826 147.842 43.7457C147.142 45.223 146.626 46.7803 146.304 48.383L139.078 48.8625L137.093 43.9297Z" fill="#F49D8C"/>
<path d="M138.624 48.8297C136.255 47.1737 134.633 44.651 134.111 41.808C133.454 38.5238 136.535 41.322 137.54 43.6669C137.54 43.6669 142.796 43.3516 143.709 48.4816L138.624 48.8297Z" fill="#FEB19E"/>
<path d="M145.812 79.7802C142.349 86.9726 136.614 92.5361 132.14 96.1027C132.035 96.1815 131.943 96.2472 131.851 96.3261L131.746 96.4114C129.759 97.9804 127.66 99.4008 125.465 100.661L115.203 86.8675L118.593 84.6211L120.084 83.6293L120.958 83.0512L134.893 73.8292L136.982 53.0992L137.422 48.7181L146.902 48.3699C146.902 48.3699 147.395 50.1106 147.907 52.9087C149.051 59.1422 150.233 70.6435 145.812 79.7802Z" fill="url(#paint5_linear_20_410)"/>
<path opacity="0.47" d="M125.465 100.661L115.203 86.8675L118.593 84.6211L120.084 83.6293L120.958 83.0513C123.921 84.7131 128.507 88.4308 131.746 96.3918C129.76 97.9675 127.661 99.3945 125.465 100.661V100.661Z" fill="#3150BC"/>
<path d="M137.422 48.7115L136.982 53.0926C140.609 52.649 144.273 52.5851 147.914 52.9021C147.402 50.104 146.896 48.3633 146.896 48.3633L137.422 48.7115Z" fill="#9EB2EF"/>
<path d="M138.867 28.4413C142.322 28.4413 145.122 25.6417 145.122 22.1881C145.122 18.7346 142.322 15.935 138.867 15.935C135.413 15.935 132.613 18.7346 132.613 22.1881C132.613 25.6417 135.413 28.4413 138.867 28.4413Z" fill="#EFA245"/>
<path d="M138.867 15.1534C137.475 15.1521 136.114 15.5637 134.956 16.3362C133.798 17.1087 132.895 18.2073 132.361 19.493C131.828 20.7788 131.688 22.1938 131.959 23.559C132.231 24.9242 132.901 26.1783 133.885 27.1625C134.87 28.1467 136.124 28.8169 137.49 29.0881C138.855 29.3593 140.27 29.2195 141.556 28.6862C142.842 28.153 143.941 27.2503 144.714 26.0924C145.487 24.9345 145.898 23.5735 145.897 22.1816C145.897 20.3176 145.156 18.53 143.838 17.2119C142.52 15.8939 140.732 15.1534 138.867 15.1534V15.1534ZM138.867 28.0275C137.711 28.0288 136.579 27.6871 135.617 27.0455C134.655 26.4039 133.904 25.4914 133.461 24.4233C133.017 23.3552 132.9 22.1796 133.125 21.0452C133.35 19.9107 133.906 18.8685 134.724 18.0503C135.541 17.232 136.583 16.6746 137.718 16.4485C138.852 16.2224 140.028 16.3378 141.097 16.7801C142.166 17.2223 143.079 17.9716 143.722 18.9331C144.365 19.8946 144.708 21.0251 144.708 22.1816C144.699 23.7282 144.081 25.2092 142.988 26.3035C141.895 27.3977 140.414 28.0172 138.867 28.0275V28.0275Z" fill="#F4D242"/>
<path d="M139.334 21.7415V20.0468C140.135 20.1848 140.135 20.7037 140.135 20.8613H141.081C141.085 20.63 141.042 20.4003 140.956 20.1856C140.87 19.9709 140.741 19.7756 140.579 19.6111C140.416 19.4466 140.222 19.3162 140.008 19.2275C139.794 19.1387 139.565 19.0935 139.334 19.0944V18.4376H138.407V19.0944C137.939 19.0944 137.489 19.2806 137.158 19.6119C136.826 19.9433 136.64 20.3927 136.64 20.8613C136.64 21.3299 136.826 21.7793 137.158 22.1107C137.489 22.4421 137.939 22.6282 138.407 22.6282V24.3229C137.606 24.1849 137.606 23.666 137.606 23.5084H136.666C136.663 23.7392 136.705 23.9683 136.791 24.1826C136.877 24.3968 137.005 24.5918 137.167 24.7562C137.329 24.9206 137.522 25.0512 137.735 25.1403C137.948 25.2294 138.177 25.2753 138.407 25.2753V25.9321H139.347V25.2753C139.816 25.2753 140.265 25.0891 140.597 24.7578C140.928 24.4264 141.114 23.977 141.114 23.5084C141.114 23.0398 140.928 22.5904 140.597 22.259C140.265 21.9276 139.816 21.7415 139.347 21.7415H139.334ZM137.593 20.8613C137.593 20.6774 137.593 20.2045 138.394 20.0468V21.6758C137.593 21.5379 137.593 21.0387 137.593 20.8613V20.8613ZM139.334 24.3229V22.6939C140.135 22.8318 140.135 23.3507 140.135 23.5084C140.135 23.666 140.135 24.1849 139.334 24.3229Z" fill="#F4D242"/>
<path d="M105.965 245.922H91.2226C91.2226 245.922 87.0048 193.933 88.5027 148.539H107.135L109.868 187.877C109.868 187.877 106.353 225.947 105.965 245.922Z" fill="#1B3151"/>
<path d="M102.556 245.955C100.9 222.722 105.637 174.359 105.689 173.88L106.458 173.958C106.412 174.444 101.675 222.729 103.324 245.902L102.556 245.955Z" fill="#23406D"/>
<path d="M105.558 254.783C105.603 255.374 105.538 255.969 105.368 256.537C104.651 257.955 80.5926 257.634 79.1735 257.568C77.9318 257.515 78.1157 253.548 83.9498 251.269C84.9004 250.901 85.8778 250.607 86.8734 250.389C92.6943 249.075 92.4972 245.929 92.4972 245.929L104.592 245.961C105.073 248.882 105.395 251.827 105.558 254.783V254.783Z" fill="url(#paint6_linear_20_410)"/>
<path d="M105.558 254.783C105.603 255.374 105.538 255.969 105.368 256.537C104.651 257.955 80.5926 257.634 79.1735 257.568C77.9318 257.515 78.1157 253.548 83.9498 251.269C85.3754 251.538 86.8997 252.648 87.5172 255.926C87.5369 255.926 100.046 256.064 105.558 254.783Z" fill="#9EB2EF"/>
<path d="M132.652 256.497C130.826 257.305 124.578 257.555 120.879 257.154C119.98 257.115 119.099 256.891 118.29 256.497C116.641 255.335 118.389 245.988 118.389 245.988H127.311C127.311 245.988 127.12 249.449 129.453 250.52C130.333 250.958 131.129 251.547 131.805 252.261L131.936 252.405C132.229 252.7 132.495 253.021 132.731 253.364C133.631 254.625 133.907 255.946 132.652 256.497Z" fill="url(#paint7_linear_20_410)"/>
<path d="M132.652 256.497C130.826 257.305 124.578 257.555 120.879 257.154C120.491 252.556 124.276 250.31 127.403 250.31C129.072 250.362 130.654 251.07 131.805 252.28L131.936 252.425C132.229 252.72 132.495 253.041 132.731 253.384C133.631 254.625 133.907 255.946 132.652 256.497Z" fill="#9EB2EF"/>
<path d="M102.93 150.41L115.669 245.922H129.466L126.536 163.094C127.243 158.278 127.546 153.412 127.442 148.545L102.93 150.41Z" fill="#23406D"/>
<path d="M126.03 245.922H125.268C126.174 219.228 121.562 163.882 121.516 163.331C122.285 154.91 121.083 150.417 121.076 150.378L121.825 150.167C121.871 150.351 123.073 154.824 122.292 163.304C122.324 163.817 126.936 219.202 126.03 245.922Z" fill="#38659B"/>
<path d="M84.5936 127.211C84.5936 127.211 81.808 134.968 74.8242 130.896C67.8405 126.823 75.9083 108.872 75.9083 108.872L84.5936 127.211Z" fill="url(#paint8_linear_20_410)"/>
<path d="M78.8975 105.042C78.8975 105.042 78.2406 102.763 81.5255 102.087C84.8104 101.41 86.2295 103.492 87.1033 105.482L78.8975 105.042Z" fill="#FEB19E"/>
<path d="M127.981 120.465C125.465 126.718 125.642 128.038 125.642 128.038L127.442 148.538C127.442 148.538 98.0224 158.437 88.5027 148.538L87.5764 131.999L87.1033 123.578L87.0048 123.125L83.2994 105.272L87.1033 105.476C86.4463 103.978 85.4674 102.408 83.6147 102.027C84.8104 99.0322 87.5566 92.8316 90.8941 90.4407C95.3419 87.1959 104.507 83.268 117.903 87.0908C131.299 90.9136 130.484 114.218 127.981 120.465Z" fill="url(#paint9_linear_20_410)"/>
<path d="M125.642 128.045C125.642 128.045 125.241 138.981 115.281 141.95C105.322 144.919 97.3654 133.03 95.6836 132.098C94.2842 131.316 89.2582 131.828 87.5763 132.032L87.1033 123.611L87.0048 123.158L95.4076 121.588L108.107 133.576L125.642 128.045Z" fill="#3150BC"/>
<path d="M116.832 108.327C116.832 108.327 106.169 111.611 91.4789 108.327V122.843C91.4789 122.843 107.522 126.239 119.421 122.843L116.832 108.327Z" fill="#A9D0FF"/>
<path opacity="0.47" d="M119.421 99.295C119.421 99.295 112.128 127.5 99.9737 118.495L96.5771 122.271L113.488 132.781L119.421 99.295Z" fill="#3150BC"/>
<path d="M109.769 82.7819C109.769 82.7819 113.54 77.1593 111.937 70.7551C110.334 64.3509 106.747 65.8091 106.747 65.8091C106.747 65.8091 109.375 61.6381 104.901 59.6019C100.427 57.5657 97.2998 59.2144 100.46 60.377C100.46 60.377 93.936 60.377 90.1517 64.456C86.3675 68.535 83.6541 64.3575 82.5898 65.2311C81.5255 66.1047 83.5096 68.9225 85.2178 69.205C85.2178 69.205 81.1444 68.3314 80.8554 69.205C80.5663 70.0786 83.1614 75.6026 89.0808 75.5041C89.0808 75.5041 88.3253 79.0905 94.3367 82.7819C100.348 86.4734 109.769 82.7819 109.769 82.7819Z" fill="url(#paint10_linear_20_410)"/>
<path d="M111.937 87.8265C111.743 88.5106 111.506 89.1819 111.228 89.8364C110.104 92.5295 107.575 96.9698 103.101 96.799C101.577 96.7464 101.071 95.4853 100.913 93.8169C100.69 91.5771 101.091 88.6804 100.388 87.3404L104.737 81.7441L107.621 78.0264L108.107 77.4024C109.005 81.0049 110.289 84.4999 111.937 87.8265V87.8265Z" fill="#FEB19E"/>
<path d="M111.228 89.8364C110.104 92.5295 107.575 96.9698 103.101 96.799C101.577 96.7464 101.071 95.4853 100.913 93.8169C100.69 91.5771 101.091 88.6804 100.388 87.3404L104.737 81.7441L108.022 80.5947C108.022 80.5947 107.93 87.2156 102.707 91.3669C102.707 91.3669 105.381 92.3062 108.928 88.7395C109.697 87.9841 110.472 88.6541 111.228 89.8364Z" fill="#FF856A"/>
<path d="M110.157 83.7935L110.63 84.9693C110.63 84.9693 109.126 91.1764 103.889 93.0156L104.382 98.9272C104.382 98.9272 112.089 95.1963 113.494 87.104C113.488 87.104 111.957 83.6818 110.157 83.7935Z" fill="#23406D"/>
<path d="M101.794 92.7528L101.137 98.8549C101.137 98.8549 96.5377 95.5706 98.0684 88.7329C98.0684 88.7329 99.8094 89.8036 101.11 89.5605C101.13 89.5934 100.486 90.7626 101.794 92.7528Z" fill="#23406D"/>
<path d="M90.9007 75.0246C92.2738 80.8705 93.8966 86.48 98.732 89.1139C99.3404 89.444 100.025 89.608 100.717 89.5896C101.409 89.5711 102.084 89.3708 102.674 89.0088C105.019 87.5638 108.587 84.2467 108.107 77.6126C108.107 77.6126 109.71 78.1972 109.973 75.0246C110.236 71.8521 109.139 71.3069 108.002 71.5696C106.865 71.8324 106.931 76.0624 106.931 76.0624C106.931 76.0624 102.792 75.1691 101.872 69.6451C101.872 69.6451 100.125 72.1148 98.6203 72.7454C97.1158 73.376 97.6742 70.545 97.6742 70.545C97.6742 70.545 96.5902 74.5911 90.9007 75.0246Z" fill="#FEB19E"/>
<path d="M91.0354 104.428L78.4278 105.31C77.4082 105.382 76.6395 106.266 76.7109 107.285L78.0956 127.063C78.167 128.082 79.0514 128.851 80.071 128.779L92.6786 127.897C93.6982 127.826 94.4669 126.941 94.3955 125.922L93.0107 106.145C92.9394 105.125 92.055 104.357 91.0354 104.428Z" fill="#BAC1CC"/>
<path d="M90.0611 103.953L77.4852 104.845C76.4682 104.917 75.7022 105.8 75.7744 106.817L77.175 126.545C77.2472 127.561 78.1302 128.327 79.1472 128.255L91.7231 127.363C92.7402 127.29 93.5061 126.408 93.4339 125.391L92.0334 105.663C91.9612 104.646 91.0782 103.88 90.0611 103.953Z" fill="#E1E7F4"/>
<path d="M85.7236 116.077C85.8222 117.45 85.1389 118.626 84.1929 118.705C83.2468 118.784 82.4059 117.706 82.3073 116.333C82.2088 114.961 82.892 113.778 83.8381 113.706C84.7841 113.634 85.6251 114.698 85.7236 116.077Z" fill="#F8FBFF"/>
<path d="M97.7991 117.581C97.7991 117.581 96.9975 112.511 93.2002 112.327V114.363C93.2002 114.363 90.7299 114.948 89.2254 113.246C87.7209 111.545 86.1244 110.258 86.512 114.954C86.8996 119.651 90.1977 121.93 93.7389 121.687L95.0988 122.849L98.9816 118.908L97.7991 117.581Z" fill="#FEB19E"/>
<path d="M116.963 138.463C107.871 141.97 99.6123 132.15 95.8412 126.639C94.455 124.629 93.6797 123.197 93.6797 123.197L99.2379 117.897L102.352 120.426L111.937 128.242C111.937 128.242 113.6 120.616 115.025 111.69C116.451 102.763 118.783 97.1339 123.684 97.8565C133.388 99.2752 129.38 133.674 116.963 138.463Z" fill="url(#paint11_linear_20_410)"/>
<path d="M102.352 120.426C100.686 122.968 98.4585 125.094 95.8412 126.639C94.455 124.629 93.6797 123.198 93.6797 123.198L99.2379 117.897L102.352 120.426Z" fill="#9EB2EF"/>
</g>
<defs>
<linearGradient id="paint0_linear_20_410" x1="57.644" y1="119.178" x2="59.4499" y2="101.85" gradientUnits="userSpaceOnUse">
<stop stop-color="#3855E1"/>
<stop offset="1" stop-color="#5C7EF7"/>
</linearGradient>
<linearGradient id="paint1_linear_20_410" x1="71.4933" y1="147.79" x2="59.0794" y2="133.304" gradientUnits="userSpaceOnUse">
<stop stop-color="#3855E1"/>
<stop offset="1" stop-color="#5C7EF7"/>
</linearGradient>
<linearGradient id="paint2_linear_20_410" x1="154.937" y1="118.836" x2="153.125" y2="103.059" gradientUnits="userSpaceOnUse">
<stop stop-color="#3855E1"/>
<stop offset="1" stop-color="#5C7EF7"/>
</linearGradient>
<linearGradient id="paint3_linear_20_410" x1="141.285" y1="147.35" x2="152.576" y2="134.289" gradientUnits="userSpaceOnUse">
<stop stop-color="#3855E1"/>
<stop offset="1" stop-color="#5C7EF7"/>
</linearGradient>
<linearGradient id="paint4_linear_20_410" x1="66.2506" y1="81.5142" x2="76.5966" y2="74.2671" gradientUnits="userSpaceOnUse">
<stop stop-color="#3855E1"/>
<stop offset="1" stop-color="#5C7EF7"/>
</linearGradient>
<linearGradient id="paint5_linear_20_410" x1="145.825" y1="80.3713" x2="135.603" y2="74.1622" gradientUnits="userSpaceOnUse">
<stop stop-color="#3855E1"/>
<stop offset="1" stop-color="#5C7EF7"/>
</linearGradient>
<linearGradient id="paint6_linear_20_410" x1="95.0003" y1="259.282" x2="90.4425" y2="248.805" gradientUnits="userSpaceOnUse">
<stop stop-color="#3855E1"/>
<stop offset="1" stop-color="#5C7EF7"/>
</linearGradient>
<linearGradient id="paint7_linear_20_410" x1="117.581" y1="251.65" x2="133.5" y2="251.65" gradientUnits="userSpaceOnUse">
<stop stop-color="#3855E1"/>
<stop offset="1" stop-color="#5C7EF7"/>
</linearGradient>
<linearGradient id="paint8_linear_20_410" x1="82.9117" y1="123.145" x2="74.9562" y2="119.748" gradientUnits="userSpaceOnUse">
<stop stop-color="#3855E1"/>
<stop offset="1" stop-color="#5C7EF7"/>
</linearGradient>
<linearGradient id="paint9_linear_20_410" x1="109.927" y1="147.645" x2="104.759" y2="87.892" gradientUnits="userSpaceOnUse">
<stop stop-color="#3855E1"/>
<stop offset="1" stop-color="#5C7EF7"/>
</linearGradient>
<linearGradient id="paint10_linear_20_410" x1="98.5677" y1="78.9131" x2="94.8179" y2="63.9104" gradientUnits="userSpaceOnUse">
<stop stop-color="#1F3A65"/>
<stop offset="1" stop-color="#294A7A"/>
</linearGradient>
<linearGradient id="paint11_linear_20_410" x1="114.099" y1="147.284" x2="108.924" y2="87.5307" gradientUnits="userSpaceOnUse">
<stop stop-color="#3855E1"/>
<stop offset="1" stop-color="#5C7EF7"/>
</linearGradient>
<clipPath id="clip0_20_410">
<rect width="219" height="263" fill="white"/>
</clipPath>
</defs>
</svg>
