<svg width="297" height="205" viewBox="0 0 297 205" fill="none" xmlns="http://www.w3.org/2000/svg">
<g clip-path="url(#clip0_20_508)">
<g style="mix-blend-mode:multiply" opacity="0.54">
<path d="M148.24 204.44C230.111 204.44 296.48 199.784 296.48 194.04C296.48 188.296 230.111 183.64 148.24 183.64C66.3693 183.64 0 188.296 0 194.04C0 199.784 66.3693 204.44 148.24 204.44Z" fill="#F4E8DC"/>
</g>
<path d="M273.13 78.16C273.13 90.93 269.5 153.16 262.93 160.16C256.36 167.16 267.15 173.53 253.1 178.85C225.01 189.49 179.18 183.09 143.34 183.09C107.5 183.09 61.67 189.49 33.57 178.85C19.57 173.53 30.31 167.2 23.75 160.16C17.19 153.12 13.55 90.91 13.55 78.16C13.55 27.07 71.66 30.16 143.34 30.16C215.02 30.16 273.13 27.05 273.13 78.16V78.16Z" fill="#75AEC3"/>
<path d="M252.28 133.19C231.12 129.62 209.46 127.77 185.63 133.19C156.14 126.51 128.81 129.89 101.45 133.19C79.3583 128.544 56.5418 128.544 34.45 133.19C28.45 134.47 23.17 135.19 23.31 137.76L26.16 189.17C26.22 190.17 31.02 190.94 37.04 190.94H249.74C255.74 190.94 260.56 190.15 260.61 189.17L263.42 137.74C263.56 135.22 258.36 134.21 252.28 133.19Z" fill="#93C4D1"/>
<g style="mix-blend-mode:multiply" opacity="0.11">
<path d="M100.05 42.01C100.05 42.01 95.45 94.38 100.78 126.15C102.5 97.04 100.05 42.01 100.05 42.01Z" fill="#3771C8"/>
</g>
<g style="mix-blend-mode:multiply" opacity="0.11">
<path d="M185 45.32C185 45.32 184.32 111.95 184.9 123.87C188.2 102.49 187.3 56.06 185 45.32Z" fill="#3771C8"/>
</g>
<path d="M36.56 148.25C34.1019 148.665 31.7504 149.562 29.641 150.891C27.5316 152.219 25.7061 153.952 24.27 155.99L26.12 189.17C26.17 190.17 30.97 190.94 36.99 190.94H249.69C255.69 190.94 260.51 190.15 260.56 189.17L262.16 160.36L256.53 149.79C256.53 149.79 242.63 154.11 230.97 153.73C219.31 153.35 195.97 149.45 178.62 151.6C161.27 153.75 131.36 153.6 119.85 151.6C108.34 149.6 104.04 149.05 80.58 151.46C65.8362 152.826 50.9678 151.738 36.58 148.24L36.56 148.25Z" fill="#5091AA"/>
<path d="M39.24 181.01C38.69 162.53 41.39 125.32 29.84 113.45C18.29 101.58 4.51004 105.32 0.840035 119.24C-2.82996 133.16 6.94004 142.98 12.84 142.76C18.74 142.54 15.54 154.55 17.99 169.09C20.44 183.63 29.38 202.66 39.23 181.01H39.24Z" fill="#679EBA"/>
<path d="M249.37 181.01C249.92 162.53 247.23 125.32 258.77 113.45C270.31 101.58 284.1 105.32 287.77 119.24C291.44 133.16 281.67 142.98 275.77 142.76C269.87 142.54 273.07 154.55 270.62 169.09C268.17 183.63 259.22 202.66 249.37 181.01Z" fill="#679EBA"/>
<path d="M15.06 131.6C18.3019 131.6 20.93 128.972 20.93 125.73C20.93 122.488 18.3019 119.86 15.06 119.86C11.8181 119.86 9.19 122.488 9.19 125.73C9.19 128.972 11.8181 131.6 15.06 131.6Z" fill="#75AEC3"/>
<path d="M270.97 132.66C274.212 132.66 276.84 130.032 276.84 126.79C276.84 123.548 274.212 120.92 270.97 120.92C267.728 120.92 265.1 123.548 265.1 126.79C265.1 130.032 267.728 132.66 270.97 132.66Z" fill="#75AEC3"/>
<g style="mix-blend-mode:multiply" opacity="0.11">
<path d="M101.64 135.06C101.64 135.06 99.64 143.35 102.04 145.72C104.44 148.09 103.1 136.23 101.64 135.06Z" fill="#3771C8"/>
</g>
<g style="mix-blend-mode:multiply" opacity="0.11">
<path d="M185.1 135.42C183.56 140.42 183.54 146.26 186.23 146.3C188.92 146.34 185.1 135.42 185.1 135.42Z" fill="#3771C8"/>
</g>
<g style="mix-blend-mode:multiply" opacity="0.56">
<path d="M93.86 142.43C100.256 142.788 106.67 142.256 112.92 140.85C119.24 139.39 125.81 139.6 132.28 139.1C133.66 138.99 135.34 138.6 135.68 137.27C135.756 136.744 135.651 136.209 135.382 135.751C135.113 135.293 134.696 134.94 134.2 134.75C133.196 134.4 132.125 134.287 131.07 134.42L110.95 135.42C103.64 135.8 96.2 136.16 89.12 134.33C82.94 132.73 77.28 129.52 71.12 127.8C66.12 126.42 62.65 126.54 58.18 128.69C53.08 131.14 47.32 131.88 41.81 133.08C40.28 133.41 38.44 134.08 38.2 135.59C38.1355 136.225 38.2794 136.864 38.61 137.41C40.67 141.41 45.98 142.04 50.45 142.02C61.33 141.95 72.23 140.73 83.08 141.65C86.84 142 90.38 142.3 93.86 142.43Z" fill="#75AEC3"/>
</g>
<path d="M70.61 31.17C71.7303 30.7592 72.7243 30.0636 73.4941 29.1518C74.2639 28.24 74.7829 27.1434 75 25.97C76 21.74 75.75 19.54 73.45 18.36C72.63 11.01 61.91 9.86002 55.7 11.26C49.49 12.66 45.43 21.47 45.7 26.65C45.97 31.83 49.98 39.65 54.4 39.19C58.82 38.73 70.61 31.17 70.61 31.17Z" fill="#483737"/>
<path d="M85.92 76.74C87.0105 75.7211 87.9052 74.5111 88.56 73.17C89.56 71.02 91.56 64.9 92.56 64.17C94.2769 62.9558 96.1507 61.9802 98.13 61.27C99.72 60.78 101.95 62.42 103.31 62.69C104.67 62.96 104.92 63.57 103.79 64.16C102.66 64.75 100.68 64.07 100.11 63.81C99.9442 63.7342 99.7589 63.7117 99.5797 63.7458C99.4006 63.7798 99.2365 63.8686 99.11 64C99.9092 64.5754 100.608 65.2781 101.18 66.08C101.52 66.86 102.11 66.74 102.05 68.02C101.99 69.3 98.92 73.44 97.21 74.91C95.5 76.38 86.77 80.11 86.77 80.11C86.77 80.11 85.49 78.01 85.93 76.79L85.92 76.74Z" fill="#F4BD9F"/>
<path d="M86.37 76.26L87.81 80.26C87.81 80.26 76.6 87.56 71.6 89.71C68.3826 91.0422 64.9978 91.9271 61.54 92.34L61.26 76.61L63.6 82.24C67.2552 80.9793 70.9944 79.9768 74.79 79.24C78.7031 78.466 82.5693 77.471 86.37 76.26V76.26Z" fill="#95C4AC"/>
<path d="M123.01 126.74C123.806 129.598 124.398 132.508 124.78 135.45C124.87 137.97 125.55 139.72 128.12 139.38C130.69 139.04 130.3 137.58 134.18 137.88C138.06 138.18 147.65 132.26 148.57 129.21C149.49 126.16 146.57 127.7 144.11 128.21C141.65 128.72 132.05 130.21 130.5 128.27C128.95 126.33 129 126.72 127.98 124.27C126.96 121.82 122.49 123.98 122.98 126.71L123.01 126.74Z" fill="#D8996F"/>
<path d="M61.92 109.19C61.92 109.19 86.92 84.6 99.75 82.46C112.58 80.32 112.75 92.65 118.27 104.85C122.07 113.028 126.33 120.984 131.03 128.68C129.33 129.48 127.24 132.15 124.36 132.19C121.18 128.71 120.11 125.51 111.53 120.13C101.64 113.92 99.85 109.47 97.81 104.42C95.77 99.37 93.52 115.91 73.7 122.32C53.88 128.73 61.92 109.19 61.92 109.19Z" fill="#005E6D"/>
<path d="M129.71 130.54C131.233 133.108 132.57 135.781 133.71 138.54C134.45 140.95 135.56 142.46 137.95 141.47C140.34 140.48 139.6 139.17 143.42 138.47C147.24 137.77 154.97 129.56 155.07 126.37C155.17 123.18 152.76 125.43 150.51 126.59C148.26 127.75 139.39 131.65 137.39 130.18C135.39 128.71 135.53 129.06 133.91 126.96C132.29 124.86 128.54 128.1 129.74 130.6L129.71 130.54Z" fill="#F0A77E"/>
<path d="M64.63 102.48C64.63 102.48 47.56 104.1 40.32 107.24C33.08 110.38 35.41 125.24 39.06 130.31C45.06 138.64 63.26 138.05 74.99 132.42C88.79 125.8 96.32 109.33 98.42 110.13C101.06 111.13 102.81 115.87 107.07 118.13C113.12 121.36 120.91 120.46 132.01 134.41C134.607 133.544 136.839 131.833 138.35 129.55C138.35 129.55 126.12 117.04 117.84 105.74C109.56 94.44 111.56 90.16 102.04 88.15C92.52 86.14 67.4 111.52 64.62 102.53L64.63 102.48Z" fill="#006981"/>
<path d="M51.08 108.15C51.9316 110.301 53.3065 112.205 55.08 113.69C56.8925 115.097 59.0813 115.936 61.37 116.1C63.6438 116.281 65.9289 115.939 68.05 115.1C70.17 114.244 72.1307 113.037 73.85 111.53C77.43 108.597 81.0467 105.697 84.7 102.83C86.53 101.41 88.37 100 90.26 98.64C92.1401 97.2426 94.1186 95.9827 96.18 94.87C96.734 94.5893 97.3176 94.3713 97.92 94.22C98.2715 94.1339 98.6385 94.1339 98.99 94.22C99.3568 94.3037 99.6991 94.4715 99.99 94.71C100.845 95.5901 101.524 96.6253 101.99 97.76C102.945 99.8421 104.058 101.848 105.32 103.76C106.61 105.639 108.162 107.322 109.93 108.76C110.816 109.485 111.748 110.153 112.72 110.76L115.72 112.51C123.72 117.41 130.26 124.23 135.72 131.68C132.854 128.049 129.711 124.646 126.32 121.5C122.982 118.315 119.291 115.52 115.32 113.17L112.32 111.48C109.268 109.671 106.639 107.23 104.61 104.32C103.302 102.382 102.152 100.342 101.17 98.22C100.736 97.2184 100.134 96.2985 99.39 95.5C99.2273 95.3535 99.0285 95.2531 98.814 95.2092C98.5995 95.1652 98.3772 95.1793 98.17 95.25C97.652 95.3887 97.1494 95.5797 96.67 95.82C94.651 96.9041 92.7096 98.127 90.86 99.48C88.98 100.82 87.14 102.21 85.3 103.61C81.63 106.43 78.04 109.35 74.37 112.19C72.5647 113.704 70.5201 114.907 68.32 115.75C66.1026 116.578 63.7264 116.892 61.37 116.67C59.0172 116.421 56.7905 115.481 54.97 113.97C53.1834 112.406 51.8415 110.399 51.08 108.15Z" fill="#0B8396"/>
<path d="M55.67 45.08C55.67 45.08 60.79 48.29 63 50.72C66.7029 54.5957 69.7677 59.0342 72.08 63.87C74.08 68.33 73.23 74.32 69.45 79.87C65.67 85.42 63.92 99.31 66.45 104.11C57.28 111.03 40.5 110.66 36.65 109.92C38.2338 100.325 38.3214 90.5421 36.91 80.92C35.19 70.59 36.7 60.35 41.03 52.42C45.36 44.49 51.71 41.62 55.64 45.06L55.67 45.08Z" fill="#AED3C2"/>
<path d="M52.34 43.66C51.0598 43.5929 49.7842 43.8618 48.64 44.44C48.6282 44.9348 48.7716 45.4208 49.05 45.83C50.36 48.04 54.83 50.51 58.05 50.83C60.84 51.15 62.54 51.45 62.05 49.75C60.0329 48.0249 57.894 46.4474 55.65 45.03C54.7257 44.2245 53.5633 43.7434 52.34 43.66V43.66Z" fill="#FBF9F1"/>
<path d="M72.4 26.79C70.96 31.22 71.4 37.18 67.33 40.19C64.41 42.34 53.33 39.47 59.61 49.19C56.95 49.6 51.22 47.19 50.36 44.54C52.36 42.81 54.48 37.11 55.74 32.96C55.5094 33.0498 55.263 33.0916 55.0157 33.0829C54.7684 33.0742 54.5255 33.0151 54.3018 32.9094C54.0781 32.8036 53.8784 32.6534 53.7147 32.4678C53.5511 32.2822 53.427 32.0652 53.35 31.83C52.35 29.9 51.22 26.69 53.49 25.37C54.0169 25.0396 54.6302 24.8736 55.2518 24.8932C55.8734 24.9127 56.475 25.1171 56.98 25.48C57.64 25.91 57.72 27.14 58.49 27.29C65.52 28.74 68.92 24.19 71.61 21.74C72.4 20.99 72.6 25.68 72.4 26.79Z" fill="#F6D3B6"/>
<path d="M101.24 52.01L89.47 82.74L107.53 92.74L119.53 61.36L101.24 52.01Z" fill="#9BBCAA"/>
<path d="M101.7 53.11L89.92 83.82L107.53 92.74L119.53 61.38L101.7 53.11Z" fill="#C7C2D0"/>
<path d="M102.26 54.32L90.48 85.02L107.53 92.74L119.53 61.39L102.26 54.32Z" fill="#DEDBE3"/>
<path d="M102.06 57.26L90.28 87.92L107.53 92.74L119.53 61.42L102.06 57.26Z" fill="#FBF9F1"/>
<path d="M98.04 63.67C96.38 65.44 93.65 71.18 93.11 72.17C92.46 73.34 91.11 79.59 90.55 81.37C89.99 83.15 86.8 85.28 86.8 85.28C86.7481 85.5628 86.7578 85.8536 86.8284 86.1323C86.899 86.4111 87.0289 86.6713 87.2093 86.8953C87.3896 87.1193 87.6161 87.3018 87.8734 87.4303C88.1307 87.5588 88.4126 87.6303 88.7 87.64C94.26 84.07 94.94 82.45 96.51 79.27C97.6399 77.0043 99.3692 75.0917 101.51 73.74C102.75 72.9 104.66 72.74 105.69 71.64C106.72 70.54 103.91 71.17 102.47 71.64C101.03 72.11 98.99 73.49 99.99 71.64C101.99 68.1 105.09 70.32 105.74 68.71C106.15 67.71 104.59 67.65 104.59 67.65C104.59 67.65 105.31 67.65 105.32 66.65C105.32 66.41 102.71 66.16 101.08 65.92C99.45 65.68 98.65 66.78 96.84 68.82C97.29 68 98.13 66.49 98.48 66C98.9475 65.4188 99.5167 64.9275 100.16 64.55C100.949 64.1751 101.757 63.8413 102.58 63.55C103.43 63.19 103.58 62.73 103.29 62.55C101.747 62.2866 100.16 62.4994 98.74 63.16C98.4613 63.2569 98.2177 63.4344 98.04 63.67V63.67Z" fill="#F6D3B6"/>
<path d="M48.52 50.83C53.67 52.75 58.85 68.3 59.69 83.43C59.48 88.67 59.69 91.86 59.69 91.86C59.69 91.86 62.94 88.58 69.23 89.07C75.52 89.56 90.4 81.57 90.4 81.57L92.05 85.38C92.05 85.38 78.35 97.38 65.32 102.32C52.29 107.26 50.79 105.32 48.55 102.48C46.31 99.64 37.98 73.98 38.55 64.58C39.12 55.18 43.71 49.1 48.49 50.83H48.52Z" fill="#AED3C2"/>
<path d="M54.92 60.03C55.83 62.58 56.66 65.17 57.39 67.78C58.12 70.39 58.82 73.02 59.39 75.68C59.9696 78.346 60.3904 81.0441 60.65 83.76C61.028 86.5168 60.7958 89.3229 59.97 91.98V92.04H59.92C58.997 92.9322 58.1413 93.8915 57.36 94.91C56.5524 95.929 55.8801 97.0483 55.36 98.24C55.7302 96.9812 56.2864 95.7846 57.01 94.69C57.7165 93.5765 58.5304 92.5348 59.44 91.58L59.37 91.69C59.739 90.4269 59.9177 89.1158 59.9 87.8C59.9 87.14 59.9 86.47 59.85 85.8L59.68 83.8C59.4 81.13 58.95 78.47 58.43 75.8C57.43 70.58 56.16 65.31 54.92 60.03Z" fill="#95C4AC"/>
<path d="M59.69 91.86C60.0716 91.2486 60.5593 90.7101 61.13 90.27C61.6948 89.817 62.3254 89.4528 63 89.19C63.6773 88.9237 64.3932 88.7684 65.12 88.73C65.8443 88.6718 66.5724 88.7778 67.25 89.04C66.54 89.17 65.89 89.32 65.25 89.5C64.612 89.6705 63.9843 89.8775 63.37 90.12C62.76 90.36 62.15 90.62 61.56 90.92C60.97 91.22 60.35 91.55 59.69 91.86Z" fill="#95C4AC"/>
<path d="M56.86 11.27C56.6 10.61 56.07 -0.789984 47.86 0.040016C39.65 0.870016 38.2 2.63002 33.44 10.81C28.68 18.99 34.79 30.98 33.91 35.67C33.03 40.36 30.51 43.67 27.8 44.11C31.18 45.44 35.22 42.68 35.22 42.68C35.1279 43.1862 34.9191 43.664 34.6101 44.0754C34.3011 44.4868 33.9005 44.8205 33.44 45.05C36.37 45.66 39.9 43.67 42.16 40.23C44.42 36.79 45.29 32.38 44.76 26.78C44.23 21.18 46.42 12.78 49.88 12.29C50.8348 12.118 51.8164 12.1673 52.7491 12.4343C53.6818 12.7013 54.5409 13.1788 55.26 13.83L56.86 11.27Z" fill="#483737"/>
<path d="M57.7 10.63C56.92 9.63001 51.96 11.35 52.19 12.85C52.42 14.35 57.76 12.09 57.7 10.63Z" fill="#FFCC00"/>
<path d="M61.26 103.74L56.69 105.16C55.1332 105.681 53.4841 105.869 51.85 105.71C51.0109 105.557 50.2123 105.232 49.5036 104.758C48.7949 104.283 48.1912 103.668 47.73 102.95C46.8104 101.594 46.0992 100.107 45.62 98.54C44.67 95.46 43.9 92.39 43.1 89.3L41.92 84.74C41.57 83.18 41.19 81.64 40.92 80.08C41.46 81.58 41.92 83.08 42.44 84.61L43.86 89.17C44.35 90.68 44.78 92.17 45.24 93.74C45.7 95.31 46.08 96.82 46.59 98.29C47.0276 99.7726 47.6777 101.184 48.52 102.48C49.3018 103.757 50.5561 104.673 52.01 105.03C53.5425 105.253 55.1042 105.161 56.6 104.76C58.13 104.42 59.68 104.01 61.26 103.74Z" fill="#95C4AC"/>
<path d="M211.69 108.15C211.693 109.53 211.766 110.908 211.91 112.28C212.058 112.815 212.273 113.329 212.55 113.81C213.061 114.693 213.777 115.441 214.638 115.989C215.498 116.538 216.478 116.872 217.494 116.963C218.51 117.054 219.534 116.9 220.478 116.513C221.422 116.126 222.26 115.518 222.92 114.74C224.106 115.167 225.404 115.167 226.59 114.74C228.85 113.85 230.08 109.98 227.7 108.8C227.186 108.556 226.62 108.444 226.052 108.476C225.484 108.507 224.933 108.681 224.45 108.98C224.45 108.58 224.45 108.24 224.45 108.09H211.69V108.15ZM226.04 109.58C226.299 109.581 226.554 109.634 226.792 109.736C227.03 109.838 227.244 109.987 227.424 110.173C227.603 110.36 227.742 110.581 227.835 110.822C227.927 111.064 227.969 111.322 227.96 111.58C227.758 112.312 227.348 112.97 226.78 113.474C226.212 113.978 225.511 114.306 224.76 114.42C224.281 114.486 223.794 114.421 223.35 114.23C223.449 114.093 223.54 113.949 223.62 113.8C223.901 113.321 224.116 112.806 224.26 112.27C224.359 111.574 224.416 110.873 224.43 110.17C224.815 109.971 225.213 109.798 225.62 109.65C225.755 109.602 225.897 109.578 226.04 109.58V109.58Z" fill="#FBF9F1"/>
<path d="M195.09 109.79C195.486 109.79 195.872 109.907 196.201 110.127C196.53 110.347 196.786 110.659 196.938 111.025C197.089 111.39 197.129 111.792 197.052 112.18C196.974 112.568 196.784 112.925 196.504 113.204C196.225 113.484 195.868 113.674 195.48 113.752C195.092 113.829 194.69 113.789 194.325 113.638C193.959 113.486 193.647 113.23 193.427 112.901C193.207 112.572 193.09 112.186 193.09 111.79C193.09 111.26 193.301 110.751 193.676 110.376C194.051 110.001 194.56 109.79 195.09 109.79Z" fill="#A02C2C"/>
<path d="M192.97 116.5C194.069 116.5 194.96 115.609 194.96 114.51C194.96 113.411 194.069 112.52 192.97 112.52C191.871 112.52 190.98 113.411 190.98 114.51C190.98 115.609 191.871 116.5 192.97 116.5Z" fill="#C83737"/>
<path d="M196.85 112.65C197.246 112.65 197.632 112.767 197.961 112.987C198.29 113.207 198.546 113.519 198.698 113.885C198.849 114.25 198.889 114.652 198.812 115.04C198.734 115.428 198.544 115.785 198.264 116.064C197.985 116.344 197.628 116.534 197.24 116.612C196.852 116.689 196.45 116.649 196.085 116.498C195.719 116.346 195.407 116.09 195.187 115.761C194.967 115.432 194.85 115.046 194.85 114.65C194.85 114.12 195.061 113.611 195.436 113.236C195.811 112.861 196.32 112.65 196.85 112.65Z" fill="#C83737"/>
<path d="M203.92 114.79C203.92 115.61 202.29 116.37 199.64 116.79C196.798 117.2 193.912 117.2 191.07 116.79C188.42 116.38 186.78 115.62 186.78 114.79H203.92Z" fill="#FBF9F1"/>
<g style="mix-blend-mode:multiply" opacity="0.56">
<path d="M184.56 137.81C187.546 137.876 190.534 137.733 193.5 137.38C207.41 136.22 221.41 137.38 235.33 138.47C236.21 138.54 237.39 138.92 237.33 139.81L192.72 141.04C185.81 141.23 177.36 141.65 171.35 137.62C174.01 134.96 181.26 137.61 184.56 137.81Z" fill="#75AEC3"/>
</g>
<path d="M179.34 118.89L173.82 137.9H171.23L176.75 118.89H179.34Z" fill="#FFC866"/>
<path d="M230.89 118.89L236.41 137.9H239L233.48 118.89H230.89Z" fill="#FFC866"/>
<path d="M237.15 117.05H173.26V119.64H237.15V117.05Z" fill="#FFDA64"/>
</g>
<defs>
<clipPath id="clip0_20_508">
<rect width="296.47" height="204.44" fill="white"/>
</clipPath>
</defs>
</svg>
