<svg width="529" height="462" viewBox="0 0 529 462" fill="none" xmlns="http://www.w3.org/2000/svg">
<g clip-path="url(#clip0_14_180)">
<path d="M94.6491 320.183C75.9038 313.377 57.7046 303.714 44.8611 288.505C24.751 264.659 27.0779 234.721 49.8529 213.446C61.9034 202.186 77.2688 195.12 92.8421 189.665C111.132 183.275 131.139 179.535 148.142 169.962C166.692 159.572 182.148 144.207 194.94 127.335C211.449 105.489 220.939 77.9805 239.359 58.0567C254.633 41.5618 271.923 28.9894 293.333 21.5212C334.931 7.03945 382.184 12.0269 422.508 28.1191C471.516 47.6792 499.361 98.2549 507.005 148.506C512.205 183.106 508.669 220.031 493.369 251.787C448.234 345.471 332.318 358.835 240.022 350.497C191.17 346.107 143.514 337.21 97.171 321.027L94.6491 320.183Z" fill="#E8F1FF"/>
<path d="M457.36 0H266.112V416.386H274.9V414.438H457.36V434.517H466.148V0H457.36ZM457.36 406.528H274.9V369.278H457.36V406.528ZM457.36 361.368H274.9V324.105H457.36V361.368ZM457.36 316.196H274.9V278.946H457.36V316.196ZM457.36 271.036H274.9V233.773H457.36V271.036ZM457.36 225.863H274.9V188.6H457.36V225.863ZM457.36 180.691H274.9V143.441H457.36V180.691ZM457.36 135.531H274.9V98.268H457.36V135.531ZM457.36 90.3583H274.9V53.0954H457.36V90.3583ZM457.36 45.1986H274.9V7.93574H457.36V45.1986Z" fill="white"/>
<path d="M64.2823 74.253V0H59.0825V74.253C52.5187 74.9192 46.4619 78.0795 42.164 83.0808C37.8661 88.082 35.6557 94.542 35.9895 101.125C36.3233 107.709 39.1758 113.912 43.9576 118.454C48.7394 122.996 55.0848 125.528 61.6824 125.528C68.28 125.528 74.6255 122.996 79.4072 118.454C84.189 113.912 87.0416 107.709 87.3754 101.125C87.7092 94.542 85.4987 88.082 81.2008 83.0808C76.9029 78.0795 70.8462 74.9192 64.2823 74.253V74.253ZM61.6824 120.932C57.5039 120.93 53.42 119.689 49.9474 117.367C46.4747 115.045 43.7692 111.747 42.1731 107.888C40.577 104.03 40.1621 99.7855 40.9807 95.6916C41.7994 91.5976 43.8149 87.8382 46.7722 84.8889C49.7296 81.9395 53.496 79.9327 57.5951 79.1224C61.6941 78.312 65.9416 78.7344 69.8003 80.3362C73.659 81.938 76.9556 84.6472 79.273 88.1212C81.5905 91.5951 82.8247 95.6777 82.8196 99.8526C82.8092 105.442 80.5813 110.8 76.6241 114.751C72.6668 118.703 67.3031 120.925 61.7084 120.932H61.6824Z" fill="#BECFF4"/>
<path d="M132.802 74.253V0H127.603V74.253C121.042 74.9192 114.989 78.0781 110.693 83.0769C106.398 88.0758 104.189 94.5323 104.523 101.112C104.856 107.692 107.708 113.893 112.487 118.432C117.266 122.971 123.608 125.502 130.203 125.502C136.797 125.502 143.139 122.971 147.918 118.432C152.698 113.893 155.549 107.692 155.883 101.112C156.216 94.5323 154.007 88.0758 149.712 83.0769C145.416 78.0781 139.363 74.9192 132.802 74.253V74.253ZM130.203 120.932C126.025 120.927 121.942 119.684 118.471 117.361C115 115.038 112.297 111.738 110.703 107.879C109.108 104.021 108.695 99.7767 109.515 95.6836C110.336 91.5905 112.352 87.8323 115.31 84.8843C118.268 81.9362 122.034 79.9308 126.133 79.1214C130.232 78.3121 134.479 78.7353 138.336 80.3375C142.194 81.9397 145.49 84.6489 147.807 88.1225C150.124 91.5962 151.358 95.6783 151.353 99.8526C151.339 105.444 149.108 110.801 145.149 114.752C141.19 118.703 135.824 120.925 130.229 120.932H130.203Z" fill="#BECFF4"/>
<path d="M264.5 462C410.579 462 529 453.016 529 441.933C529 430.851 410.579 421.867 264.5 421.867C118.421 421.867 0 430.851 0 441.933C0 453.016 118.421 462 264.5 462Z" fill="#E8F1FF"/>
<path d="M360.735 364.018H352.935V365.914C342.783 371.005 335.438 385.825 335.438 403.32C335.438 420.815 342.783 435.647 352.935 440.739V442.635H360.735C374.67 442.635 385.967 425.036 385.967 403.32C385.967 381.604 374.67 364.018 360.735 364.018Z" fill="#2B4172"/>
<path d="M352.974 442.635C366.91 442.635 378.206 425.033 378.206 403.32C378.206 381.607 366.91 364.005 352.974 364.005C339.039 364.005 327.742 381.607 327.742 403.32C327.742 425.033 339.039 442.635 352.974 442.635Z" fill="#1E3356"/>
<path d="M350.933 364.018H343.134V365.914C332.994 371.005 325.649 385.825 325.649 403.32C325.649 420.815 332.994 435.647 343.134 440.739V442.635H350.933C364.869 442.635 376.178 425.036 376.178 403.32C376.178 381.604 364.804 364.018 350.933 364.018Z" fill="#2B4172"/>
<path d="M343.121 442.635C357.056 442.635 368.353 425.033 368.353 403.32C368.353 381.607 357.056 364.005 343.121 364.005C329.186 364.005 317.889 381.607 317.889 403.32C317.889 425.033 329.186 442.635 343.121 442.635Z" fill="#1E3356"/>
<path d="M342.068 405.917H224.423C223.733 405.917 223.072 405.644 222.584 405.157C222.097 404.669 221.823 404.009 221.823 403.32C221.823 402.631 222.097 401.97 222.584 401.483C223.072 400.996 223.733 400.722 224.423 400.722H342.068C342.757 400.722 343.419 400.996 343.906 401.483C344.394 401.97 344.668 402.631 344.668 403.32C344.668 404.009 344.394 404.669 343.906 405.157C343.419 405.644 342.757 405.917 342.068 405.917Z" fill="#2B4172"/>
<path d="M222.707 364.018H214.907V365.914C204.754 371.005 197.41 385.825 197.41 403.32C197.41 420.815 204.754 435.647 214.907 440.739V442.635H222.707C236.642 442.635 247.939 425.036 247.939 403.32C247.939 381.604 236.642 364.018 222.707 364.018Z" fill="#1E3356"/>
<path d="M214.946 442.635C228.881 442.635 240.178 425.033 240.178 403.32C240.178 381.607 228.881 364.005 214.946 364.005C201.011 364.005 189.714 381.607 189.714 403.32C189.714 425.033 201.011 442.635 214.946 442.635Z" fill="#2B4172"/>
<path d="M212.84 364.018H205.04V365.914C194.901 371.005 187.556 385.825 187.556 403.32C187.556 420.815 194.901 435.647 205.04 440.739V442.635H212.84C226.776 442.635 238.085 425.036 238.085 403.32C238.085 381.604 226.776 364.018 212.84 364.018Z" fill="#1E3356"/>
<path d="M205.092 442.635C219.028 442.635 230.324 425.033 230.324 403.32C230.324 381.607 219.028 364.005 205.092 364.005C191.157 364.005 179.861 381.607 179.861 403.32C179.861 425.033 191.157 442.635 205.092 442.635Z" fill="#2B4172"/>
<path d="M206.925 384.773H203.26V385.669C198.476 388.072 195.018 395.072 195.018 403.32C195.018 411.567 198.476 418.581 203.26 420.984V421.88H206.925C213.503 421.88 218.833 413.567 218.833 403.32C218.833 393.072 213.503 384.773 206.925 384.773Z" fill="#1E3356"/>
<path d="M203.26 421.867C209.836 421.867 215.167 413.563 215.167 403.32C215.167 393.076 209.836 384.773 203.26 384.773C196.683 384.773 191.352 393.076 191.352 403.32C191.352 413.563 196.683 421.867 203.26 421.867Z" fill="#2B4172"/>
<path d="M433.896 403.047C430.719 400.115 426.783 398.131 422.534 397.319L419.831 391.189C418.683 388.642 416.572 386.654 413.959 385.66C411.347 384.667 408.447 384.75 405.895 385.89L401.15 388.02C398.601 389.166 396.611 391.276 395.617 393.886C394.623 396.496 394.705 399.394 395.847 401.943L398.602 408.073C396.688 411.241 395.569 414.825 395.343 418.519C395.116 422.212 395.789 425.906 397.303 429.283C398.538 432.035 400.303 434.517 402.498 436.587C404.693 438.658 407.275 440.276 410.096 441.349C412.917 442.422 415.922 442.93 418.94 442.843C421.957 442.756 424.928 442.076 427.682 440.842C430.437 439.608 432.921 437.844 434.993 435.651C437.065 433.458 438.684 430.878 439.759 428.06C440.833 425.241 441.341 422.239 441.254 419.224C441.167 416.209 440.487 413.241 439.252 410.489C437.992 407.67 436.169 405.138 433.896 403.047V403.047ZM401.839 403.826L400.123 399.93C399.496 398.529 399.45 396.937 399.996 395.503C400.542 394.069 401.635 392.91 403.035 392.28L407.78 390.15C409.184 389.526 410.778 389.481 412.215 390.026C413.651 390.571 414.814 391.661 415.45 393.059L417.153 396.865C411.359 397.156 405.889 399.624 401.839 403.774V403.826Z" fill="#2B4172"/>
<path d="M439.226 410.489C441.44 415.508 441.784 421.152 440.196 426.402C438.608 431.653 435.193 436.162 430.568 439.116C425.943 442.07 420.412 443.273 414.977 442.508C409.541 441.743 404.558 439.061 400.929 434.946C403.548 435.657 406.273 435.898 408.976 435.66C412.921 435.295 416.771 434.24 420.35 432.543C424.158 430.882 427.6 428.485 430.477 425.491C433.366 422.477 435.223 418.625 435.781 414.49C436.047 410.564 435.402 406.63 433.896 402.995C436.166 405.104 437.98 407.654 439.226 410.489Z" fill="#1E3356"/>
<path d="M491.796 408.879C489.904 404.447 486.805 400.636 482.852 397.878V390.384C482.849 387.278 481.617 384.3 479.425 382.099C477.234 379.897 474.26 378.65 471.152 378.629H465.329C462.221 378.65 459.247 379.897 457.056 382.099C454.864 384.3 453.632 387.278 453.629 390.384V397.891C449.666 400.66 446.568 404.495 444.695 408.95C442.822 413.405 442.25 418.299 443.046 423.066C443.841 427.832 445.971 432.277 449.189 435.884C452.408 439.491 456.582 442.114 461.231 443.449C465.879 444.784 470.811 444.777 475.455 443.428C480.099 442.079 484.266 439.443 487.474 435.826C490.681 432.209 492.798 427.759 493.579 422.99C494.36 418.221 493.773 413.328 491.887 408.879H491.796ZM458.829 395.059V390.384C458.829 388.661 459.514 387.01 460.733 385.792C461.952 384.574 463.605 383.89 465.329 383.89H471.139C472.863 383.89 474.516 384.574 475.735 385.792C476.954 387.01 477.639 388.661 477.639 390.384V395.033C471.625 392.66 464.934 392.66 458.92 395.033L458.829 395.059Z" fill="#2B4172"/>
<path d="M493.823 418.879C493.823 425.017 491.617 430.95 487.607 435.6C483.597 440.249 478.049 443.305 471.974 444.211C465.898 445.117 459.699 443.814 454.505 440.538C449.31 437.261 445.466 432.23 443.672 426.361C445.994 428.269 448.634 429.755 451.471 430.751C455.652 432.182 460.053 432.864 464.471 432.764C469.105 432.801 473.7 431.918 477.99 430.166C482.302 428.424 485.945 425.353 488.39 421.399C490.467 417.53 491.611 413.229 491.731 408.84C493.105 412.009 493.817 415.425 493.823 418.879V418.879Z" fill="#1E3356"/>
<path d="M50.1909 357.394C48.8 354.238 47.435 350.9 47.955 347.458C48.0365 346.488 48.3744 345.558 48.9339 344.761C49.4935 343.965 50.2548 343.331 51.1399 342.925C52.0125 342.681 52.9344 342.673 53.8114 342.901C54.6883 343.129 55.489 343.586 56.1317 344.224C57.3836 345.547 58.3601 347.105 59.0045 348.809C64.4643 361.03 67.5322 374.148 70.5741 387.189C70.977 388.864 71.367 390.539 71.64 392.241C71.809 393.319 72.667 396.67 71.978 397.605C70.3271 399.839 67.2852 392.241 66.7782 391.202C63.0604 384.084 59.3945 376.915 55.9237 369.707C53.9304 365.654 52.0195 361.55 50.1909 357.394Z" fill="#8E1E3E"/>
<path d="M89.6443 345.77C91.3212 341.873 93.2191 337.873 96.703 335.509C97.6387 334.775 98.7531 334.302 99.9318 334.14C101.111 333.978 102.311 334.132 103.411 334.587C104.355 335.174 105.126 336.002 105.642 336.986C106.159 337.97 106.403 339.075 106.349 340.185C106.205 342.399 105.622 344.562 104.633 346.549C98.2239 361.602 89.0333 375.266 79.8687 388.825C78.6857 390.566 77.5158 392.319 76.2158 394.02C75.3969 395.072 73.109 398.618 71.692 398.774C68.3122 399.164 72.602 390.124 73.083 388.773C76.3718 379.539 79.7257 370.317 83.3135 361.186C85.3501 356.009 87.4604 350.87 89.6443 345.77Z" fill="#8E1E3E"/>
<path d="M26.6359 363.784C23.451 361.03 20.1362 358.004 18.9662 353.978C18.5544 352.863 18.4433 351.659 18.644 350.487C18.8448 349.315 19.3504 348.217 20.1102 347.302C20.9555 346.58 21.9784 346.098 23.0732 345.904C24.1679 345.709 25.2947 345.811 26.3369 346.198C28.409 346.999 30.3005 348.204 31.9007 349.744C44.3282 360.394 54.5977 373.278 64.7763 386.111C66.0763 387.76 67.3762 389.409 68.5981 391.137C69.3521 392.241 72.043 395.488 71.77 396.891C71.12 400.216 63.7884 393.41 62.6704 392.553C54.8707 386.63 47.071 380.656 39.4274 374.486C35.1115 370.979 30.8477 367.412 26.6359 363.784Z" fill="#B42F51"/>
<path d="M66.7522 342.457C66.7522 338.249 66.7522 333.794 68.9881 330.223C69.5435 329.171 70.3677 328.286 71.377 327.656C72.3863 327.026 73.5446 326.675 74.7339 326.638C75.8337 326.787 76.8736 327.227 77.7465 327.912C78.6194 328.597 79.2936 329.502 79.6997 330.534C80.4771 332.608 80.835 334.815 80.7527 337.028C81.0386 353.38 78.1528 369.603 75.4099 385.721C75.0459 387.786 74.6819 389.864 74.1879 391.916C73.8629 393.215 73.226 397.384 71.991 398.099C69.0661 399.826 69.2871 389.825 69.1831 388.409C68.4032 378.629 67.7012 368.849 67.2462 359.043C66.9862 353.536 66.8216 348.008 66.7522 342.457Z" fill="#B42F51"/>
<path d="M104.646 365.031C107.376 362.68 110.339 360.277 113.901 359.745C114.899 359.533 115.934 359.587 116.904 359.901C117.874 360.216 118.743 360.78 119.426 361.537C119.934 362.343 120.218 363.27 120.247 364.222C120.277 365.174 120.052 366.117 119.595 366.953C118.661 368.608 117.406 370.061 115.903 371.226C105.335 380.435 93.1411 387.539 81.0256 394.605C79.4657 395.514 77.9058 396.423 76.2938 397.202C75.2669 397.709 72.173 399.592 71.094 399.189C68.3382 398.228 74.9939 392.851 75.9038 391.994C81.8836 386.097 87.9153 380.24 94.1031 374.538C97.5436 371.308 101.058 368.139 104.646 365.031Z" fill="#B42F51"/>
<path d="M95.065 434.4H50.0089L44.1462 393.137H100.928L95.065 434.4Z" fill="#2B4172"/>
<path d="M96.079 439.582H51.0229L45.1601 431.127H101.942L96.079 439.582Z" fill="#1E3356"/>
<path d="M246.327 231.513C246.327 231.513 237.383 316.053 222.928 339.665C213.191 355.575 175.402 384.864 151.782 402.281C141.486 409.879 133.881 415.269 132.451 416.217L132.334 416.295L132.205 416.386L120.765 401.774L138.899 384.058L194.017 330.21L205.898 224.344L246.327 231.513Z" fill="#BC7F64"/>
<path d="M191.651 321.755L205.066 221.941L247.12 231.448C247.12 231.448 242.921 298.779 228.31 335.353C228.31 335.444 205.95 337.236 191.651 321.755Z" fill="#8E1E3E"/>
<path d="M120.752 401.787L107.753 411.957C107.753 411.957 130.905 449.531 134.505 446.869C139.835 442.972 126.29 421.048 132.244 416.386L120.752 401.787Z" fill="#B42F51"/>
<path d="M129.254 424.049C129.081 424.049 128.916 424.117 128.794 424.239C128.672 424.361 128.604 424.526 128.604 424.698C128.604 424.87 128.672 425.036 128.794 425.157C128.916 425.279 129.081 425.348 129.254 425.348C129.426 425.348 129.591 425.279 129.713 425.157C129.835 425.036 129.904 424.87 129.904 424.698C129.904 424.526 129.835 424.361 129.713 424.239C129.591 424.117 129.426 424.049 129.254 424.049Z" fill="white"/>
<path d="M130.047 426.828C129.874 426.828 129.709 426.897 129.587 427.018C129.465 427.14 129.397 427.305 129.397 427.478C129.397 427.65 129.465 427.815 129.587 427.937C129.709 428.059 129.874 428.127 130.047 428.127C130.219 428.127 130.384 428.059 130.506 427.937C130.628 427.815 130.697 427.65 130.697 427.478C130.697 427.305 130.628 427.14 130.506 427.018C130.384 426.897 130.219 426.828 130.047 426.828Z" fill="white"/>
<path d="M130.84 429.413C130.667 429.413 130.502 429.481 130.38 429.603C130.258 429.725 130.19 429.89 130.19 430.062C130.19 430.234 130.258 430.4 130.38 430.521C130.502 430.643 130.667 430.712 130.84 430.712C131.012 430.712 131.177 430.643 131.299 430.521C131.421 430.4 131.49 430.234 131.49 430.062C131.49 429.89 131.421 429.725 131.299 429.603C131.177 429.481 131.012 429.413 130.84 429.413Z" fill="white"/>
<path d="M131.633 431.984C131.46 431.984 131.295 432.053 131.173 432.175C131.051 432.296 130.983 432.462 130.983 432.634C130.983 432.806 131.051 432.971 131.173 433.093C131.295 433.215 131.46 433.283 131.633 433.283C131.805 433.283 131.97 433.215 132.092 433.093C132.214 432.971 132.283 432.806 132.283 432.634C132.283 432.462 132.214 432.296 132.092 432.175C131.97 432.053 131.805 431.984 131.633 431.984Z" fill="white"/>
<path d="M151.769 402.281C141.473 409.879 133.868 415.269 132.438 416.217L132.321 416.295L132.191 416.386L120.752 401.774L138.886 384.058L151.769 402.281Z" fill="#FFD45B"/>
<path d="M299.989 427.049L282.036 431.92C281.841 431.192 278.864 420.529 273.717 405.671C263.655 376.629 245.352 331.496 223.344 312.806C202.805 295.376 167.914 255.658 170.046 228.526L213.165 230.084C213.165 230.084 261.523 282.751 293.151 399.488C295.525 408.294 297.805 417.481 299.989 427.049Z" fill="#E7AC8D"/>
<path d="M260.99 303.09C258.226 306.874 254.639 309.982 250.5 312.182C249.356 312.806 248.199 313.377 247.029 313.884C244.874 314.797 242.659 315.561 240.399 316.169C239.099 316.52 237.799 316.819 236.499 317.066C232.7 317.833 228.832 318.212 224.956 318.196C166.939 273.036 168.941 228.435 168.941 228.435L214.439 230.76C229.791 242.137 260.99 303.09 260.99 303.09Z" fill="#B42F51"/>
<path d="M213.997 250.658C210.011 245.055 205.885 239.557 201.622 234.163C200.075 232.202 197.345 234.968 198.879 236.903C213.662 255.715 226.83 275.74 238.241 296.765C241.292 302.402 244.221 308.113 247.029 313.897C248.199 313.39 249.356 312.819 250.5 312.195C240.084 290.695 227.873 270.109 213.997 250.658V250.658ZM200.998 251.956C196.578 245.956 192.002 240.077 187.27 234.319C185.684 232.383 182.954 235.15 184.527 237.059C201.082 257.283 215.791 278.947 228.479 301.792C231.252 306.831 233.938 311.927 236.538 317.079C237.838 316.832 239.138 316.533 240.438 316.183C229.136 293.682 215.919 272.194 200.933 251.956H200.998Z" fill="white"/>
<path d="M282.036 431.92L286.599 447.83C286.599 447.83 330.134 440.453 329.016 436.141C327.378 429.738 302.042 434.348 299.95 427.049L282.036 431.92Z" fill="#B42F51"/>
<path d="M306.033 431.439C305.861 431.439 305.696 431.507 305.574 431.629C305.452 431.751 305.383 431.916 305.383 432.088C305.383 432.261 305.452 432.426 305.574 432.548C305.696 432.669 305.861 432.738 306.033 432.738C306.206 432.738 306.371 432.669 306.493 432.548C306.615 432.426 306.683 432.261 306.683 432.088C306.683 431.916 306.615 431.751 306.493 431.629C306.371 431.507 306.206 431.439 306.033 431.439Z" fill="white"/>
<path d="M308.724 431.816C308.552 431.816 308.386 431.884 308.265 432.006C308.143 432.128 308.074 432.293 308.074 432.465C308.074 432.637 308.143 432.802 308.265 432.924C308.386 433.046 308.552 433.114 308.724 433.114C308.897 433.114 309.062 433.046 309.184 432.924C309.306 432.802 309.374 432.637 309.374 432.465C309.374 432.293 309.306 432.128 309.184 432.006C309.062 431.884 308.897 431.816 308.724 431.816Z" fill="white"/>
<path d="M311.025 432.114C310.853 432.114 310.687 432.183 310.565 432.304C310.444 432.426 310.375 432.591 310.375 432.764C310.375 432.936 310.444 433.101 310.565 433.223C310.687 433.345 310.853 433.413 311.025 433.413C311.197 433.413 311.363 433.345 311.485 433.223C311.607 433.101 311.675 432.936 311.675 432.764C311.675 432.591 311.607 432.426 311.485 432.304C311.363 432.183 311.197 432.114 311.025 432.114Z" fill="white"/>
<path d="M313.56 432.413C313.388 432.413 313.222 432.482 313.1 432.603C312.978 432.725 312.91 432.89 312.91 433.062C312.91 433.235 312.978 433.4 313.1 433.522C313.222 433.644 313.388 433.712 313.56 433.712C313.732 433.712 313.898 433.644 314.02 433.522C314.141 433.4 314.21 433.235 314.21 433.062C314.21 432.89 314.141 432.725 314.02 432.603C313.898 432.482 313.732 432.413 313.56 432.413Z" fill="white"/>
<path d="M299.989 427.049L282.036 431.92C281.841 431.192 278.864 420.529 273.717 405.671L293.099 399.488C295.508 408.294 297.805 417.481 299.989 427.049Z" fill="#FFD45B"/>
<path d="M192.34 55.9918C192.34 55.9918 185.034 47.7054 185.398 41.8477C185.762 35.9901 189.506 35.6654 189.506 35.6654C189.506 35.6654 195.798 16.7288 220.315 20.1836C244.832 23.6384 250.838 49.9653 237.981 59.5895L192.34 55.9918Z" fill="black"/>
<path d="M220.367 93.0338C219.759 90.8414 219.718 88.5307 220.248 86.3182C220.778 84.1057 221.861 82.0637 223.396 80.3834C225.996 77.5909 229.687 76.0713 232.677 73.6685C236.347 70.7002 238.84 66.5246 239.71 61.8883C240.017 60.0508 240.183 58.1923 240.204 56.3294C240.373 52.2122 240.529 47.991 239.242 44.0816C222.278 34.6003 205.443 35.5874 188.817 44.9648C191.989 52.0996 194.845 59.3643 197.384 66.7589C198.151 68.9928 198.892 71.2398 199.477 73.5257C200.904 80.001 201.696 86.5998 201.843 93.2286C201.843 93.2286 183.942 102.918 183.942 120.231C183.942 137.544 235.238 135.674 235.238 120.231C235.238 104.788 220.367 93.0338 220.367 93.0338Z" fill="#E7AC8D"/>
<path d="M218.248 80.1755C216.876 80.1808 215.514 79.9343 214.231 79.4481C214.171 79.4265 214.116 79.393 214.069 79.3498C214.022 79.3066 213.984 79.2544 213.957 79.1964C213.931 79.1383 213.916 79.0756 213.914 79.0118C213.912 78.948 213.922 78.8844 213.945 78.8247C213.994 78.7046 214.088 78.608 214.206 78.5548C214.325 78.5017 214.459 78.496 214.582 78.539C216.202 79.1263 217.94 79.3149 219.648 79.0888C221.357 78.8627 222.986 78.2286 224.397 77.2402C224.503 77.1684 224.632 77.1405 224.758 77.1623C224.884 77.1841 224.997 77.2539 225.073 77.3571C225.11 77.4099 225.137 77.4697 225.151 77.5329C225.166 77.5961 225.168 77.6616 225.157 77.7255C225.146 77.7894 225.123 77.8506 225.088 77.9055C225.054 77.9604 225.009 78.0079 224.956 78.0454C222.992 79.4265 220.65 80.1702 218.248 80.1755V80.1755Z" fill="#BC7F64"/>
<path d="M233.704 54.6279C233.704 55.9268 233.041 57.0437 232.235 57.0437C231.429 57.0437 230.766 55.9657 230.766 54.6279C230.766 53.2902 231.429 52.2122 232.235 52.2122C233.041 52.2122 233.704 53.2902 233.704 54.6279Z" fill="black"/>
<path d="M233.21 53.9527C233.21 54.4982 232.937 54.9398 232.612 54.9398C232.287 54.9398 232.001 54.4982 232.001 53.9527C232.001 53.4072 232.274 52.9656 232.612 52.9656C232.95 52.9656 233.21 53.4072 233.21 53.9527Z" fill="white"/>
<path d="M219.782 54.6279C219.782 55.9268 219.132 57.0437 218.313 57.0437C217.494 57.0437 216.844 55.9657 216.844 54.6279C216.844 53.2902 217.507 52.2122 218.313 52.2122C219.119 52.2122 219.782 53.2902 219.782 54.6279Z" fill="black"/>
<path d="M219.288 53.9527C219.288 54.4982 219.015 54.9398 218.69 54.9398C218.365 54.9398 218.079 54.4982 218.079 53.9527C218.079 53.4072 218.352 52.9656 218.69 52.9656C219.028 52.9656 219.288 53.4072 219.288 53.9527Z" fill="white"/>
<path d="M225.788 62.4467C225.692 62.4479 225.599 62.4199 225.52 62.3665C225.441 62.3131 225.38 62.2369 225.346 62.148C225.32 62.0893 225.307 62.026 225.306 61.962C225.305 61.8979 225.317 61.8344 225.342 61.7751C225.366 61.7158 225.402 61.662 225.447 61.6167C225.492 61.5715 225.546 61.5357 225.606 61.5116C225.949 61.3866 226.277 61.2209 226.581 61.018C226.815 60.855 226.977 60.6087 227.036 60.3297C227.054 60.2329 227.042 60.1329 227.003 60.0426C226.963 59.9523 226.898 59.8759 226.815 59.8231C226.686 59.8006 226.554 59.8006 226.425 59.8231H225.801C225.685 59.8042 225.58 59.7448 225.504 59.6556C225.428 59.5664 225.387 59.4532 225.387 59.3361C225.387 59.219 225.428 59.1058 225.504 59.0166C225.58 58.9273 225.685 58.868 225.801 58.849H226.425C226.673 58.8459 226.92 58.8899 227.153 58.9789C227.431 59.1164 227.658 59.3393 227.801 59.6151C227.944 59.8908 227.994 60.2049 227.946 60.5115C227.85 61.0371 227.551 61.5039 227.114 61.8103C226.747 62.0698 226.349 62.2835 225.931 62.4467C225.883 62.4535 225.835 62.4535 225.788 62.4467V62.4467Z" fill="#BC7F64"/>
<path d="M227.036 67.1226C226.464 68.2785 223.201 69.7202 220.705 68.4993C218.209 67.2784 217.416 63.7716 217.988 62.6287C218.56 61.4857 220.289 63.0833 222.785 64.3301C225.281 65.577 227.608 65.9666 227.036 67.1226Z" fill="white"/>
<path d="M220.406 51.0304C220.091 50.7566 219.736 50.5332 219.353 50.368C218.943 50.1863 218.501 50.0849 218.053 50.0693C217.614 50.0374 217.172 50.0903 216.753 50.2251C216.321 50.3685 215.91 50.5695 215.531 50.8226V50.8226C215.477 50.8559 215.418 50.8783 215.355 50.8885C215.293 50.8987 215.229 50.8966 215.167 50.8821C215.106 50.8676 215.047 50.8411 214.996 50.8042C214.945 50.7672 214.901 50.7205 214.868 50.6667C214.807 50.5624 214.785 50.4395 214.806 50.3204C214.828 50.2012 214.891 50.0937 214.985 50.0173C215.415 49.6671 215.892 49.3786 216.402 49.1601C217.484 48.6893 218.703 48.6383 219.821 49.0172C220.393 49.1904 220.93 49.463 221.407 49.8225C221.49 49.8829 221.56 49.9591 221.613 50.0467C221.667 50.1343 221.702 50.2316 221.718 50.3329C221.734 50.4343 221.729 50.5377 221.705 50.6374C221.68 50.737 221.637 50.8308 221.576 50.9135C221.515 50.9964 221.439 51.0665 221.351 51.1198C221.264 51.1732 221.166 51.2087 221.065 51.2244C220.963 51.2401 220.86 51.2356 220.76 51.2112C220.66 51.1869 220.567 51.1431 220.484 51.0823V51.0823L220.406 51.0304Z" fill="black"/>
<path d="M229.232 49.8873C229.645 49.5357 230.116 49.2588 230.623 49.069C231.123 48.8685 231.659 48.7756 232.196 48.7963C232.73 48.8207 233.253 48.9579 233.73 49.1989C234.171 49.4331 234.577 49.7258 234.939 50.0691C235.026 50.1628 235.074 50.2857 235.074 50.4133C235.074 50.5409 235.026 50.6639 234.939 50.7575C234.849 50.8361 234.734 50.8793 234.614 50.8793C234.495 50.8793 234.379 50.8361 234.289 50.7575V50.7575C233.985 50.5095 233.643 50.3121 233.275 50.173C232.937 50.039 232.572 49.9856 232.209 50.0172C231.851 50.0405 231.501 50.1378 231.182 50.3029C230.873 50.4646 230.592 50.6751 230.35 50.9263C230.28 51.0002 230.195 51.059 230.101 51.0992C230.008 51.1394 229.907 51.1601 229.804 51.1601C229.702 51.1601 229.601 51.1394 229.507 51.0992C229.414 51.059 229.329 51.0002 229.258 50.9263C229.186 50.8551 229.129 50.7701 229.09 50.6765C229.05 50.5828 229.03 50.4823 229.03 50.3808C229.03 50.2793 229.05 50.1789 229.09 50.0852C229.129 49.9916 229.186 49.9066 229.258 49.8353L229.232 49.8873Z" fill="black"/>
<path d="M198.19 59.5896C198.255 59.2259 202.584 56.3166 201.544 45.2247C202.372 46.1142 203.425 46.7636 204.592 47.1042C205.759 47.4449 206.996 47.4641 208.173 47.1599C207.633 46.88 207.184 46.451 206.879 45.9238C206.575 45.3967 206.429 44.7934 206.457 44.1857C206.457 44.1857 223.357 48.7964 240.256 44.7052L239.775 43.2895C239.775 43.2895 212.879 26.4049 187.985 44.8481L193.185 56.3166L198.19 59.5896Z" fill="black"/>
<path d="M196.565 68.2396C196.565 68.2396 199.165 76.8767 200.309 77.3962C201.453 77.9158 199.074 65.603 199.074 65.603L196.565 68.2396Z" fill="black"/>
<path d="M199.724 66.0056C197.839 68.889 193.406 69.3436 189.818 67.0057C186.23 64.6678 184.852 60.4337 186.737 57.5503C188.622 54.667 193.055 54.1994 196.643 56.5373C200.231 58.8751 201.609 63.1093 199.724 66.0056Z" fill="#E7AC8D"/>
<path d="M194.433 66.3823C194.184 66.3846 193.937 66.3405 193.705 66.2524C193.637 66.2348 193.574 66.203 193.519 66.159C193.464 66.1151 193.42 66.06 193.388 65.9974C193.357 65.9349 193.339 65.8664 193.336 65.7963C193.332 65.7263 193.344 65.6565 193.37 65.5914C193.396 65.5264 193.436 65.4676 193.487 65.419C193.537 65.3704 193.597 65.3332 193.664 65.3097C193.73 65.2862 193.8 65.2771 193.87 65.2829C193.94 65.2886 194.008 65.3092 194.069 65.3433C194.361 65.429 194.673 65.4185 194.959 65.3132C195.244 65.2079 195.488 65.0135 195.655 64.7588C196.037 64.1571 196.172 63.4313 196.032 62.7327C195.844 61.4899 195.222 60.3535 194.277 59.5246C193.31 58.6896 192.123 58.1488 190.858 57.966C190.795 57.9581 190.733 57.9375 190.678 57.9057C190.623 57.8738 190.574 57.8313 190.536 57.7805C190.497 57.7297 190.469 57.6717 190.453 57.6099C190.437 57.5481 190.433 57.4837 190.442 57.4205C190.45 57.3515 190.472 57.2849 190.507 57.225C190.542 57.1651 190.589 57.1132 190.645 57.0727C190.702 57.0323 190.766 57.0042 190.834 56.9903C190.902 56.9763 190.972 56.9769 191.04 56.9919C192.486 57.1999 193.841 57.8225 194.94 58.7843C196.058 59.7665 196.798 61.1078 197.033 62.5768C197.193 63.5221 196.998 64.4932 196.487 65.3043C196.251 65.6306 195.943 65.8978 195.587 66.0849C195.23 66.272 194.835 66.3738 194.433 66.3823Z" fill="#BC7F64"/>
<path d="M191.391 63.7846C191.299 63.7848 191.208 63.7577 191.131 63.7067C191.024 63.6351 190.948 63.5244 190.922 63.3981C190.895 63.2719 190.919 63.1402 190.988 63.0313C191.764 61.8292 192.863 60.8703 194.16 60.2648C194.639 60.0021 195.194 59.9104 195.733 60.0051C195.797 60.0186 195.858 60.0452 195.911 60.0831C195.965 60.1209 196.01 60.1693 196.044 60.2253C196.078 60.2812 196.1 60.3436 196.109 60.4084C196.118 60.4733 196.114 60.5393 196.097 60.6025C196.082 60.664 196.054 60.7219 196.017 60.7728C195.979 60.8238 195.932 60.8668 195.877 60.8994C195.823 60.932 195.763 60.9535 195.7 60.9627C195.637 60.972 195.573 60.9687 195.512 60.9532C195.183 60.9131 194.85 60.9815 194.563 61.148C193.438 61.6767 192.484 62.5089 191.807 63.5508C191.763 63.6217 191.702 63.6803 191.629 63.7212C191.556 63.7621 191.474 63.7839 191.391 63.7846V63.7846Z" fill="#BC7F64"/>
<path d="M225.034 43.5491C216.355 43.7224 207.771 45.3875 199.659 48.4716C199.139 48.6924 199.659 51.5238 199.659 51.9784C199.741 53.7047 200.183 55.3948 200.959 56.9398C203 60.9012 206.405 63.5378 210.838 63.5378H213.828C214.717 63.5446 215.598 63.3668 216.415 63.0158C217.232 62.6648 217.966 62.1482 218.573 61.4986L225.073 54.1993L231.637 61.4986C232.244 62.1482 232.979 62.6648 233.796 63.0158C234.612 63.3668 235.493 63.5446 236.382 63.5378H239.359C240.419 63.5714 241.468 63.3083 242.387 62.7781C243.306 62.248 244.058 61.472 244.559 60.5375C245.236 58.7006 245.567 56.7541 245.534 54.7968C245.625 53.8227 245.677 52.8356 245.703 51.8615C245.844 50.7359 245.844 49.5971 245.703 48.4716C245.703 48.4716 238.41 43.5491 225.034 43.5491Z" fill="#1E3356"/>
<path d="M228.647 43.5491C219.686 43.7189 210.815 45.3826 202.402 48.4716C201.856 48.6924 202.337 51.5238 202.402 51.9784C202.497 53.7122 202.967 55.4049 203.78 56.9398C204.691 58.8895 206.135 60.5428 207.944 61.7098C209.754 62.8769 211.856 63.5105 214.01 63.5378H217.039C217.952 63.5482 218.857 63.3727 219.699 63.0222C220.542 62.6716 221.304 62.1532 221.94 61.4986L228.725 54.1993L235.511 61.4986C236.155 62.1458 236.924 62.6556 237.771 62.9972C238.617 63.3388 239.525 63.505 240.438 63.4858H243.506C244.599 63.537 245.685 63.2835 246.642 62.7537C247.599 62.2239 248.39 61.4386 248.927 60.4856C249.627 58.6536 249.976 56.7059 249.954 54.7448C250.045 53.7707 250.097 52.7836 250.123 51.8095C250.264 50.684 250.264 49.5452 250.123 48.4196C250.123 48.4196 242.479 43.5491 228.647 43.5491Z" fill="#2B4172"/>
<path d="M232.196 45.1466C230.004 44.5214 227.701 44.384 225.45 44.744C225.356 44.7704 225.268 44.8151 225.191 44.8754C225.115 44.9357 225.051 45.0105 225.003 45.0955C224.955 45.1806 224.925 45.2742 224.913 45.3709C224.902 45.4677 224.91 45.5658 224.936 45.6596C224.963 45.7534 225.007 45.8411 225.068 45.9177C225.128 45.9942 225.203 46.0581 225.288 46.1058C225.373 46.1534 225.467 46.1839 225.564 46.1953C225.661 46.2068 225.759 46.1991 225.853 46.1727C227.844 45.8816 229.875 46.0234 231.806 46.5883C231.987 46.6122 232.171 46.5696 232.323 46.4684C232.475 46.3672 232.585 46.2142 232.633 46.038C232.681 45.8618 232.663 45.6743 232.582 45.5103C232.502 45.3463 232.365 45.2171 232.196 45.1466Z" fill="#1E3356"/>
<path d="M197.683 57.3164L202.558 55.2513L201.739 49.7573L192.743 55.0954C194.575 55.3247 196.296 56.0984 197.683 57.3164V57.3164Z" fill="#1E3356"/>
<path d="M201.843 93.2287C201.843 93.2287 210.24 104.918 220.367 93.0339C220.367 93.0339 235.03 97.4629 238.722 101.113C242.414 104.762 236.655 150.221 248.472 233.215C248.472 233.215 204.858 245.138 168.291 232.422C168.291 232.422 168.291 116.075 180.783 99.6838C187.751 94.8263 201.843 93.2287 201.843 93.2287Z" fill="#E7AC8D"/>
<path d="M201.843 93.2287C201.843 93.2287 203.858 124.686 214.426 124.686C224.995 124.686 220.367 93.0339 220.367 93.0339L225.788 94.8393C225.788 94.8393 224.605 134.726 240.321 137.103C240.321 137.103 246.093 218.928 251.267 232.799C251.267 232.799 214.296 251.268 165.015 232.799C165.015 232.799 167.29 162.274 172.516 137.206C172.516 137.206 200.634 140.077 196.565 94.073L201.843 93.2287Z" fill="#FFD45B"/>
<path d="M238.852 101.268C246.015 110.477 256.362 126.673 267.009 142.999L277.278 95.2029L291.253 98.6967C291.253 98.6967 289.706 158.572 272.326 164.3C257.428 169.209 240.022 134.947 240.022 134.947L237.747 129.024L238.852 101.268Z" fill="#E7AC8D"/>
<path d="M294.516 96.9563C294.23 99.0084 293.684 104.178 293.216 108.581C293.06 110.126 292.917 111.581 292.8 112.776C292.71 113.664 292.303 114.49 291.654 115.103C291.005 115.716 290.156 116.075 289.264 116.114C285.273 116.296 278.461 116.049 273.912 112.854C273.332 112.428 272.89 111.842 272.641 111.168C272.391 110.494 272.345 109.761 272.508 109.061L273.34 105.36L276.057 93.2936C276.057 93.2936 268.01 83.7214 267.425 76.0584C266.84 68.3954 271.624 67.2654 273.457 68.5643C273.457 68.5643 273.6 62.8365 278.656 61.2519C283.713 59.6674 300.925 62.4209 301.873 69.4345C302.822 76.448 295.036 93.0858 294.516 96.9563Z" fill="#B42F51"/>
<path d="M293.229 108.581C293.073 110.126 292.93 111.581 292.813 112.776C292.723 113.664 292.316 114.49 291.667 115.103C291.018 115.716 290.169 116.075 289.277 116.114C285.286 116.296 278.474 116.049 273.925 112.854C273.345 112.428 272.903 111.842 272.654 111.168C272.404 110.494 272.358 109.761 272.521 109.061L273.353 105.36C279.299 108.997 286.437 110.154 293.229 108.581Z" fill="#8E1E3E"/>
<path d="M276.512 109.918C276.463 109.76 276.356 109.625 276.213 109.542C275.619 109.275 275.049 108.957 274.51 108.594C274.43 108.558 274.343 108.54 274.256 108.54C274.169 108.54 274.082 108.558 274.003 108.594C273.846 108.638 273.711 108.74 273.626 108.879C273.54 109.034 273.516 109.215 273.561 109.386C273.608 109.549 273.715 109.688 273.86 109.775C274.394 110.137 274.959 110.45 275.55 110.711C275.704 110.796 275.885 110.82 276.057 110.776C276.216 110.728 276.354 110.627 276.447 110.49C276.498 110.405 276.53 110.31 276.542 110.211C276.553 110.113 276.543 110.013 276.512 109.918V109.918Z" fill="white"/>
<path d="M282.27 111.113H281.854H281.75H281.555C281.308 111.113 281.048 111.022 280.801 110.957C280.281 110.838 279.769 110.686 279.267 110.503C279.104 110.459 278.929 110.48 278.781 110.562C278.633 110.645 278.523 110.782 278.474 110.944C278.434 111.111 278.458 111.287 278.542 111.437C278.627 111.587 278.765 111.698 278.929 111.75C280.004 112.146 281.128 112.395 282.27 112.49C282.355 112.49 282.439 112.473 282.517 112.44C282.595 112.408 282.666 112.36 282.725 112.299C282.785 112.239 282.831 112.167 282.863 112.088C282.894 112.009 282.909 111.925 282.907 111.841C282.916 111.75 282.907 111.659 282.879 111.573C282.851 111.487 282.806 111.407 282.746 111.339C282.687 111.271 282.614 111.216 282.532 111.177C282.45 111.138 282.361 111.116 282.27 111.113V111.113Z" fill="white"/>
<path d="M289.836 111.542C288.728 111.678 287.609 111.704 286.495 111.62C286.411 111.618 286.327 111.633 286.249 111.665C286.171 111.696 286.1 111.743 286.041 111.802C285.981 111.862 285.934 111.933 285.903 112.011C285.872 112.089 285.856 112.172 285.858 112.256C285.861 112.425 285.929 112.587 286.047 112.707C286.166 112.828 286.326 112.899 286.495 112.906C287.608 112.997 288.728 112.971 289.836 112.828C290.004 112.82 290.164 112.756 290.291 112.646C290.409 112.519 290.475 112.352 290.473 112.178C290.395 111.802 290.122 111.425 289.836 111.542Z" fill="white"/>
<path d="M276.719 79.0715C276.655 79.0715 276.592 79.0587 276.532 79.0337C276.473 79.0088 276.42 78.9722 276.375 78.9262C276.33 78.8802 276.295 78.8256 276.271 78.7658C276.248 78.706 276.237 78.6421 276.238 78.5779C276.245 75.7246 275.452 72.9264 273.951 70.4993C273.883 70.3908 273.862 70.2601 273.891 70.1359C273.921 70.0116 273.998 69.9041 274.107 69.8369C274.215 69.7698 274.346 69.7485 274.47 69.7777C274.595 69.8069 274.702 69.8843 274.77 69.9928C276.374 72.569 277.22 75.5439 277.213 78.5779C277.213 78.7088 277.161 78.8344 277.069 78.9269C276.976 79.0195 276.85 79.0715 276.719 79.0715Z" fill="#8E1E3E"/>
<path d="M294.152 78.7469C293.642 78.7358 293.134 78.688 292.631 78.604L285.286 77.461C282.061 77.1645 278.924 76.2518 276.044 74.7725C275.989 74.7401 275.941 74.6972 275.903 74.6464C275.865 74.5956 275.837 74.5378 275.822 74.4763C275.806 74.4148 275.803 74.3508 275.812 74.2879C275.821 74.2251 275.842 74.1647 275.875 74.1101C275.907 74.0555 275.95 74.0079 276.001 73.9698C276.052 73.9318 276.109 73.9042 276.171 73.8885C276.233 73.8728 276.297 73.8694 276.36 73.8785C276.422 73.8875 276.483 73.9088 276.538 73.9413C279.311 75.3597 282.328 76.2411 285.429 76.5389L292.787 77.6818C293.647 77.9089 294.557 77.8589 295.387 77.539C296.427 76.9545 296.687 75.5128 296.83 74.0452C296.835 73.9808 296.852 73.918 296.882 73.8606C296.912 73.8033 296.953 73.7525 297.002 73.7112C297.052 73.67 297.11 73.6392 297.172 73.6207C297.233 73.6022 297.298 73.5964 297.363 73.6036C297.489 73.6167 297.606 73.678 297.688 73.7748C297.77 73.8716 297.812 73.9963 297.805 74.1231C297.636 75.8635 297.298 77.5779 295.855 78.3832C295.327 78.647 294.741 78.7722 294.152 78.7469V78.7469Z" fill="#8E1E3E"/>
<path d="M172.438 136.895L157.072 168.066L204.299 156.675L207.341 170.248C207.341 170.248 143.995 200.445 139.185 181.366C131.139 149.454 180.783 99.6707 180.783 99.6707L178.925 123.049L172.438 136.895Z" fill="#E7AC8D"/>
<path d="M210.955 171.287C208.979 171.923 204.092 173.69 199.919 175.183L195.954 176.638C195.116 176.944 194.196 176.938 193.363 176.62C192.529 176.303 191.838 175.696 191.417 174.911C189.519 171.391 186.776 165.157 187.673 159.676C187.807 158.97 188.144 158.319 188.643 157.803C189.142 157.286 189.78 156.926 190.481 156.766L194.186 155.909L206.236 153.104C206.236 153.104 211.371 141.7 218.014 137.843C224.657 133.985 227.777 137.843 227.4 140.012C227.4 140.012 232.599 137.648 236.265 141.544C239.931 145.441 244.897 162.091 238.982 165.988C233.067 169.884 214.673 170.066 210.955 171.287Z" fill="#B42F51"/>
<path d="M199.919 175.184L195.954 176.638C195.116 176.944 194.196 176.938 193.363 176.62C192.529 176.303 191.838 175.696 191.417 174.911C189.519 171.391 186.776 165.157 187.673 159.676C187.807 158.97 188.144 158.319 188.643 157.803C189.142 157.286 189.78 156.926 190.481 156.766L194.186 155.909C193.486 162.837 195.546 169.762 199.919 175.184V175.184Z" fill="#8E1E3E"/>
<path d="M191.443 160.702C191.568 160.592 191.647 160.439 191.664 160.273C191.64 159.622 191.675 158.97 191.768 158.325C191.775 158.241 191.765 158.156 191.738 158.075C191.711 157.995 191.668 157.921 191.612 157.857C191.504 157.731 191.35 157.651 191.183 157.637C191.097 157.629 191.009 157.639 190.927 157.666C190.844 157.693 190.768 157.736 190.702 157.793C190.576 157.907 190.498 158.065 190.481 158.234C190.377 158.874 190.338 159.522 190.364 160.169C190.361 160.345 190.421 160.515 190.533 160.65C190.591 160.712 190.662 160.762 190.74 160.795C190.818 160.829 190.903 160.847 190.988 160.847C191.073 160.847 191.158 160.829 191.236 160.795C191.314 160.762 191.385 160.712 191.443 160.65V160.702Z" fill="white"/>
<path d="M192.873 166.404C192.815 166.278 192.768 166.147 192.73 166.014C192.73 166.014 192.73 165.936 192.73 165.923C192.73 165.91 192.73 165.793 192.73 165.728C192.651 165.485 192.586 165.238 192.535 164.988C192.414 164.471 192.331 163.946 192.288 163.416C192.256 163.248 192.159 163.099 192.018 163.001C191.877 162.904 191.703 162.866 191.534 162.897C191.365 162.928 191.216 163.025 191.119 163.166C191.021 163.307 190.984 163.481 191.014 163.65C191.124 164.788 191.386 165.907 191.794 166.975C191.87 167.127 192.002 167.243 192.162 167.299C192.322 167.355 192.498 167.346 192.652 167.274C192.789 167.181 192.887 167.041 192.928 166.881C192.969 166.72 192.949 166.55 192.873 166.404V166.404Z" fill="white"/>
<path d="M195.811 173.313C195.202 172.382 194.692 171.389 194.29 170.352C194.254 170.276 194.203 170.207 194.14 170.151C194.077 170.094 194.003 170.051 193.924 170.023C193.844 169.995 193.759 169.984 193.675 169.989C193.59 169.994 193.508 170.016 193.432 170.053C193.278 170.127 193.158 170.258 193.1 170.418C193.042 170.578 193.049 170.755 193.12 170.911C193.522 171.948 194.032 172.941 194.641 173.872C194.723 174.025 194.856 174.145 195.018 174.21C195.139 174.25 195.269 174.254 195.393 174.221C195.516 174.188 195.627 174.12 195.712 174.024C195.796 173.928 195.851 173.81 195.868 173.684C195.886 173.557 195.866 173.428 195.811 173.313V173.313Z" fill="white"/>
<path d="M220.354 143.025C220.25 143.025 220.149 142.992 220.065 142.932C219.981 142.871 219.919 142.786 219.886 142.687C219.849 142.563 219.863 142.43 219.923 142.316C219.984 142.202 220.087 142.116 220.211 142.077C222.096 141.48 223.981 140.843 225.814 140.181C225.873 140.159 225.937 140.148 226.001 140.151C226.064 140.153 226.127 140.168 226.185 140.195C226.243 140.221 226.295 140.259 226.338 140.305C226.382 140.352 226.415 140.407 226.438 140.466C226.46 140.526 226.47 140.59 226.468 140.653C226.465 140.717 226.45 140.779 226.424 140.837C226.397 140.895 226.36 140.947 226.313 140.991C226.266 141.034 226.211 141.068 226.152 141.09C224.306 141.765 222.408 142.389 220.51 143.012L220.354 143.025Z" fill="#8E1E3E"/>
<path d="M240.217 134.414C240.09 134.411 239.97 134.359 239.881 134.269C239.791 134.18 239.739 134.06 239.736 133.933C239.736 128.894 239.502 123.803 239.164 118.763C239.157 118.634 239.2 118.508 239.286 118.411C239.371 118.314 239.49 118.254 239.619 118.244C239.746 118.245 239.867 118.292 239.963 118.375C240.058 118.459 240.121 118.573 240.139 118.698C240.477 123.751 240.672 128.868 240.711 133.92C240.711 134.049 240.661 134.173 240.571 134.265C240.481 134.357 240.359 134.41 240.23 134.414H240.217Z" fill="#BC7F64"/>
<path d="M173.088 136.219C173.006 136.216 172.926 136.194 172.854 136.154C172.741 136.091 172.658 135.987 172.621 135.863C172.585 135.739 172.598 135.606 172.659 135.492C172.848 135.179 173.07 134.887 173.322 134.622C175.753 131.875 177.808 128.818 179.432 125.53C179.488 125.415 179.589 125.327 179.711 125.285C179.833 125.244 179.966 125.252 180.082 125.309C180.197 125.366 180.285 125.466 180.327 125.588C180.368 125.71 180.359 125.843 180.303 125.959C178.653 129.331 176.559 132.467 174.076 135.284C173.863 135.505 173.676 135.749 173.517 136.011C173.469 136.079 173.404 136.134 173.329 136.17C173.254 136.207 173.171 136.224 173.088 136.219V136.219Z" fill="#BC7F64"/>
</g>
<defs>
<clipPath id="clip0_14_180">
<rect width="529" height="462" fill="white"/>
</clipPath>
</defs>
</svg>
