<svg width="249" height="35" viewBox="0 0 249 35" fill="none" xmlns="http://www.w3.org/2000/svg">
<g clip-path="url(#clip0_15_402)">
<path d="M19.0902 -0.000212544H0V28.0458H5.92273V33.9998H19.0902C21.3255 34.0227 23.5431 33.6 25.6148 32.7559C27.6865 31.9119 29.5712 30.6633 31.16 29.0824C32.7487 27.5016 34.0098 25.6197 34.8705 23.5458C35.7312 21.4719 36.1744 19.247 36.1744 16.9998C36.1744 14.7526 35.7312 12.5277 34.8705 10.4538C34.0098 8.37983 32.7487 6.49801 31.16 4.91714C29.5712 3.33626 27.6865 2.0877 25.6148 1.24366C23.5431 0.399619 21.3255 -0.0231547 19.0902 -0.000212544V-0.000212544ZM19.0902 30.6258H9.27895V28.0458H19.0902C20.5449 28.0643 21.9887 27.7922 23.338 27.2454C24.6873 26.6986 25.9151 25.888 26.9503 24.8604C27.9855 23.8329 28.8074 22.6089 29.3684 21.2595C29.9293 19.9102 30.2182 18.4623 30.2182 16.9998C30.2182 15.5373 29.9293 14.0894 29.3684 12.74C28.8074 11.3907 27.9855 10.1667 26.9503 9.13917C25.9151 8.11162 24.6873 7.30093 23.338 6.75413C21.9887 6.20733 20.5449 5.93529 19.0902 5.95382H5.92273V24.6718H3.35621V3.37374H19.0902C20.8832 3.35318 22.6625 3.69045 24.3249 4.366C25.9873 5.04155 27.4999 6.04197 28.7751 7.30931C30.0502 8.57664 31.0625 10.0857 31.7534 11.7491C32.4444 13.4125 32.8001 15.1972 32.8001 16.9998C32.8001 18.8024 32.4444 20.5871 31.7534 22.2505C31.0625 23.9139 30.0502 25.4229 28.7751 26.6903C27.4999 27.9576 25.9873 28.958 24.3249 29.6336C22.6625 30.3091 20.8832 30.6464 19.0902 30.6258ZM9.27895 24.6718V9.32777H19.0902C20.1022 9.31231 21.1071 9.49933 22.0465 9.87794C22.9859 10.2566 23.841 10.8192 24.5621 11.5332C25.2832 12.2471 25.8558 13.0981 26.2467 14.0366C26.6375 14.9751 26.8388 15.9824 26.8388 16.9998C26.8388 18.0172 26.6375 19.0245 26.2467 19.963C25.8558 20.9015 25.2832 21.7525 24.5621 22.4664C23.841 23.1804 22.9859 23.743 22.0465 24.1216C21.1071 24.5002 20.1022 24.6873 19.0902 24.6718H9.27895Z" fill="#1A6FEF"/>
<path d="M9.27895 28.046H5.92273V30.626H9.27895V28.046Z" fill="black"/>
<path d="M9.27895 22.0919H5.92273V24.672H9.27895V22.0919Z" fill="black"/>
<path d="M5.89982 28.046H0V33.977H5.89982V28.046Z" fill="black"/>
</g>
<path d="M48.186 28C47.826 28 47.52 27.892 47.268 27.676C47.016 27.442 46.89 27.154 46.89 26.812V10.288C46.89 9.946 47.007 9.667 47.241 9.451C47.493 9.217 47.808 9.1 48.186 9.1H54.504C56.034 9.1 57.384 9.388 58.554 9.964C59.724 10.54 60.633 11.35 61.281 12.394C61.947 13.42 62.28 14.599 62.28 15.931V21.115C62.28 22.447 61.947 23.635 61.281 24.679C60.633 25.723 59.715 26.542 58.527 27.136C57.357 27.712 56.016 28 54.504 28H48.186ZM54.234 25.786C55.962 25.786 57.312 25.381 58.284 24.571C59.256 23.743 59.742 22.6 59.742 21.142V15.904C59.742 14.464 59.256 13.339 58.284 12.529C57.312 11.719 55.962 11.314 54.234 11.314H49.428V25.786H54.234ZM69.5917 28.243C68.0437 28.243 66.7927 27.829 65.8387 27.001C64.9027 26.173 64.4347 25.084 64.4347 23.734C64.4347 22.366 64.9297 21.268 65.9197 20.44C66.9097 19.594 68.2147 19.171 69.8347 19.171C71.5627 19.171 72.9847 19.783 74.1007 21.007L74.2087 20.899C74.0107 20.683 73.7857 20.458 73.5337 20.224V19.09C73.5337 18.172 73.2457 17.461 72.6697 16.957C72.0937 16.453 71.2747 16.201 70.2127 16.201C68.3227 16.201 66.9727 16.948 66.1627 18.442C65.8747 18.298 65.6317 18.109 65.4337 17.875C65.2537 17.623 65.1637 17.371 65.1637 17.119C65.1637 16.633 65.4067 16.174 65.8927 15.742C66.3787 15.292 67.0177 14.932 67.8097 14.662C68.6197 14.392 69.4657 14.257 70.3477 14.257C72.0577 14.257 73.3987 14.68 74.3707 15.526C75.3607 16.372 75.8557 17.542 75.8557 19.036V26.434C75.8557 27.064 75.6757 27.523 75.3157 27.811C74.9557 28.099 74.3887 28.243 73.6147 28.243V26.974C73.9927 26.578 74.1997 26.344 74.2357 26.272L74.1277 26.164C72.9577 27.55 71.4457 28.243 69.5917 28.243ZM69.9967 26.38C71.1127 26.38 71.9857 26.146 72.6157 25.678C73.2637 25.21 73.5877 24.562 73.5877 23.734C73.5877 22.906 73.2727 22.249 72.6427 21.763C72.0127 21.277 71.1487 21.034 70.0507 21.034C69.0247 21.034 68.2147 21.277 67.6207 21.763C67.0447 22.231 66.7567 22.888 66.7567 23.734C66.7567 24.58 67.0357 25.237 67.5937 25.705C68.1697 26.155 68.9707 26.38 69.9967 26.38ZM81.2882 12.232C80.7842 12.232 80.3612 12.07 80.0192 11.746C79.6772 11.422 79.5062 11.017 79.5062 10.531C79.5062 10.045 79.6772 9.649 80.0192 9.343C80.3612 9.019 80.7842 8.857 81.2882 8.857C81.7742 8.857 82.1882 9.019 82.5302 9.343C82.8722 9.649 83.0432 10.045 83.0432 10.531C83.0432 11.017 82.8722 11.422 82.5302 11.746C82.1882 12.07 81.7742 12.232 81.2882 12.232ZM80.1002 15.985C80.1002 15.391 80.2892 14.959 80.6672 14.689C81.0632 14.401 81.6572 14.257 82.4492 14.257V26.515C82.4492 27.109 82.2512 27.55 81.8552 27.838C81.4772 28.108 80.8922 28.243 80.1002 28.243V15.985ZM90.7513 28.243C89.4373 28.243 88.4563 27.883 87.8083 27.163C87.1603 26.425 86.8363 25.462 86.8363 24.274V10.585C86.8363 9.991 87.0253 9.559 87.4033 9.289C87.7993 9.001 88.3933 8.857 89.1853 8.857V24.193C89.1853 24.895 89.3293 25.399 89.6173 25.705C89.9053 26.011 90.3823 26.164 91.0483 26.164C91.7143 26.164 92.3263 26.002 92.8843 25.678C93.1183 25.948 93.2353 26.263 93.2353 26.623C93.2353 27.055 93.0103 27.433 92.5603 27.757C92.1103 28.081 91.5073 28.243 90.7513 28.243ZM96.1749 33.616C95.0589 33.616 94.4739 32.968 94.4199 31.672C94.9599 31.744 95.3469 31.78 95.5809 31.78C96.3729 31.78 97.0029 31.546 97.4709 31.078C97.9569 30.61 98.4519 29.8 98.9559 28.648L99.4959 27.433L94.1769 14.446C94.3029 14.392 94.4649 14.347 94.6629 14.311C94.8789 14.275 95.0589 14.257 95.2029 14.257C95.5809 14.275 95.9229 14.383 96.2289 14.581C96.5349 14.761 96.7509 15.004 96.8769 15.31L100.495 24.544L100.117 25.624L100.279 25.705L104.383 15.31C104.509 14.986 104.716 14.734 105.004 14.554C105.31 14.356 105.652 14.257 106.03 14.257C106.192 14.257 106.372 14.275 106.57 14.311C106.786 14.347 106.948 14.392 107.056 14.446L100.981 29.323C100.387 30.763 99.7209 31.834 98.9829 32.536C98.2449 33.256 97.3089 33.616 96.1749 33.616ZM111.467 28C111.107 28 110.801 27.892 110.549 27.676C110.297 27.442 110.171 27.154 110.171 26.812V10.288C110.171 9.946 110.288 9.667 110.522 9.451C110.774 9.217 111.089 9.1 111.467 9.1H117.785C119.315 9.1 120.665 9.388 121.835 9.964C123.005 10.54 123.914 11.35 124.562 12.394C125.228 13.42 125.561 14.599 125.561 15.931V21.115C125.561 22.447 125.228 23.635 124.562 24.679C123.914 25.723 122.996 26.542 121.808 27.136C120.638 27.712 119.297 28 117.785 28H111.467ZM117.515 25.786C119.243 25.786 120.593 25.381 121.565 24.571C122.537 23.743 123.023 22.6 123.023 21.142V15.904C123.023 14.464 122.537 13.339 121.565 12.529C120.593 11.719 119.243 11.314 117.515 11.314H112.709V25.786H117.515ZM132.873 28.243C131.325 28.243 130.074 27.829 129.12 27.001C128.184 26.173 127.716 25.084 127.716 23.734C127.716 22.366 128.211 21.268 129.201 20.44C130.191 19.594 131.496 19.171 133.116 19.171C134.844 19.171 136.266 19.783 137.382 21.007L137.49 20.899C137.292 20.683 137.067 20.458 136.815 20.224V19.09C136.815 18.172 136.527 17.461 135.951 16.957C135.375 16.453 134.556 16.201 133.494 16.201C131.604 16.201 130.254 16.948 129.444 18.442C129.156 18.298 128.913 18.109 128.715 17.875C128.535 17.623 128.445 17.371 128.445 17.119C128.445 16.633 128.688 16.174 129.174 15.742C129.66 15.292 130.299 14.932 131.091 14.662C131.901 14.392 132.747 14.257 133.629 14.257C135.339 14.257 136.68 14.68 137.652 15.526C138.642 16.372 139.137 17.542 139.137 19.036V26.434C139.137 27.064 138.957 27.523 138.597 27.811C138.237 28.099 137.67 28.243 136.896 28.243V26.974C137.274 26.578 137.481 26.344 137.517 26.272L137.409 26.164C136.239 27.55 134.727 28.243 132.873 28.243ZM133.278 26.38C134.394 26.38 135.267 26.146 135.897 25.678C136.545 25.21 136.869 24.562 136.869 23.734C136.869 22.906 136.554 22.249 135.924 21.763C135.294 21.277 134.43 21.034 133.332 21.034C132.306 21.034 131.496 21.277 130.902 21.763C130.326 22.231 130.038 22.888 130.038 23.734C130.038 24.58 130.317 25.237 130.875 25.705C131.451 26.155 132.252 26.38 133.278 26.38ZM144.569 12.232C144.065 12.232 143.642 12.07 143.3 11.746C142.958 11.422 142.787 11.017 142.787 10.531C142.787 10.045 142.958 9.649 143.3 9.343C143.642 9.019 144.065 8.857 144.569 8.857C145.055 8.857 145.469 9.019 145.811 9.343C146.153 9.649 146.324 10.045 146.324 10.531C146.324 11.017 146.153 11.422 145.811 11.746C145.469 12.07 145.055 12.232 144.569 12.232ZM143.381 15.985C143.381 15.391 143.57 14.959 143.948 14.689C144.344 14.401 144.938 14.257 145.73 14.257V26.515C145.73 27.109 145.532 27.55 145.136 27.838C144.758 28.108 144.173 28.243 143.381 28.243V15.985ZM154.033 28.243C152.719 28.243 151.738 27.883 151.09 27.163C150.442 26.425 150.118 25.462 150.118 24.274V10.585C150.118 9.991 150.307 9.559 150.685 9.289C151.081 9.001 151.675 8.857 152.467 8.857V24.193C152.467 24.895 152.611 25.399 152.899 25.705C153.187 26.011 153.664 26.164 154.33 26.164C154.996 26.164 155.608 26.002 156.166 25.678C156.4 25.948 156.517 26.263 156.517 26.623C156.517 27.055 156.292 27.433 155.842 27.757C155.392 28.081 154.789 28.243 154.033 28.243ZM159.456 33.616C158.34 33.616 157.755 32.968 157.701 31.672C158.241 31.744 158.628 31.78 158.862 31.78C159.654 31.78 160.284 31.546 160.752 31.078C161.238 30.61 161.733 29.8 162.237 28.648L162.777 27.433L157.458 14.446C157.584 14.392 157.746 14.347 157.944 14.311C158.16 14.275 158.34 14.257 158.484 14.257C158.862 14.275 159.204 14.383 159.51 14.581C159.816 14.761 160.032 15.004 160.158 15.31L163.776 24.544L163.398 25.624L163.56 25.705L167.664 15.31C167.79 14.986 167.997 14.734 168.285 14.554C168.591 14.356 168.933 14.257 169.311 14.257C169.473 14.257 169.653 14.275 169.851 14.311C170.067 14.347 170.229 14.392 170.337 14.446L164.262 29.323C163.668 30.763 163.002 31.834 162.264 32.536C161.526 33.256 160.59 33.616 159.456 33.616ZM174.749 28C174.389 28 174.083 27.883 173.831 27.649C173.579 27.415 173.453 27.136 173.453 26.812V10.288C173.453 9.946 173.579 9.667 173.831 9.451C174.083 9.217 174.389 9.1 174.749 9.1H182.255C183.821 9.1 185.063 9.568 185.981 10.504C186.917 11.44 187.385 12.7 187.385 14.284C187.385 15.13 187.16 15.922 186.71 16.66C186.26 17.398 185.675 17.947 184.955 18.307V18.361C185.981 18.667 186.773 19.198 187.331 19.954C187.889 20.692 188.168 21.592 188.168 22.654C188.168 23.698 187.943 24.625 187.493 25.435C187.061 26.245 186.449 26.875 185.657 27.325C184.865 27.775 183.956 28 182.93 28H174.749ZM182.201 17.443C182.939 17.443 183.569 17.146 184.091 16.552C184.631 15.94 184.901 15.202 184.901 14.338C184.901 13.384 184.658 12.637 184.172 12.097C183.704 11.557 183.047 11.287 182.201 11.287H175.964V17.443H182.201ZM182.741 25.813C183.659 25.813 184.379 25.543 184.901 25.003C185.423 24.445 185.684 23.671 185.684 22.681C185.684 21.727 185.423 20.98 184.901 20.44C184.397 19.9 183.677 19.63 182.741 19.63H175.964V25.813H182.741ZM196.704 28.243C195.606 28.243 194.625 28.036 193.761 27.622C192.897 27.19 192.222 26.605 191.736 25.867C191.25 25.111 191.007 24.265 191.007 23.329V19.333C191.007 18.379 191.259 17.515 191.763 16.741C192.285 15.967 192.978 15.364 193.842 14.932C194.724 14.482 195.678 14.257 196.704 14.257C197.73 14.257 198.666 14.473 199.512 14.905C200.376 15.337 201.051 15.931 201.537 16.687C202.041 17.443 202.293 18.298 202.293 19.252V20.98C202.293 21.268 202.185 21.511 201.969 21.709C201.753 21.907 201.492 22.006 201.186 22.006H193.302V23.221C193.302 24.139 193.59 24.877 194.166 25.435C194.76 25.993 195.606 26.272 196.704 26.272C197.802 26.272 198.639 26.029 199.215 25.543C199.791 25.057 200.079 24.4 200.079 23.572C200.619 23.536 201.069 23.644 201.429 23.896C201.807 24.13 201.996 24.481 201.996 24.949C201.996 25.525 201.744 26.065 201.24 26.569C200.754 27.073 200.106 27.478 199.296 27.784C198.486 28.09 197.622 28.243 196.704 28.243ZM200.106 20.17V19.252C200.106 18.352 199.791 17.623 199.161 17.065C198.549 16.489 197.73 16.201 196.704 16.201C195.678 16.201 194.85 16.489 194.22 17.065C193.608 17.623 193.302 18.352 193.302 19.252V20.17H200.106ZM210.097 28.243C208.819 28.243 207.865 27.883 207.235 27.163C206.605 26.425 206.29 25.462 206.29 24.274V16.39H203.779C203.779 15.778 203.914 15.31 204.184 14.986C204.454 14.662 204.823 14.5 205.291 14.5H206.317V11.935C206.317 11.341 206.506 10.909 206.884 10.639C207.28 10.351 207.865 10.207 208.639 10.207V14.5H212.23C212.23 15.76 211.663 16.39 210.529 16.39H208.666V24.193C208.666 24.913 208.792 25.426 209.044 25.732C209.314 26.02 209.791 26.164 210.475 26.164C211.105 26.164 211.699 26.002 212.257 25.678C212.491 25.912 212.608 26.227 212.608 26.623C212.608 27.055 212.383 27.433 211.933 27.757C211.483 28.081 210.871 28.243 210.097 28.243ZM220.143 28.243C218.865 28.243 217.911 27.883 217.281 27.163C216.651 26.425 216.336 25.462 216.336 24.274V16.39H213.825C213.825 15.778 213.96 15.31 214.23 14.986C214.5 14.662 214.869 14.5 215.337 14.5H216.363V11.935C216.363 11.341 216.552 10.909 216.93 10.639C217.326 10.351 217.911 10.207 218.685 10.207V14.5H222.276C222.276 15.76 221.709 16.39 220.575 16.39H218.712V24.193C218.712 24.913 218.838 25.426 219.09 25.732C219.36 26.02 219.837 26.164 220.521 26.164C221.151 26.164 221.745 26.002 222.303 25.678C222.537 25.912 222.654 26.227 222.654 26.623C222.654 27.055 222.429 27.433 221.979 27.757C221.529 28.081 220.917 28.243 220.143 28.243ZM230.928 28.243C229.83 28.243 228.849 28.036 227.985 27.622C227.121 27.19 226.446 26.605 225.96 25.867C225.474 25.111 225.231 24.265 225.231 23.329V19.333C225.231 18.379 225.483 17.515 225.987 16.741C226.509 15.967 227.202 15.364 228.066 14.932C228.948 14.482 229.902 14.257 230.928 14.257C231.954 14.257 232.89 14.473 233.736 14.905C234.6 15.337 235.275 15.931 235.761 16.687C236.265 17.443 236.517 18.298 236.517 19.252V20.98C236.517 21.268 236.409 21.511 236.193 21.709C235.977 21.907 235.716 22.006 235.41 22.006H227.526V23.221C227.526 24.139 227.814 24.877 228.39 25.435C228.984 25.993 229.83 26.272 230.928 26.272C232.026 26.272 232.863 26.029 233.439 25.543C234.015 25.057 234.303 24.4 234.303 23.572C234.843 23.536 235.293 23.644 235.653 23.896C236.031 24.13 236.22 24.481 236.22 24.949C236.22 25.525 235.968 26.065 235.464 26.569C234.978 27.073 234.33 27.478 233.52 27.784C232.71 28.09 231.846 28.243 230.928 28.243ZM234.33 20.17V19.252C234.33 18.352 234.015 17.623 233.385 17.065C232.773 16.489 231.954 16.201 230.928 16.201C229.902 16.201 229.074 16.489 228.444 17.065C227.832 17.623 227.526 18.352 227.526 19.252V20.17H234.33ZM245.493 16.336C244.485 16.336 243.648 16.642 242.982 17.254C242.316 17.848 241.983 18.577 241.983 19.441V26.515C241.983 27.109 241.785 27.55 241.389 27.838C241.011 28.108 240.426 28.243 239.634 28.243V16.255C239.634 14.923 240.39 14.257 241.902 14.257V15.904C241.614 16.21 241.416 16.48 241.308 16.714L241.416 16.822C242.568 15.112 244.008 14.257 245.736 14.257C246.384 14.257 246.879 14.419 247.221 14.743C247.563 15.049 247.734 15.427 247.734 15.877C247.734 16.201 247.653 16.489 247.491 16.741C246.987 16.471 246.321 16.336 245.493 16.336Z" fill="white"/>
<defs>
<clipPath id="clip0_15_402">
<rect width="36" height="34" fill="white"/>
</clipPath>
</defs>
</svg>
