<svg width="297" height="255" viewBox="0 0 297 255" fill="none" xmlns="http://www.w3.org/2000/svg">
<g clip-path="url(#clip0_20_560)">
<path d="M268.42 175.507C261.366 172.322 260.29 164.662 257.377 160.675C254.465 156.688 247.41 154.23 247.41 154.23C247.41 154.23 254.157 149.021 264.893 150.223C269.944 150.797 273.731 153.068 276.831 155.532C275.235 150.918 276.831 148.253 274.099 143.865C270.872 138.73 264.586 135.965 261.058 127.443C258.979 122.254 258.979 116.464 261.058 111.275C261.058 111.275 262.134 114.347 266.403 117.412C270.237 120.15 281.06 120.571 287.473 128.839C284.133 82.1773 251.705 56.6726 229.252 43.356C209.965 31.9293 197.506 8.08752 145.397 11.5336C93.2881 14.9796 81.6838 48.4115 68.7702 73.7091C61.6219 87.7337 45.4615 90.8124 31.8331 100.423C41.9208 97.7846 48.3208 102.653 55.9234 104.183C65.0291 106.026 66.4587 99.6078 74.6291 99.6479C82.7995 99.688 85.8792 102.62 85.8792 102.62C85.8792 102.62 77.7022 101.391 75.0433 108.343C72.3844 115.295 69.1109 117.9 60.9338 116.798C52.7568 115.696 50.3852 116.297 46.0494 120.191C41.7137 124.084 31.6928 121.219 25.9608 122.655C22.5738 123.503 17.9441 129.52 14.7641 134.282C18.091 131.641 21.7497 129.447 25.6468 127.757C38.9346 121.827 55.9167 132.672 55.9167 132.672C55.9167 132.672 42.5555 135.738 34.7592 141.054C26.9629 146.37 21.4648 141.261 16.147 143.097C14.0143 143.836 11.9225 144.687 9.8806 145.648C9.8806 145.648 9.8806 145.689 9.8806 145.709C8.8117 162.238 15.0648 176.917 25.6803 189.492C51.6678 220.286 103.843 238.531 138.937 240.715C175.68 242.986 240.115 229.362 270.718 188.711C273.441 185.098 275.876 181.277 278 177.284C274.907 177.264 271.387 176.863 268.42 175.507Z" fill="#A8B2F4"/>
<path d="M123.94 97.3345C133.749 93.1925 138.342 81.8856 134.199 72.08C130.055 62.2743 118.745 57.6831 108.936 61.8251C99.1267 65.9672 94.5339 77.2741 98.6773 87.0797C102.821 96.8854 114.131 101.477 123.94 97.3345Z" fill="#7C84D5"/>
<path d="M249.294 67.2979C253.16 67.2979 256.295 64.1644 256.295 60.299C256.295 56.4336 253.16 53.3 249.294 53.3C245.427 53.3 242.292 56.4336 242.292 60.299C242.292 64.1644 245.427 67.2979 249.294 67.2979Z" fill="#7C84D5"/>
<path d="M270.685 188.711C240.081 229.348 175.627 242.986 138.903 240.715C103.79 238.531 51.6344 220.286 25.6469 189.492C35.5408 178.526 60.847 156.307 107.551 150.09C170.349 141.688 214.094 191.495 261.539 188.891C264.733 188.684 267.752 188.644 270.685 188.711Z" fill="#7C84D5"/>
<path d="M67.1669 59.2104C72.9991 41.7331 59.1969 49.8073 53.9794 60.9468C48.7618 72.0863 38.948 73.3151 38.948 79.5994C38.948 85.8838 61.3214 76.6543 67.1669 59.2104Z" stroke="#7C84D5" stroke-miterlimit="10"/>
<path d="M227.001 37.2452C227.001 37.2452 210.74 23.4544 204.146 19.0066C197.552 14.5588 200.465 8.5817 215.57 15.4805C230.675 22.3792 237.102 35.7025 235.104 38.5075C233.107 41.3124 227.001 37.2452 227.001 37.2452Z" stroke="#7C84D5" stroke-miterlimit="10"/>
<path d="M76.1122 78.5176C76.1135 78.7255 76.053 78.9291 75.9382 79.1026C75.8235 79.276 75.6598 79.4114 75.4678 79.4916C75.2759 79.5718 75.0645 79.5931 74.8604 79.5529C74.6563 79.5126 74.4688 79.4126 74.3217 79.2656C74.1746 79.1186 74.0746 78.9311 74.0344 78.7271C73.9941 78.5231 74.0154 78.3118 74.0957 78.1199C74.1759 77.928 74.3113 77.7643 74.4848 77.6496C74.6583 77.5349 74.862 77.4744 75.07 77.4757C75.3464 77.4757 75.6115 77.5855 75.807 77.7809C76.0024 77.9762 76.1122 78.2412 76.1122 78.5176V78.5176Z" fill="#5661AF"/>
<path d="M84.9106 80.501C84.9106 80.7084 84.8491 80.9111 84.7338 81.0835C84.6186 81.256 84.4548 81.3904 84.2631 81.4697C84.0715 81.5491 83.8606 81.5698 83.6571 81.5294C83.4536 81.4889 83.2668 81.3891 83.1201 81.2424C82.9734 81.0958 82.8735 80.909 82.833 80.7056C82.7926 80.5022 82.8133 80.2914 82.8927 80.0998C82.9721 79.9082 83.1065 79.7444 83.279 79.6292C83.4515 79.514 83.6543 79.4525 83.8617 79.4525C84.1394 79.4543 84.4051 79.5653 84.6014 79.7615C84.7978 79.9578 84.9088 80.2235 84.9106 80.501V80.501Z" fill="#5661AF"/>
<path d="M114.292 49.1928C114.292 49.4005 114.23 49.6035 114.115 49.776C113.999 49.9486 113.835 50.083 113.643 50.1621C113.451 50.2413 113.24 50.2617 113.036 50.2207C112.832 50.1797 112.645 50.0791 112.499 49.9318C112.353 49.7845 112.253 49.5971 112.214 49.3932C112.174 49.1894 112.196 48.9784 112.276 48.7869C112.356 48.5955 112.492 48.4322 112.665 48.3178C112.839 48.2034 113.042 48.143 113.25 48.1443C113.387 48.1443 113.523 48.1715 113.65 48.2243C113.777 48.277 113.892 48.3544 113.989 48.4518C114.086 48.5493 114.163 48.6649 114.215 48.7921C114.267 48.9193 114.293 49.0554 114.292 49.1928V49.1928Z" fill="#5661AF"/>
<path d="M251.398 142.069C251.398 142.278 251.336 142.482 251.219 142.655C251.102 142.828 250.936 142.962 250.743 143.04C250.549 143.119 250.336 143.137 250.132 143.094C249.928 143.051 249.741 142.948 249.596 142.798C249.45 142.648 249.353 142.458 249.317 142.252C249.28 142.047 249.306 141.835 249.39 141.644C249.475 141.453 249.614 141.292 249.791 141.181C249.968 141.07 250.174 141.014 250.383 141.02C250.655 141.029 250.913 141.143 251.103 141.339C251.292 141.535 251.398 141.796 251.398 142.069V142.069Z" fill="#5661AF"/>
<path d="M254.959 139.231C254.959 139.438 254.897 139.641 254.782 139.814C254.666 139.986 254.502 140.121 254.31 140.2C254.118 140.279 253.907 140.299 253.703 140.258C253.499 140.217 253.312 140.117 253.166 139.97C253.02 139.822 252.92 139.635 252.881 139.431C252.841 139.227 252.863 139.016 252.943 138.825C253.023 138.633 253.159 138.47 253.332 138.355C253.506 138.241 253.709 138.181 253.917 138.182C254.194 138.184 254.459 138.295 254.654 138.491C254.849 138.688 254.959 138.954 254.959 139.231V139.231Z" fill="#5661AF"/>
<path d="M81.1227 76.8146C82.0562 76.8146 82.8129 76.0581 82.8129 75.1249C82.8129 74.1918 82.0562 73.4353 81.1227 73.4353C80.1892 73.4353 79.4325 74.1918 79.4325 75.1249C79.4325 76.0581 80.1892 76.8146 81.1227 76.8146Z" fill="#5661AF"/>
<path d="M259.081 88.2413C260.014 88.2413 260.771 87.4848 260.771 86.5516C260.771 85.6185 260.014 84.862 259.081 84.862C258.147 84.862 257.391 85.6185 257.391 86.5516C257.391 87.4848 258.147 88.2413 259.081 88.2413Z" fill="#5661AF"/>
<path d="M79.4392 137.26C79.4392 137.692 79.3111 138.115 79.071 138.474C78.831 138.833 78.4898 139.113 78.0906 139.278C77.6914 139.443 77.2522 139.487 76.8284 139.402C76.4047 139.318 76.0154 139.11 75.7099 138.805C75.4044 138.499 75.1963 138.11 75.112 137.686C75.0278 137.263 75.071 136.824 75.2364 136.425C75.4017 136.026 75.6817 135.685 76.0409 135.445C76.4002 135.205 76.8226 135.077 77.2546 135.077C77.834 135.077 78.3897 135.307 78.7993 135.716C79.209 136.126 79.4392 136.681 79.4392 137.26V137.26Z" stroke="white" stroke-miterlimit="10"/>
<path d="M202.984 44.0772C202.984 44.5091 202.856 44.9313 202.616 45.2905C202.376 45.6496 202.034 45.9295 201.635 46.0948C201.236 46.2601 200.797 46.3033 200.373 46.2191C199.949 46.1348 199.56 45.9268 199.254 45.6214C198.949 45.316 198.741 44.9269 198.657 44.5032C198.572 44.0796 198.616 43.6405 198.781 43.2415C198.946 42.8424 199.226 42.5014 199.586 42.2614C199.945 42.0215 200.367 41.8934 200.799 41.8934C201.086 41.8925 201.371 41.9484 201.636 42.0578C201.902 42.1672 202.143 42.3281 202.346 42.531C202.549 42.734 202.71 42.9751 202.819 43.2404C202.929 43.5058 202.985 43.7902 202.984 44.0772V44.0772Z" stroke="white" stroke-miterlimit="10"/>
<path d="M96.1025 43.5739C99.6827 42.1634 101.441 38.1185 100.03 34.5395C98.6192 30.9605 94.573 29.2026 90.9927 30.6131C87.4125 32.0236 85.654 36.0685 87.065 39.6475C88.476 43.2266 92.5222 44.9845 96.1025 43.5739Z" stroke="white" stroke-miterlimit="10"/>
<path d="M287.781 110.385C295.085 107.406 298.591 99.0729 295.612 91.7713C292.632 84.4696 284.296 80.9648 276.992 83.9431C269.688 86.9213 266.182 95.2549 269.161 102.557C272.14 109.858 280.477 113.363 287.781 110.385Z" stroke="white" stroke-miterlimit="10"/>
<path d="M14.6172 180.884C22.5056 180.884 28.9003 174.491 28.9003 166.605C28.9003 158.719 22.5056 152.327 14.6172 152.327C6.72883 152.327 0.334045 158.719 0.334045 166.605C0.334045 174.491 6.72883 180.884 14.6172 180.884Z" stroke="white" stroke-miterlimit="10"/>
<path d="M122.883 21.324C122.883 21.324 119.87 22.8868 119.73 29.4716C119.59 36.0565 125.903 39.1085 129.878 39.0417L129.53 38.0133C129.53 38.0133 122.75 37.2653 120.993 31.5152C120.481 29.8637 120.404 28.1083 120.768 26.4182C121.131 24.728 121.924 23.16 123.07 21.865L122.883 21.324Z" fill="#3D2624"/>
<path d="M232.465 136.245C232.465 136.245 231.089 146.657 212.824 150.631C194.559 154.604 175.72 144.193 175.72 144.193L178.793 143.892C178.793 143.892 189.482 150.063 202.229 149.302C214.975 148.54 222.271 140.787 222.271 140.787L232.465 136.245Z" fill="#3D2624"/>
<path d="M236.968 85.9238C238.104 73.0546 220.307 59.8048 199.102 56.3921C177.898 52.9795 179.428 30.3799 179.428 30.3799L137.066 54.7426C137.066 54.7426 135.115 74.9446 120.993 86.3045C106.87 97.6644 104.445 124.531 111.072 135.13C117.699 145.729 129.43 146.483 147.702 145.348C165.973 144.213 174.424 145.161 194.747 146.864C215.069 148.567 229.539 153.182 241.872 130.682C254.204 108.183 236.968 85.9238 236.968 85.9238ZM235.264 84.882C235.264 84.882 233.087 78.5442 224.756 72.0128C220.034 68.2618 215.033 64.875 209.798 61.8817C235.739 70.0227 236.019 84.8753 236.019 84.8753L235.264 84.882Z" fill="#3D2624"/>
<path d="M122.469 74.4371C122.469 74.4371 116.456 79.8465 112.208 91.1998C107.959 102.553 98.9532 137.761 98.9532 137.761L113.49 146.824L127.52 108.423L122.469 74.4371Z" fill="#C56E5D"/>
<path d="M180.39 129.026C179.293 132.262 178.863 135.686 179.124 139.092C179.386 142.499 180.335 145.817 181.913 148.847L182.695 152.187L184.832 161.396C170.189 174.085 149.853 178.393 137.34 175.628C124.827 172.863 121.634 162.632 121.634 162.632L123.571 149.101L120.231 118.995C120.231 118.995 117.639 115.042 116.537 105.932C115.434 96.823 122.442 74.4037 122.442 74.4037L145.23 65.2944L161.871 63.8853L189.589 74.4371L193.17 83.4128C193.043 88.3815 189.389 101.151 185.567 113.225C183.764 118.955 181.913 124.525 180.39 129.026Z" fill="#F7DBC6"/>
<path d="M162.032 65.3945C159.426 70.1362 150.133 76.0799 146.379 74.7843C142.624 73.4887 145.664 66.7703 145.664 66.7703C145.697 65.8153 145.738 64.9404 145.764 64.1323C145.931 58.7896 145.898 56.519 145.898 56.519L162.032 45.8336C161.65 47.9503 161.44 50.0943 161.404 52.2449C161.319 56.6372 161.529 61.0303 162.032 65.3945V65.3945Z" fill="#C56E5D"/>
<path d="M162.032 45.8536C161.65 47.9703 161.44 50.1144 161.404 52.2649C159.553 55.0431 156.473 59.197 153.267 61.4743C150.06 63.7517 147.254 64.1857 145.764 64.1457C145.931 58.803 145.898 56.5323 145.898 56.5323L162.032 45.8536Z" fill="#AF5448"/>
<path d="M128.368 40.1971C128.368 40.1971 128.929 53.4002 138.229 59.3506C147.528 65.3011 160.542 52.8459 162.78 45.9605C165.018 39.0751 164.263 24.2091 164.263 24.2091C164.263 24.2091 151.991 16.0281 142.691 16.0281C133.392 16.0281 128.368 20.7029 128.368 20.7029V40.1971Z" fill="#C56E5D"/>
<path d="M138.97 16.2885C138.97 16.2885 138.69 21.1437 147.655 26.8136C156.62 32.4836 161.424 33.6456 161.424 33.6456L163.314 44.0705C163.314 44.0705 162.012 47.3429 161.651 48.5317C161.25 49.8273 161.41 53.9545 161.41 53.9545C161.41 53.9545 168.913 52.8392 171.551 45.8536C173.949 43.8718 175.903 41.407 177.284 38.62C178.665 35.8331 179.443 32.7864 179.568 29.6786C179.849 19.2671 174.458 16.0147 174.458 16.0147C174.458 16.0147 173.068 3.55956 159.299 1.4158C145.53 -0.727951 134.581 6.99892 134.581 6.99892C134.581 6.99892 127.9 6.07062 124.259 10.8056C120.618 15.5405 122.957 21.3107 122.957 21.3107C122.957 21.3107 119.79 24.3827 121.621 29.4048C122.164 30.8563 123.076 32.1418 124.265 33.1356C125.455 34.1294 126.883 34.7976 128.408 35.0748C128.408 35.0748 128.876 26.5198 131.381 22.2456C133.886 17.9715 138.97 16.2885 138.97 16.2885Z" fill="#3D2624"/>
<path d="M162.032 35.1683C162.032 35.1683 163.802 30.794 167.429 30.3332C171.057 29.8724 171.331 36.2836 168.819 40.5577C166.307 44.8319 162.807 43.9971 162.807 43.9971L162.032 35.1683Z" fill="#C56E5D"/>
<path d="M160.268 30.3198C160.268 30.3198 162.686 37.5992 161.29 43.3626C161.624 43.0118 161.926 42.6319 162.192 42.2273C163.361 40.5243 163.849 34.0663 164.37 31.8491L160.268 30.3198Z" fill="#3D2624"/>
<path d="M134.32 7.66006C136.52 4.76057 139.561 2.6097 143.028 1.50063C146.495 0.391567 150.219 0.378262 153.694 1.46254L154.623 1.40244C150.996 -0.145636 146.947 -0.404904 143.152 0.667811C137.08 2.51772 132.857 7.28607 132.857 7.28607L134.32 7.66006Z" fill="#3D2624"/>
<path d="M174.404 16.0281C175.494 16.3195 176.512 16.833 177.393 17.5364C178.275 18.2397 179.002 19.1177 179.528 20.1152C181.439 23.588 179.468 27.1142 179.468 27.1142L179.147 26.6868C179.588 25.6893 179.784 24.6011 179.719 23.5126C179.654 22.4242 179.33 21.367 178.773 20.4291C176.863 17.1567 174.404 17.3304 174.404 17.3304V16.0281Z" fill="#3D2624"/>
<path d="M129.53 32.8776C129.53 32.8776 129.918 31.996 132.664 32.0495C134.27 32.0633 135.824 32.6265 137.066 33.6456C137.066 33.6456 135.803 31.2815 133.298 30.9742C132.548 30.828 131.77 30.9357 131.088 31.2803C130.406 31.625 129.858 32.187 129.53 32.8776V32.8776Z" fill="#3D2624"/>
<path d="M138.97 16.2885C138.97 16.2885 138.536 21.0502 141.328 24.8902C144.121 28.7303 152.358 28.7303 152.358 28.7303L152.692 29.4716C152.692 29.4716 144.548 29.5384 141.262 26.6266C137.975 23.7149 137.607 18.8396 138.229 16.2885H138.97Z" fill="#3D2624"/>
<path d="M144.502 33.1648C144.502 33.1648 144.949 32.1496 148.123 32.2164C149.977 32.2305 151.771 32.8786 153.206 34.053C153.206 34.053 151.743 31.3215 148.857 30.9409C147.988 30.7791 147.089 30.9095 146.301 31.3117C145.513 31.714 144.88 32.3655 144.502 33.1648V33.1648Z" fill="#3D2624"/>
<path d="M137.066 45.6867C137.666 46.1169 138.348 46.4171 139.07 46.5683C139.939 46.8482 140.874 46.8482 141.743 46.5683C141.555 46.276 141.305 46.0286 141.01 45.8439C140.716 45.6593 140.384 45.5417 140.039 45.4997C139.044 45.4193 138.043 45.4823 137.066 45.6867V45.6867Z" fill="#913D37"/>
<path d="M137.066 33.6456C137.066 33.6456 137.948 34.5739 138.275 36.9848C138.47 38.4186 138.47 39.872 138.275 41.3057C138.275 41.3057 137.166 34.9947 137.066 33.6456Z" fill="#AF5448"/>
<path d="M129.878 36.3436C130.854 36.7332 131.879 36.9893 132.924 37.105C134.197 37.1801 135.474 37.063 136.712 36.7577C136.712 36.7577 135.937 34.6674 134.133 34.1798C131.294 33.4118 129.878 36.3436 129.878 36.3436Z" fill="#AF5448"/>
<path d="M144.502 36.6842C144.502 36.6842 144.782 34.5405 147.528 34.0663C150.274 33.5921 153.541 36.4772 153.541 36.4772C153.541 36.4772 148.129 39.0551 144.502 36.6842Z" fill="#AF5448"/>
<path d="M133.372 37.085C132.174 37.0364 130.992 36.7858 129.878 36.3437L129.53 36.5708C129.3 36.6856 129.051 36.7601 128.796 36.7911C129.218 36.9641 129.68 37.0195 130.132 36.9514C131.105 37.5084 132.204 37.8095 133.325 37.8263C134.512 37.9093 135.698 37.6472 136.739 37.0716V36.7577C135.633 36.9946 134.503 37.1044 133.372 37.085V37.085Z" fill="#3D2624"/>
<path d="M153.514 36.504C152.052 36.9255 150.545 37.172 149.024 37.2386C147.535 37.257 146.051 37.0521 144.622 36.6309L144.194 36.898C143.907 37.0322 143.6 37.1222 143.286 37.1651C143.821 37.3207 144.385 37.3572 144.936 37.272C146.201 37.8124 147.569 38.0721 148.944 38.0333C151.797 37.9465 152.672 37.272 153.293 36.8646C153.4 36.7845 153.514 36.504 153.514 36.504Z" fill="#3D2624"/>
<path d="M137.066 49.9007C137.831 50.1651 138.618 50.3618 139.418 50.4884C141.295 50.8624 145.764 49.9007 145.764 49.9007C144.327 49.6418 142.874 49.4745 141.415 49.3999C140.786 49.4399 140.179 49.6424 139.652 49.9876C139.203 49.6119 138.672 49.3486 138.102 49.2195C137.532 49.2715 136.97 49.3857 136.425 49.5601L137.066 49.9007Z" fill="#913D37"/>
<path d="M137.741 51.8642C138.69 52.439 139.771 52.7609 140.881 52.7992C142.204 52.7836 143.514 52.542 144.755 52.0846C144.326 52.6133 143.793 53.0496 143.191 53.3675C142.588 53.6854 141.927 53.8783 141.248 53.9345C138.863 54.2083 137.741 51.8642 137.741 51.8642Z" fill="#AF5448"/>
<path d="M114.913 170.859L122.93 153.729C122.93 153.729 128.274 159.332 144.515 159.9C160.756 160.468 182.708 152.227 182.708 152.227C182.708 152.227 188.326 166.719 188.326 172.108C188.326 177.498 156.26 198.822 156.26 198.822L137.233 197.406L114.913 170.859Z" fill="#743F3D"/>
<path d="M113.998 198.788C113.998 198.788 108.74 200.832 106.943 201.673C106.943 201.673 99.0869 202.475 95.9336 203.403C92.7804 204.331 91.9854 208.559 91.2104 213.127C90.4355 217.695 84.5298 223.812 82.7327 226.984C80.9356 230.156 81.7774 233.936 82.0313 234.718C82.2851 235.499 81.2429 238.164 82.5523 239.813C83.8617 241.463 84.6233 240.615 85.3515 240.201C86.0797 239.787 86.3068 238.344 86.3068 238.344C87.2854 238.169 88.2288 237.836 89.0993 237.356C89.8543 236.768 89.0993 236.761 90.9566 236.154C92.3531 235.772 93.67 235.143 94.8447 234.297C95.8935 233.529 101.813 223.258 105.587 219.965C109.362 216.673 116.156 215.531 116.156 215.531L113.998 198.788Z" fill="#C56E5D"/>
<path d="M216.899 217.247C204.073 220.48 176.235 222.75 151.276 224.226C125.569 225.749 102.928 226.43 102.928 226.43L99.1136 214.342L95.7733 203.623L170.503 188.811C170.503 188.811 168.465 173.344 184.746 165.009C184.746 165.009 233.213 165.396 244.951 179.034C256.689 192.671 243.969 210.435 216.899 217.247Z" fill="#743F3D"/>
<path d="M143.947 213C143.947 213 149.198 215.043 151.002 215.885C151.002 215.885 158.858 216.686 162.005 217.615C165.151 218.543 165.96 222.77 166.728 227.332C167.496 231.893 173.409 238.017 175.206 241.196C177.003 244.375 176.161 248.141 175.874 248.923C175.587 249.704 176.662 252.369 175.359 254.018C174.057 255.668 173.288 254.82 172.554 254.412C171.819 254.005 171.598 252.549 171.598 252.549C170.644 252.362 169.726 252.024 168.879 251.547C168.118 250.96 168.879 250.946 167.022 250.345C165.626 249.962 164.309 249.333 163.134 248.489C162.085 247.721 156.159 237.443 152.391 234.157C148.624 230.871 141.816 229.716 141.816 229.716L143.947 213Z" fill="#C56E5D"/>
<path d="M119.022 167.854C119.022 167.854 55.1284 167.854 44.9004 179.207C34.6724 190.56 40.3576 205.039 48.5948 209.868C56.832 214.696 143.159 233.997 143.159 233.997L147.702 207.597L134.968 203.623L141.783 194.494L119.022 167.854Z" fill="#743F3D"/>
<path d="M118.835 170.312C118.835 170.312 132.163 186.814 139.411 191.716C139.411 191.716 124.513 190.186 118.835 170.312Z" fill="#5E3030"/>
<path d="M67.3339 184.603C67.3339 184.603 78.4103 186.019 95.7331 189.712C113.056 193.405 134.968 203.623 134.968 203.623C134.968 203.623 112.488 188.263 94.8847 184.603C77.2813 180.944 67.3339 184.603 67.3339 184.603Z" fill="#5E3030"/>
<path d="M129.123 199.897C129.123 199.897 180.644 184.537 202.229 181.017C202.229 181.017 156.594 194.728 134.968 203.623L129.123 199.897Z" fill="#5E3030"/>
<path d="M178.793 168.956C178.793 168.956 153.821 181.284 145.39 193.773C145.41 193.773 171.738 180.282 178.793 168.956Z" fill="#5E3030"/>
<path d="M113.49 146.824C113.49 146.824 109.248 136.506 99.3006 136.412L59.7981 163.199C58.4846 162.556 57.085 162.106 55.6428 161.864C52.082 161.196 45.0474 161.289 43.2302 160.955C42.3484 160.795 42.3016 161.236 42.6757 161.817C42.0945 161.576 41.1726 162.217 40.4578 163.273C39.3421 164.929 36.5296 168.008 36.5296 169.737C36.5296 171.467 39.5893 173.197 41.4064 173.284C41.4064 173.284 35.2001 174.853 34.0578 177.084C32.9154 179.314 35.9617 178.987 36.9505 178.493C37.9392 177.998 44.2991 176.262 44.2991 176.262C44.2991 176.262 38.006 179.735 37.8457 182.132C37.6853 184.53 39.8498 183.127 41.8139 182.132C43.778 181.137 47.3588 179.321 47.3588 179.321C47.3588 179.321 42.2281 183.041 43.1367 184.697C44.0453 186.353 48.2674 182.573 51.6612 181.03C55.0549 179.488 57.6203 179.261 60.4796 178.145C62.9532 177.138 65.0797 175.433 66.599 173.237C73.6671 170.619 103.91 158.865 113.49 146.824ZM46.9513 169.317C44.1388 170.312 40.9388 169.317 40.4979 168.822C40.0569 168.328 43.2302 165.43 43.2302 163.199C43.2369 162.916 43.1962 162.634 43.11 162.364C43.6154 162.886 44.2135 163.31 44.8737 163.613C46.624 164.355 50.4252 164.762 51.4207 165.343C52.4161 165.924 49.7639 168.328 46.9513 169.317V169.317Z" fill="#C56E5D"/>
<path d="M243.595 112.871C243.595 112.871 247.189 123.857 244.731 132.038C242.272 140.219 232.853 142.055 232.853 142.055L234.363 140.159C234.363 140.159 243.642 138.596 244.163 125.874C244.624 114.581 243.595 112.871 243.595 112.871Z" fill="#3D2624"/>
<path d="M51.9685 165.216C54.0075 166.301 56.2672 166.906 58.5756 166.986C62.0495 166.986 57.8608 168.549 55.2353 167.767C52.6098 166.986 51.9685 165.216 51.9685 165.216Z" fill="#AF5448"/>
<path d="M62.9113 171.407C61.1134 171.591 59.3732 172.146 57.8007 173.036C54.8144 174.599 53.2579 178.573 52.4562 177.932C51.6545 177.291 53.8257 171.18 62.9113 171.407Z" fill="#AF5448"/>
<path d="M42.335 173.183C42.335 173.183 48.862 178.459 49.6436 178.526C50.4252 178.593 46.9513 173.464 42.335 173.183Z" fill="#AF5448"/>
<path d="M122.609 116.571C122.609 116.571 125.829 114.881 135.65 114.881C145.47 114.881 161.798 118.715 161.798 118.715C161.798 118.715 131.661 118.868 122.609 116.571Z" fill="#EFC9B6"/>
<path d="M181.92 149.028L182.701 152.367L168.786 156.715C168.786 156.715 175.867 139.618 175.733 126.528C175.6 113.439 179.869 97.1435 179.869 97.1435L185.581 113.405C183.77 119.135 181.92 124.705 180.397 129.206C179.303 132.443 178.874 135.866 179.136 139.272C179.398 142.678 180.344 145.996 181.92 149.028V149.028Z" fill="#EFC9B6"/>
<path d="M253.803 189.652C253.082 187.241 247.276 184.543 247.276 184.543C249.08 184.797 252.407 183.662 252.728 181.965C253.048 180.269 250.864 176.716 250.055 174.886C249.548 173.718 248.759 172.883 248.151 173.036C248.626 172.542 248.659 172.101 247.764 172.095C245.913 172.095 239.019 170.692 235.405 170.679C234.259 170.661 233.115 170.764 231.991 170.986L205.529 133.788C204.066 124.692 202.042 101.685 199.657 91.4869C196.537 78.1302 189.576 74.4371 189.576 74.4371C189.576 74.4371 180.951 79.5661 179.515 89.4968C178.078 99.4275 190.745 143.892 190.745 143.892C195.241 156.534 218.93 176.75 222.231 180.523C223.611 182.65 225.448 184.444 227.609 185.772C230.214 187.395 232.692 188.096 235.739 190.247C238.785 192.397 242.226 196.925 243.428 195.436C244.631 193.946 240.282 189.365 240.282 189.365C240.282 189.365 243.442 191.816 245.205 193.158C246.969 194.501 248.826 196.291 249.107 193.9C249.387 191.509 243.862 186.927 243.862 186.927C243.862 186.927 249.802 189.819 250.683 190.494C251.565 191.168 254.525 192.056 253.803 189.652ZM242.566 179.635C239.988 178.139 237.83 175.287 238.919 174.9C240.008 174.512 243.816 174.82 245.666 174.412C246.373 174.245 247.041 173.941 247.63 173.517C247.502 173.767 247.412 174.035 247.363 174.312C246.949 176.509 249.501 179.942 249 180.323C248.499 180.703 245.145 181.111 242.566 179.608V179.635Z" fill="#C56E5D"/>
<path d="M238.077 175.234C236.042 176.323 233.784 176.93 231.477 177.01C227.996 177.01 232.185 178.566 234.777 177.785C237.369 177.003 238.077 175.234 238.077 175.234Z" fill="#AF5448"/>
<path d="M224.863 179.902C226.661 180.091 228.4 180.648 229.973 181.538C232.953 183.094 234.516 187.068 235.318 186.433C236.12 185.799 233.948 179.688 224.863 179.902Z" fill="#AF5448"/>
<path d="M244.637 183.515C244.637 183.515 238.11 188.791 237.329 188.857C236.547 188.924 240.021 183.795 244.637 183.515Z" fill="#AF5448"/>
<path d="M142.932 69.4483C142.932 69.4483 139.832 75.352 144.756 76.9615C149.679 78.571 158.117 72.9545 162.412 68.8339C162.412 68.8339 156.734 77.9566 147.535 79.4125C138.335 80.8683 140.467 71.4585 142.932 69.4483Z" fill="#EFC9B6"/>
</g>
<defs>
<clipPath id="clip0_20_560">
<rect width="297" height="255" fill="white"/>
</clipPath>
</defs>
</svg>
