<svg width="398" height="355" viewBox="0 0 398 355" fill="none" xmlns="http://www.w3.org/2000/svg">
<g clip-path="url(#clip0_20_827)">
<path d="M10.57 223.17L0 316.99H5.29L16.45 223.17H10.57Z" fill="#EBEBEB"/>
<path d="M43.58 223.17L33.01 316.99H38.3L49.46 223.17H43.58Z" fill="#EBEBEB"/>
<path d="M20.67 292.66L18.07 316.99H21.38L26.54 292.66H20.67Z" fill="#F0F0F0"/>
<path d="M51.09 292.66L53.69 316.99H50.38L45.23 292.66H51.09Z" fill="#F0F0F0"/>
<path d="M36.27 301.83C39.3611 301.831 42.4185 301.188 45.2481 299.944C48.0776 298.7 50.6174 296.88 52.7061 294.602C54.7947 292.323 56.3866 289.635 57.3807 286.708C58.3747 283.781 58.749 280.679 58.48 277.6L49.88 179.32C49.3947 173.765 46.8445 168.593 42.7328 164.825C38.6211 161.058 33.2466 158.969 27.67 158.97C24.5798 158.971 21.5235 159.614 18.6951 160.859C15.8668 162.104 13.3282 163.924 11.2406 166.202C9.15301 168.481 7.562 171.168 6.56858 174.094C5.57517 177.021 5.20107 180.121 5.47002 183.2L14.07 281.48C14.553 287.035 17.1011 292.206 21.2111 295.974C25.3212 299.741 30.6945 301.831 36.27 301.83V301.83Z" fill="#E0E0E0"/>
<path d="M55.82 279.51C55.753 280.541 55.5991 281.565 55.36 282.57C54.9263 284.472 54.1975 286.294 53.2 287.97V287.97C53.03 288.28 52.84 288.58 52.64 288.88C52.0015 289.842 51.275 290.742 50.47 291.57L50 292.05C48.5282 293.486 46.8412 294.684 45 295.6C44.4119 295.888 43.8075 296.142 43.19 296.36C40.3975 297.381 37.4073 297.746 34.4511 297.426C31.4949 297.106 28.652 296.11 26.1428 294.514C23.6336 292.919 21.5254 290.767 19.9816 288.226C18.4377 285.685 17.4996 282.822 17.24 279.86L9.54998 183.48C9.54998 182.9 9.47998 182.33 9.47998 181.77C9.48218 178.209 10.4675 174.718 12.3272 171.681C14.187 168.645 16.849 166.18 20.02 164.56C20.4764 164.312 20.9472 164.092 21.43 163.9C23.4662 163.048 25.6353 162.557 27.84 162.45C28.17 162.45 28.49 162.45 28.84 162.45C29.6556 162.449 30.4706 162.499 31.28 162.6L32.07 162.73C33.2697 162.919 34.4462 163.234 35.58 163.67L36.12 163.87C39.4217 165.215 42.2887 167.444 44.4057 170.313C46.5228 173.182 47.808 176.578 48.12 180.13L55.81 276.51C55.8872 277.508 55.8905 278.511 55.82 279.51V279.51Z" fill="#FAFAFA"/>
<path d="M50.47 291.58L50 292.06C48.5282 293.496 46.8412 294.694 45 295.61C44.4119 295.898 43.8076 296.152 43.19 296.37L20 164.57C20.4564 164.322 20.9272 164.102 21.41 163.91C23.4462 163.058 25.6153 162.567 27.82 162.46L50.47 291.58Z" fill="white"/>
<path d="M55.82 279.51C55.753 280.541 55.5991 281.565 55.36 282.57C54.9264 284.472 54.1975 286.294 53.2 287.97L31.26 162.58L32.05 162.71C33.2498 162.899 34.4262 163.214 35.56 163.65L55.82 279.51Z" fill="white"/>
<path d="M361.75 180.45L359.84 178.87C350.33 171.05 348.24 161.56 348.06 160.64C347.864 160.033 347.811 159.388 347.905 158.757C347.998 158.126 348.236 157.524 348.6 157C348.901 156.609 349.289 156.293 349.734 156.078C350.178 155.863 350.666 155.754 351.16 155.76C351.97 155.756 352.761 156.008 353.42 156.48C354.6 157.37 357.57 159.48 358.2 159.9C363.8 161.77 362.4 175.28 362.06 177.98L361.75 180.45ZM351.16 158.5C351.088 158.492 351.016 158.502 350.949 158.53C350.883 158.558 350.824 158.603 350.78 158.66C350.676 158.861 350.616 159.082 350.604 159.307C350.592 159.533 350.628 159.759 350.71 159.97V160.08C352.2 165.785 355.272 170.953 359.57 174.99C359.92 169.59 359.48 163.13 357.26 162.48C355.357 161.313 353.517 160.044 351.75 158.68V158.68C351.577 158.559 351.371 158.496 351.16 158.5V158.5Z" fill="#F0F0F0"/>
<path d="M379.23 180.45L378.92 177.98C378.58 175.28 377.19 161.77 382.78 159.9C383.41 159.52 386.37 157.38 387.56 156.48C388.219 156.008 389.01 155.756 389.82 155.76C390.314 155.753 390.803 155.861 391.247 156.077C391.691 156.292 392.079 156.608 392.38 157C392.746 157.523 392.985 158.125 393.079 158.756C393.173 159.388 393.118 160.033 392.92 160.64C392.74 161.56 390.65 171.05 381.15 178.87L379.23 180.45ZM389.23 158.68C387.466 160.044 385.63 161.313 383.73 162.48C381.51 163.13 381.06 169.59 381.42 174.99C385.718 170.955 388.787 165.786 390.27 160.08V159.97C390.353 159.76 390.391 159.534 390.38 159.309C390.37 159.083 390.312 158.862 390.21 158.66C390.163 158.604 390.102 158.561 390.034 158.533C389.967 158.505 389.893 158.494 389.82 158.5C389.6 158.493 389.383 158.556 389.2 158.68H389.23Z" fill="#F0F0F0"/>
<path d="M370.48 193.57C363.48 193.57 357.87 170.37 357.87 163.4V156.23H383.09V163.4C383.09 170.37 377.44 193.57 370.48 193.57Z" fill="#F5F5F5"/>
<path d="M372.62 192.44H368.53V212.61H372.62V192.44Z" fill="#F5F5F5"/>
<path d="M381.26 223.19H359.48L357.76 216.84H382.98L381.26 223.19Z" fill="#E6E6E6"/>
<path d="M372.7 206.62L368.51 206.68L366.47 210.22H374.63L372.7 206.62Z" fill="#F0F0F0"/>
<path d="M373.96 208.7H367.13L364.04 212.77H377.13L373.96 208.7Z" fill="#EBEBEB"/>
<path d="M364.1 212.23H377.03L382.98 216.84H357.76L364.1 212.23Z" fill="#F5F5F5"/>
<path d="M368.51 195.77L372.7 195.71L374.62 191.26H366.46L368.51 195.77Z" fill="#F0F0F0"/>
<path d="M387.62 229.03H325.94V306.58H387.62V229.03Z" fill="#E0E0E0"/>
<path d="M397.04 223.26H389.29V316.64H397.04V223.26Z" fill="#E6E6E6"/>
<path d="M340.81 235.13H335.76V264.11H340.81V235.13Z" fill="#FAFAFA"/>
<path d="M361.77 235.13H356.72V264.11H361.77V235.13Z" fill="#F5F5F5"/>
<path d="M345.87 237.17H340.82V264.11H345.87V237.17Z" fill="#F5F5F5"/>
<path d="M356.71 237.17H351.66V264.11H356.71V237.17Z" fill="#FAFAFA"/>
<path d="M351.67 235.13H348.4V264.11H351.67V235.13Z" fill="#EBEBEB"/>
<path d="M348.4 237.17H345.87V264.11H348.4V237.17Z" fill="#FAFAFA"/>
<path d="M366.82 235.13H361.77V264.11H366.82V235.13Z" fill="#EBEBEB"/>
<path d="M371.88 237.17H366.83V264.11H371.88V237.17Z" fill="#E6E6E6"/>
<path d="M382.72 237.17H377.67V264.11H382.72V237.17Z" fill="#E6E6E6"/>
<path d="M377.68 235.13H374.41V264.11H377.68V235.13Z" fill="#FAFAFA"/>
<path d="M374.41 237.17H371.88V264.11H374.41V237.17Z" fill="#EBEBEB"/>
<path d="M385.26 235.82H382.73V264.11H385.26V235.82Z" fill="#FAFAFA"/>
<path d="M380.21 302.95H385.26V273.97H380.21V302.95Z" fill="#FAFAFA"/>
<path d="M359.25 302.95H364.3V273.97H359.25V302.95Z" fill="#FAFAFA"/>
<path d="M375.15 302.95H380.2V276.01H375.15V302.95Z" fill="#F0F0F0"/>
<path d="M364.3 302.95H369.35V276.01H364.3V302.95Z" fill="#EBEBEB"/>
<path d="M369.35 302.95H372.62V273.97H369.35V302.95Z" fill="#FAFAFA"/>
<path d="M372.62 302.95H375.15V276.01H372.62V302.95Z" fill="#F5F5F5"/>
<path d="M354.2 302.95H359.25V273.97H354.2V302.95Z" fill="#EBEBEB"/>
<path d="M349.14 302.95H354.19V276.01H349.14V302.95Z" fill="#F5F5F5"/>
<path d="M338.29 302.95H343.34V276.01H338.29V302.95Z" fill="#E6E6E6"/>
<path d="M343.34 302.95H346.61V273.97H343.34V302.95Z" fill="#FAFAFA"/>
<path d="M332.49 302.95H335.76V273.97H332.49V302.95Z" fill="#FAFAFA"/>
<path d="M346.61 302.95H349.14V276.01H346.61V302.95Z" fill="#EBEBEB"/>
<path d="M335.76 302.95H338.29V274.66H335.76V302.95Z" fill="#F0F0F0"/>
<path d="M387.32 223.25H323.99V311.4H385.25V316.64H389.39V223.25H387.32ZM385.25 302.95H327.89V268.95H385.25V302.95ZM385.25 264.14H327.89V231.71H385.25V264.14Z" fill="#E6E6E6"/>
<path d="M264.16 306.58H325.84V229.03H264.16V306.58Z" fill="#E0E0E0"/>
<path d="M266.53 316.64H274.28V310.46H266.53V316.64Z" fill="#E6E6E6"/>
<path d="M318.72 264.11H323.77V235.13H318.72V264.11Z" fill="#FAFAFA"/>
<path d="M297.75 264.11H302.8V235.13H297.75V264.11Z" fill="#F5F5F5"/>
<path d="M313.66 264.12H318.71V237.18H313.66V264.12Z" fill="#F5F5F5"/>
<path d="M302.81 264.12H307.86V237.18H302.81V264.12Z" fill="#FAFAFA"/>
<path d="M307.86 264.11H311.13V235.13H307.86V264.11Z" fill="#EBEBEB"/>
<path d="M311.13 264.12H313.66V237.18H311.13V264.12Z" fill="#FAFAFA"/>
<path d="M296.04 264.11H301.09V235.13H296.04V264.11Z" fill="#EBEBEB"/>
<path d="M290.98 264.12H296.03V237.18H290.98V264.12Z" fill="#E6E6E6"/>
<path d="M280.14 264.12H285.19V237.18H280.14V264.12Z" fill="#E6E6E6"/>
<path d="M285.18 264.11H288.45V235.13H285.18V264.11Z" fill="#FAFAFA"/>
<path d="M288.45 264.12H290.98V237.18H288.45V264.12Z" fill="#EBEBEB"/>
<path d="M277.6 264.12H280.13V235.83H277.6V264.12Z" fill="#F5F5F5"/>
<path d="M280.28 273.97H275.23V302.95H280.28V273.97Z" fill="#FAFAFA"/>
<path d="M301.23 273.97H296.18V302.95H301.23V273.97Z" fill="#FAFAFA"/>
<path d="M285.33 276.01H280.28V302.95H285.33V276.01Z" fill="#F5F5F5"/>
<path d="M296.18 276.01H291.13V302.95H296.18V276.01Z" fill="#EBEBEB"/>
<path d="M291.13 273.97H287.86V302.95H291.13V273.97Z" fill="#FAFAFA"/>
<path d="M287.87 276.01H285.34V302.95H287.87V276.01Z" fill="#F5F5F5"/>
<path d="M302.96 273.97H297.91V302.95H302.96V273.97Z" fill="#EBEBEB"/>
<path d="M308.01 276.01H302.96V302.95H308.01V276.01Z" fill="#F5F5F5"/>
<path d="M318.86 276.01H313.81V302.95H318.86V276.01Z" fill="#E6E6E6"/>
<path d="M313.81 273.97H310.54V302.95H313.81V273.97Z" fill="#FAFAFA"/>
<path d="M323.99 273.97H320.72V302.95H323.99V273.97Z" fill="#FAFAFA"/>
<path d="M310.55 276.01H308.02V302.95H310.55V276.01Z" fill="#EBEBEB"/>
<path d="M321.39 274.66H318.86V302.95H321.39V274.66Z" fill="#EBEBEB"/>
<path d="M262.39 223.25V316.64H266.53V311.4H327.79V223.25H262.39ZM266.53 268.97H323.89V302.97H266.54L266.53 268.97ZM266.53 231.71H323.89V264.14H266.54L266.53 231.71Z" fill="#E6E6E6"/>
<path d="M199.39 78.25L224.49 0L224.18 82.18L272.24 15.51L246.55 93.58L312.85 45.02L264.3 111.33L342.36 85.64L275.69 133.69L357.87 133.38L279.62 158.48L357.87 183.59L275.69 183.28L342.36 231.33L264.3 205.64L312.85 271.94L246.55 223.39L272.24 301.45L224.18 234.79L224.49 316.97L199.39 238.71L174.29 316.97L174.6 234.79L126.54 301.45L152.23 223.39L85.93 271.94L134.48 205.64L56.42 231.33L123.09 183.28L40.91 183.59L119.16 158.48L40.91 133.38L123.09 133.69L56.42 85.64L134.48 111.33L85.93 45.02L152.23 93.58L126.54 15.51L174.6 82.18L174.29 0L199.39 78.25Z" fill="#F5F5F5"/>
<path d="M216.32 125.36C212.73 123.04 211.32 117.6 210.93 111.89C210.693 107.55 210.871 103.197 211.46 98.89C211.57 97.79 211.73 96.73 211.92 95.73C212.079 94.7192 212.293 93.7178 212.56 92.73L179.95 79.27C183.53 84.67 186.26 101.96 185.5 107.52C184.67 113.76 184.42 122.52 181.18 124.78L216.32 125.36Z" fill="#407BFF"/>
<g opacity="0.7">
<path d="M216.32 125.36C212.73 123.04 211.32 117.6 210.93 111.89C210.693 107.55 210.871 103.197 211.46 98.89C211.57 97.79 211.73 96.73 211.92 95.73C212.079 94.7192 212.293 93.7178 212.56 92.73L179.95 79.27C183.53 84.67 186.26 101.96 185.5 107.52C184.67 113.76 184.42 122.52 181.18 124.78L216.32 125.36Z" fill="white"/>
</g>
<path d="M181.18 124.78C174.18 129.78 177.18 137.64 182.87 144.06C185.059 146.522 187.415 148.831 189.92 150.97C200.82 160.3 217.92 156.34 223.01 142.92C225.24 136.97 224.47 130.59 216.32 125.37L181.18 124.78Z" fill="#FFB573"/>
<path opacity="0.2" d="M210.93 111.89C210.693 107.55 210.871 103.197 211.46 98.89C211.57 97.79 211.73 96.73 211.92 95.73L186.71 90.89C192 96.13 199.39 106.85 210.93 111.89Z" fill="black"/>
<path d="M244.19 53.42C243.39 58.84 235.96 67.65 236.32 67.12C236.619 66.5454 236.724 65.8894 236.62 65.25C236.457 62.8097 235.858 60.4185 234.85 58.19C234.22 61.19 233.26 67.48 230.27 67.53C229.08 65.29 227.62 63.25 227.83 60.71C227.14 63.31 226.5 65.93 225.83 68.53C220.03 64.96 216.36 56.72 217.57 49.84C217.831 48.1713 218.412 46.5687 219.28 45.12C220.355 43.5389 221.659 42.1268 223.15 40.93C226.94 37.61 228.48 36.07 233.46 36.07C244.33 36.07 244.99 48 244.19 53.42Z" fill="#407BFF"/>
<path opacity="0.3" d="M244.19 53.42C243.39 58.84 235.96 67.65 236.32 67.12C236.619 66.5454 236.724 65.8894 236.62 65.25C236.457 62.8097 235.858 60.4185 234.85 58.19C234.22 61.19 233.26 67.48 230.27 67.53C229.08 65.29 227.62 63.25 227.83 60.71C227.14 63.31 226.5 65.93 225.83 68.53C220.03 64.96 216.36 56.72 217.57 49.84C217.831 48.1713 218.412 46.5687 219.28 45.12C220.355 43.5389 221.659 42.1268 223.15 40.93C226.94 37.61 228.48 36.07 233.46 36.07C244.33 36.07 244.99 48 244.19 53.42Z" fill="black"/>
<path d="M238.56 79.96C234.51 102.03 208.09 113.67 190.65 97.86C180.58 88.75 178.98 77.86 177.14 60.94C176.85 58.37 176.56 55.67 176.24 52.8C175.7 48.332 176.158 43.7999 177.58 39.53C178.164 37.7533 178.928 36.0411 179.86 34.42C183.27 28.2865 188.723 23.5428 195.27 21.0141C201.816 18.4854 209.042 18.3318 215.69 20.58C237.55 27.94 242.23 60.1 238.56 79.96Z" fill="#407BFF"/>
<path opacity="0.7" d="M238.56 79.96C234.51 102.03 208.09 113.67 190.65 97.86C180.58 88.75 178.98 77.86 177.14 60.94C176.85 58.37 176.56 55.67 176.24 52.8C175.7 48.332 176.158 43.7999 177.58 39.53C178.164 37.7533 178.928 36.0411 179.86 34.42C183.27 28.2865 188.723 23.5428 195.27 21.0141C201.816 18.4854 209.042 18.3318 215.69 20.58C237.55 27.94 242.23 60.1 238.56 79.96Z" fill="white"/>
<path d="M211.28 53.45C212.44 53.37 213.45 54.77 213.54 56.54C213.63 58.31 212.93 59.81 211.63 59.88C210.33 59.95 209.31 58.57 209.21 56.78C209.11 54.99 210.13 53.52 211.28 53.45Z" fill="#407BFF"/>
<path opacity="0.3" d="M211.28 53.45C212.44 53.37 213.45 54.77 213.54 56.54C213.63 58.31 212.93 59.81 211.63 59.88C210.33 59.95 209.31 58.57 209.21 56.78C209.11 54.99 210.13 53.52 211.28 53.45Z" fill="black"/>
<path d="M231.08 53.27C232.24 53.19 233.25 54.57 233.35 56.34C233.45 58.11 232.61 59.6 231.43 59.68C230.25 59.76 229.24 58.38 229.14 56.61C229.04 54.84 229.93 53.34 231.08 53.27Z" fill="#407BFF"/>
<path opacity="0.3" d="M231.08 53.27C232.24 53.19 233.25 54.57 233.35 56.34C233.45 58.11 232.61 59.6 231.43 59.68C230.25 59.76 229.24 58.38 229.14 56.61C229.04 54.84 229.93 53.34 231.08 53.27Z" fill="black"/>
<path d="M222.75 74.06C225.75 74.37 231.22 72.55 233.39 70.42C229.26 66.33 224.65 61.73 221.82 56.66L222.75 74.06Z" fill="#407BFF"/>
<path opacity="0.5" d="M222.75 74.06C225.75 74.37 231.22 72.55 233.39 70.42C229.26 66.33 224.65 61.73 221.82 56.66L222.75 74.06Z" fill="white"/>
<path d="M207.97 46.49C209.267 46.2449 210.603 46.3081 211.872 46.6747C213.14 47.0412 214.304 47.7007 215.27 48.6V48.6C215.326 48.6943 215.397 48.7787 215.48 48.85C215.584 48.94 215.705 49.0085 215.836 49.0516C215.967 49.0948 216.105 49.1117 216.243 49.1015C216.38 49.0913 216.514 49.0541 216.637 48.9921C216.76 48.9301 216.87 48.8444 216.96 48.74C217.05 48.6356 217.118 48.5145 217.162 48.3836C217.205 48.2527 217.222 48.1146 217.212 47.9772C217.201 47.8398 217.164 47.7057 217.102 47.5826C217.04 47.4596 216.954 47.35 216.85 47.26C215.668 46.1026 214.226 45.2446 212.645 44.7576C211.063 44.2705 209.389 44.1685 207.76 44.46C207.622 44.4742 207.489 44.5168 207.369 44.5851C207.249 44.6534 207.144 44.746 207.061 44.8569C206.978 44.9678 206.92 45.0947 206.888 45.2295C206.857 45.3642 206.854 45.504 206.88 45.64C206.902 45.8217 206.979 45.9925 207.1 46.13C207.208 46.2524 207.342 46.3484 207.493 46.4108C207.644 46.4732 207.807 46.5003 207.97 46.49Z" fill="#407BFF"/>
<path opacity="0.3" d="M207.97 46.49C209.267 46.2449 210.603 46.3081 211.872 46.6747C213.14 47.0412 214.304 47.7007 215.27 48.6V48.6C215.326 48.6943 215.397 48.7787 215.48 48.85C215.584 48.94 215.705 49.0085 215.836 49.0516C215.967 49.0948 216.105 49.1117 216.243 49.1015C216.38 49.0913 216.514 49.0541 216.637 48.9921C216.76 48.9301 216.87 48.8444 216.96 48.74C217.05 48.6356 217.118 48.5145 217.162 48.3836C217.205 48.2527 217.222 48.1146 217.212 47.9772C217.201 47.8398 217.164 47.7057 217.102 47.5826C217.04 47.4596 216.954 47.35 216.85 47.26C215.668 46.1026 214.226 45.2446 212.645 44.7576C211.063 44.2705 209.389 44.1685 207.76 44.46C207.622 44.4742 207.489 44.5168 207.369 44.5851C207.249 44.6534 207.144 44.746 207.061 44.8569C206.978 44.9678 206.92 45.0947 206.888 45.2295C206.857 45.3642 206.854 45.504 206.88 45.64C206.902 45.8217 206.979 45.9925 207.1 46.13C207.208 46.2524 207.342 46.3484 207.493 46.4108C207.644 46.4732 207.807 46.5003 207.97 46.49Z" fill="black"/>
<path d="M238.31 44.37C238.295 44.0994 238.176 43.8449 237.979 43.6589C237.782 43.473 237.521 43.3695 237.25 43.37C235.598 43.3277 233.961 43.6869 232.479 44.4167C230.997 45.1465 229.714 46.2251 228.74 47.56V47.56C228.665 47.672 228.613 47.7981 228.588 47.9306C228.563 48.0632 228.565 48.1994 228.594 48.3311C228.623 48.4628 228.679 48.5873 228.757 48.6971C228.835 48.8069 228.935 48.8997 229.05 48.97H229.12C229.347 49.1061 229.618 49.1467 229.875 49.083C230.132 49.0192 230.353 48.8564 230.49 48.63C231.283 47.5917 232.311 46.7565 233.49 46.1932C234.668 45.63 235.964 45.3547 237.27 45.39C237.443 45.3976 237.615 45.3602 237.769 45.2813C237.924 45.2024 238.055 45.0848 238.15 44.94C238.245 44.7643 238.3 44.5695 238.31 44.37Z" fill="#407BFF"/>
<path opacity="0.3" d="M238.31 44.37C238.295 44.0994 238.176 43.8449 237.979 43.6589C237.782 43.473 237.521 43.3695 237.25 43.37C235.598 43.3277 233.961 43.6869 232.479 44.4167C230.997 45.1465 229.714 46.2251 228.74 47.56V47.56C228.665 47.672 228.613 47.7981 228.588 47.9306C228.563 48.0632 228.565 48.1994 228.594 48.3311C228.623 48.4628 228.679 48.5873 228.757 48.6971C228.835 48.8069 228.935 48.8997 229.05 48.97H229.12C229.347 49.1061 229.618 49.1467 229.875 49.083C230.132 49.0192 230.353 48.8564 230.49 48.63C231.283 47.5917 232.311 46.7565 233.49 46.1932C234.668 45.63 235.964 45.3547 237.27 45.39C237.443 45.3976 237.615 45.3602 237.769 45.2813C237.924 45.2024 238.055 45.0848 238.15 44.94C238.245 44.7643 238.3 44.5695 238.31 44.37Z" fill="black"/>
<path d="M188.66 93.13C185.989 92.6236 183.469 91.5156 181.29 89.89C181.29 92.82 179.29 97.89 179.29 97.89C169.97 94.82 162.29 76.18 161.29 70C156.11 79.63 156.56 74.09 156.16 70C155.58 64.11 155.43 58 157.44 52.45C159.45 46.9 164.03 41.93 169.87 40.97C170.956 40.8706 172.05 41.0639 173.036 41.5299C174.023 41.9959 174.867 42.7176 175.48 43.62C176.473 45.4027 177.121 47.3569 177.39 49.38C180.12 63.99 180 81.05 188.66 93.13Z" fill="#407BFF"/>
<path opacity="0.3" d="M188.66 93.13C185.989 92.6236 183.469 91.5156 181.29 89.89C181.29 92.82 179.29 97.89 179.29 97.89C169.97 94.82 162.29 76.18 161.29 70C156.11 79.63 156.56 74.09 156.16 70C155.58 64.11 155.43 58 157.44 52.45C159.45 46.9 164.03 41.93 169.87 40.97C170.956 40.8706 172.05 41.0639 173.036 41.5299C174.023 41.9959 174.867 42.7176 175.48 43.62C176.473 45.4027 177.121 47.3569 177.39 49.38C180.12 63.99 180 81.05 188.66 93.13Z" fill="black"/>
<path d="M175.45 59.63C182.58 59.79 186.93 68.78 187.69 74.93C188.58 81.78 183.98 87.41 177.37 84.38C174.905 83.2368 172.694 81.613 170.865 79.6039C169.036 77.5948 167.627 75.2408 166.72 72.68C164.51 66.32 168.31 59.48 175.45 59.63Z" fill="#407BFF"/>
<path opacity="0.7" d="M175.45 59.63C182.58 59.79 186.93 68.78 187.69 74.93C188.58 81.78 183.98 87.41 177.37 84.38C174.905 83.2368 172.694 81.613 170.865 79.6039C169.036 77.5948 167.627 75.2408 166.72 72.68C164.51 66.32 168.31 59.48 175.45 59.63Z" fill="white"/>
<path d="M189.73 38.66C191.595 40.6687 192.989 43.0685 193.809 45.6843C194.629 48.3 194.855 51.0659 194.47 53.78C193.64 59.2 185.97 68 186.33 67.47C186.636 66.8977 186.748 66.2416 186.65 65.6C186.472 63.1541 185.849 60.7614 184.81 58.54C184.16 61.54 183.17 67.83 180.08 67.87C178.85 65.64 177.34 63.6 177.55 61.05C176.84 63.66 176.18 66.28 175.47 68.88C169.47 65.3 165.67 57.06 166.91 50.18C167.183 48.5054 167.785 46.9013 168.68 45.46C169.801 43.8748 171.148 42.463 172.68 41.27C176.6 37.95 181.79 34.64 186.52 36.63C187.2 36.95 189.91 37.94 189.73 38.66Z" fill="#407BFF"/>
<path opacity="0.3" d="M189.73 38.66C191.595 40.6687 192.989 43.0685 193.809 45.6843C194.629 48.3 194.855 51.0659 194.47 53.78C193.64 59.2 185.97 68 186.33 67.47C186.636 66.8977 186.748 66.2416 186.65 65.6C186.472 63.1541 185.849 60.7614 184.81 58.54C184.16 61.54 183.17 67.83 180.08 67.87C178.85 65.64 177.34 63.6 177.55 61.05C176.84 63.66 176.18 66.28 175.47 68.88C169.47 65.3 165.67 57.06 166.91 50.18C167.183 48.5054 167.785 46.9013 168.68 45.46C169.801 43.8748 171.148 42.463 172.68 41.27C176.6 37.95 181.79 34.64 186.52 36.63C187.2 36.95 189.91 37.94 189.73 38.66Z" fill="black"/>
<path d="M228.39 80.12C228.39 80.12 222.28 77.64 204.27 75.49C205.27 82.03 209.27 84.79 218.48 85.79C227.69 86.79 228.39 80.12 228.39 80.12Z" fill="#263238"/>
<path d="M227.57 79.89C227.295 80.6077 226.837 81.2413 226.243 81.7288C225.649 82.2162 224.938 82.5405 224.18 82.67C218.862 82.0279 213.619 80.8623 208.53 79.19C207.668 78.9934 206.88 78.5565 206.257 77.9298C205.634 77.3032 205.202 76.5126 205.01 75.65C212.644 76.3712 220.195 77.7905 227.57 79.89V79.89Z" fill="white"/>
<path d="M223.82 82.13C219.281 80.2853 214.485 79.1553 209.6 78.78C208.231 78.9291 206.927 79.4476 205.83 80.28C207.83 83.52 211.83 85.13 218.4 85.87C220.873 86.3077 223.421 85.8429 225.58 84.56C225.105 83.6747 224.513 82.8574 223.82 82.13Z" fill="white"/>
<path d="M240.14 123.27C239.368 130.521 236.656 137.43 232.29 143.27C231.97 143.7 231.64 144.13 231.29 144.55C221.57 156.86 204.1 160.68 189.57 154.21C184.976 152.22 180.566 149.831 176.39 147.07C168.15 141.53 161.04 133.83 157.69 124.79L183.24 121.5L200.71 119.25L212.65 120.47L240.14 123.27Z" fill="#FFB573"/>
<path d="M113.81 139.65C112.81 214.65 57.46 279.65 51.75 354.48H326.46C299.152 295.98 282.039 233.244 275.86 168.98L271.61 124.78H131.02C131.02 124.78 113.91 132.31 113.81 139.65Z" fill="#407BFF"/>
<path opacity="0.6" d="M113.81 139.65C112.81 214.65 57.46 279.65 51.75 354.48H326.46C299.152 295.98 282.039 233.244 275.86 168.98L271.61 124.78H131.02C131.02 124.78 113.91 132.31 113.81 139.65Z" fill="white"/>
<path opacity="0.2" d="M85.93 354.38C85.93 354.38 84.33 277.15 109.93 197.25C135.53 117.35 103.39 221.21 108.39 313.78C109.81 340.47 116.8 354.78 116.8 354.78L85.93 354.38Z" fill="white"/>
<path opacity="0.2" d="M301.25 354.78C301.25 354.78 267.69 276.95 261.66 174.22C261.66 174.22 253.44 265.13 281.8 354.48L301.25 354.78Z" fill="white"/>
<path d="M292.28 111.96C292.416 111.893 292.556 111.836 292.7 111.79L292.54 111.86L292.28 111.96Z" fill="#407BFF"/>
<path d="M294.49 111.14L293.78 111.4L293.2 111.61H293.11L292.7 111.76C293.27 111.56 293.87 111.35 294.49 111.14Z" fill="#407BFF"/>
<path d="M366.21 115.12C366.21 142.56 316.97 159.83 295 166.12C274.16 173.12 261.66 174.17 261.66 174.17C260.89 166.92 245.17 124.37 245.17 124.37C245.17 124.37 254.57 120.37 261.31 120.97H261.48C269.369 121.593 277.259 119.785 284.09 115.79C286.574 114.356 289.161 113.109 291.83 112.06L292.28 111.89L292.54 111.79L293.11 111.57H293.2L293.78 111.36L294.49 111.1L295.32 110.83L295.57 110.75L295.83 110.67L296.02 110.62H296.09C298.033 110.057 300.006 109.603 302 109.26C307.848 108.12 313.905 108.818 319.34 111.26C320.373 111.766 321.515 112.006 322.664 111.959C323.813 111.912 324.932 111.579 325.92 110.99C326.92 110.35 327.35 109.66 326.39 109.12L279.65 55.66L293.9 47.83C293.9 47.83 366.21 86.04 366.21 115.12Z" fill="#407BFF"/>
<path d="M366.21 115.12C366.21 142.56 316.97 159.83 295 166.12C274.16 173.12 261.66 174.17 261.66 174.17C260.89 166.92 245.17 124.37 245.17 124.37C245.17 124.37 254.57 120.37 261.31 120.97H261.48C269.369 121.593 277.259 119.785 284.09 115.79C286.574 114.356 289.161 113.109 291.83 112.06L292.28 111.89L292.54 111.79L293.11 111.57H293.2L293.78 111.36L294.49 111.1L295.32 110.83L295.57 110.75L295.83 110.67L296.02 110.62H296.09C298.033 110.057 300.006 109.603 302 109.26C307.848 108.12 313.905 108.818 319.34 111.26C320.373 111.766 321.515 112.006 322.664 111.959C323.813 111.912 324.932 111.579 325.92 110.99C326.92 110.35 327.35 109.66 326.39 109.12L279.65 55.66L293.9 47.83C293.9 47.83 366.21 86.04 366.21 115.12Z" fill="#407BFF"/>
<g opacity="0.3">
<path d="M366.21 115.12C366.21 142.56 316.97 159.83 295 166.12C274.16 173.12 261.66 174.17 261.66 174.17C260.89 166.92 245.17 124.37 245.17 124.37C245.17 124.37 254.57 120.37 261.31 120.97H261.48C269.369 121.593 277.259 119.785 284.09 115.79C286.574 114.356 289.161 113.109 291.83 112.06L292.28 111.89L292.54 111.79L293.11 111.57H293.2L293.78 111.36L294.49 111.1L295.32 110.83L295.57 110.75L295.83 110.67L296.02 110.62H296.09C298.033 110.057 300.006 109.603 302 109.26C307.848 108.12 313.905 108.818 319.34 111.26C320.373 111.766 321.515 112.006 322.664 111.959C323.813 111.912 324.932 111.579 325.92 110.99C326.92 110.35 327.35 109.66 326.39 109.12L279.65 55.66L293.9 47.83C293.9 47.83 366.21 86.04 366.21 115.12Z" fill="white"/>
</g>
<path d="M283.5 57.05L263.58 49.16L251.58 33.16L268.82 29.33L285.12 37.78L294.9 48.42C295.353 48.9141 295.675 49.5142 295.835 50.1651C295.996 50.816 295.99 51.4968 295.819 52.145C295.648 52.7932 295.316 53.3879 294.855 53.8746C294.394 54.3612 293.818 54.7241 293.18 54.93L286.18 57.16C285.301 57.4329 284.354 57.394 283.5 57.05Z" fill="#407BFF"/>
<path opacity="0.7" d="M283.5 57.05L263.58 49.16L251.58 33.16L268.82 29.33L285.12 37.78L294.9 48.42C295.353 48.9141 295.675 49.5142 295.835 50.1651C295.996 50.816 295.99 51.4968 295.819 52.145C295.648 52.7932 295.316 53.3879 294.855 53.8746C294.394 54.3612 293.818 54.7241 293.18 54.93L286.18 57.16C285.301 57.4329 284.354 57.394 283.5 57.05Z" fill="white"/>
<path opacity="0.2" d="M270.46 152.35L272.46 172.58C272.46 172.58 301.95 165.74 318.62 158.11L305.23 158.84C294.152 159.6 283.064 157.514 273.02 152.78L270.46 152.35Z" fill="black"/>
<path d="M273.99 172.11C273.7 236.5 261.87 242.58 262.43 298C262.43 298 150.94 298.45 147.16 298.55C138.16 223.97 128.99 220.55 131.41 163.28C130.24 144.47 140.91 127.93 151.64 125.78L200.73 119.25L247.95 124.25C259.95 125.97 270.8 135.43 273.99 172.11Z" fill="#407BFF"/>
<path opacity="0.3" d="M273.99 172.11C273.7 236.5 261.87 242.58 262.43 298C262.43 298 150.94 298.45 147.16 298.55C138.16 223.97 128.99 220.55 131.41 163.28C130.24 144.47 140.91 127.93 151.64 125.78L200.73 119.25L247.95 124.25C259.95 125.97 270.8 135.43 273.99 172.11Z" fill="white"/>
<path d="M193.47 46.36C190.47 39.76 186.47 36.57 188.8 36.93C195.06 37.93 198.89 32.42 203.49 35.52C205.73 38.08 203.15 42.84 203.04 42.58C205.34 43.67 208.21 42.81 210.1 41.13C211.99 39.45 212.65 36.51 213.58 34.13C214.276 36.6892 214.214 39.3957 213.4 41.92C215.05 43.23 218.45 40.77 220 39.34C221.549 37.6994 222.708 35.7305 223.39 33.58C223.98 35.88 224.44 38.22 222.79 40.99C225.13 41.12 228.2 40.4 229.74 38.65C230.545 37.7384 231.141 36.662 231.486 35.4961C231.832 34.3302 231.918 33.1029 231.74 31.9C232.27 33.08 232.35 37.9 231.3 38.71C235.3 37.4 239.01 32.4 238.8 28.23C238.607 26.1379 237.913 24.123 236.777 22.3561C235.64 20.5892 234.094 19.1224 232.27 18.08C230.48 17.01 228.49 16.31 226.61 15.39C223.72 13.97 205.36 0.269992 178.4 15.89C161.67 25.59 164.94 44.89 166.93 46.99C169.4 49.58 173.29 50.45 176.88 50.09C180.47 49.73 194.25 48.11 193.47 46.36Z" fill="#407BFF"/>
<path opacity="0.3" d="M193.47 46.36C190.47 39.76 186.47 36.57 188.8 36.93C195.06 37.93 198.89 32.42 203.49 35.52C205.73 38.08 203.15 42.84 203.04 42.58C205.34 43.67 208.21 42.81 210.1 41.13C211.99 39.45 212.65 36.51 213.58 34.13C214.276 36.6892 214.214 39.3957 213.4 41.92C215.05 43.23 218.45 40.77 220 39.34C221.549 37.6994 222.708 35.7305 223.39 33.58C223.98 35.88 224.44 38.22 222.79 40.99C225.13 41.12 228.2 40.4 229.74 38.65C230.545 37.7384 231.141 36.662 231.486 35.4961C231.832 34.3302 231.918 33.1029 231.74 31.9C232.27 33.08 232.35 37.9 231.3 38.71C235.3 37.4 239.01 32.4 238.8 28.23C238.607 26.1379 237.913 24.123 236.777 22.3561C235.64 20.5892 234.094 19.1224 232.27 18.08C230.48 17.01 228.49 16.31 226.61 15.39C223.72 13.97 205.36 0.269992 178.4 15.89C161.67 25.59 164.94 44.89 166.93 46.99C169.4 49.58 173.29 50.45 176.88 50.09C180.47 49.73 194.25 48.11 193.47 46.36Z" fill="black"/>
<path d="M228.39 80.12C228.39 80.12 222.28 77.64 204.27 75.49C205.27 82.03 209.27 84.79 218.48 85.79C227.69 86.79 228.39 80.12 228.39 80.12Z" fill="#407BFF"/>
<path opacity="0.3" d="M228.39 80.12C228.39 80.12 222.28 77.64 204.27 75.49C205.27 82.03 209.27 84.79 218.48 85.79C227.69 86.79 228.39 80.12 228.39 80.12Z" fill="black"/>
<path d="M227.57 79.89C227.295 80.6077 226.837 81.2413 226.243 81.7288C225.649 82.2162 224.938 82.5405 224.18 82.67C218.862 82.0279 213.619 80.8623 208.53 79.19C207.668 78.9934 206.88 78.5565 206.257 77.9298C205.634 77.3032 205.202 76.5126 205.01 75.65C212.644 76.3712 220.195 77.7905 227.57 79.89V79.89Z" fill="white"/>
<path d="M223.82 82.13C219.281 80.2853 214.485 79.1553 209.6 78.78C208.231 78.9291 206.927 79.4476 205.83 80.28C207.83 83.52 211.83 85.13 218.4 85.87C220.873 86.3077 223.421 85.8429 225.58 84.56C225.105 83.6747 224.513 82.8574 223.82 82.13Z" fill="white"/>
<path d="M141.39 270.15C141.39 270.15 164.97 257.65 164.84 259.02C164.71 260.39 165.33 286.84 165.33 286.84L139.62 286.25L141.39 270.15Z" fill="#407BFF"/>
<path d="M164.82 259.02C164.82 259.02 186.53 259.73 186.41 262.14C186.29 264.55 183.95 284.78 183.95 284.78L165.31 286.85L164.82 259.02Z" fill="#407BFF"/>
<g opacity="0.7">
<path d="M186.39 262.14C186.27 264.56 183.94 284.77 183.94 284.77L165.3 286.84L139.59 286.25L141.36 270.15C141.36 270.15 164.94 257.65 164.81 259.02C164.82 259.02 186.53 259.78 186.39 262.14Z" fill="white"/>
</g>
<path d="M240.14 123.27C239.368 130.521 236.656 137.43 232.29 143.27C231.97 143.7 231.64 144.13 231.29 144.55C221.57 156.86 204.1 160.68 189.57 154.21C184.976 152.22 180.566 149.831 176.39 147.07C168.15 141.53 161.04 133.83 157.69 124.79L183.24 121.5L200.71 119.25L212.65 120.47L240.14 123.27Z" fill="#407BFF"/>
<path opacity="0.7" d="M240.14 123.27C239.368 130.521 236.656 137.43 232.29 143.27C231.97 143.7 231.64 144.13 231.29 144.55C221.57 156.86 204.1 160.68 189.57 154.21C184.976 152.22 180.566 149.831 176.39 147.07C168.15 141.53 161.04 133.83 157.69 124.79L183.24 121.5L200.71 119.25L212.65 120.47L240.14 123.27Z" fill="white"/>
<path opacity="0.2" d="M131.57 188.21C131.606 199.455 132.61 210.677 134.57 221.75L142.92 169.63L131.57 188.21Z" fill="black"/>
<path d="M86.31 225.92L142.16 265.38L139.6 288.59C139.6 288.59 55.78 269.32 43.09 243.17C37.16 230.97 43.84 216.05 54.16 202.25C54.1647 202.234 54.1647 202.216 54.16 202.2C66.43 182.13 77.58 170.2 85.99 163.15C94.2381 156.438 101.402 148.495 107.23 139.6C121.71 116.87 154.23 126.08 154.23 126.08C146.82 143.42 146.74 176.4 146.74 176.4C146.74 176.4 139.47 181.88 131.53 188.21C131.45 193.56 128.2 200.11 121.92 207.51C113.67 217.27 89.13 222.83 86.31 225.92Z" fill="#407BFF"/>
<path opacity="0.3" d="M86.31 225.92L142.16 265.38L139.6 288.59C139.6 288.59 55.78 269.32 43.09 243.17C37.16 230.97 43.84 216.05 54.16 202.25C54.1647 202.234 54.1647 202.216 54.16 202.2C66.43 182.13 77.58 170.2 85.99 163.15C94.2381 156.438 101.402 148.495 107.23 139.6C121.71 116.87 154.23 126.08 154.23 126.08C146.82 143.42 146.74 176.4 146.74 176.4C146.74 176.4 139.47 181.88 131.53 188.21C131.45 193.56 128.2 200.11 121.92 207.51C113.67 217.27 89.13 222.83 86.31 225.92Z" fill="white"/>
<path d="M128.5 119.36C146.157 134.045 166.219 145.568 187.8 153.42C187.8 146.65 185.64 132.97 181.8 124.49C180.71 122.11 179.33 119.72 177.1 118.35C174.87 116.98 171.6 116.99 169.94 119.02C163.6 114.54 153.17 114.33 147.02 119.02C142.26 117.37 135.5 114.75 130.54 115.64C125.58 116.53 119.46 123.14 120.2 128.13C124.775 125.94 129.735 124.669 134.8 124.39C133.44 122.78 134.77 124.44 128.5 119.36Z" fill="#407BFF"/>
<path opacity="0.6" d="M128.5 119.36C146.157 134.045 166.219 145.568 187.8 153.42C187.8 146.65 185.64 132.97 181.8 124.49C180.71 122.11 179.33 119.72 177.1 118.35C174.87 116.98 171.6 116.99 169.94 119.02C163.6 114.54 153.17 114.33 147.02 119.02C142.26 117.37 135.5 114.75 130.54 115.64C125.58 116.53 119.46 123.14 120.2 128.13C124.775 125.94 129.735 124.669 134.8 124.39C133.44 122.78 134.77 124.44 128.5 119.36Z" fill="white"/>
<path d="M256.82 121.07C253.953 119.772 250.842 119.101 247.695 119.101C244.548 119.101 241.437 119.772 238.57 121.07C234.65 118.2 228.62 117.59 224.57 120.34C223.933 119.578 223.144 118.957 222.254 118.516C221.364 118.076 220.392 117.825 219.4 117.78C217.4 117.71 216.12 119.09 214.75 120.52C217.63 121.97 219.1 125.2 220.12 128.26C222.723 136.011 223.833 144.185 223.39 152.35C237.19 145.61 248.9 134.3 256.82 121.07Z" fill="#407BFF"/>
<path opacity="0.6" d="M256.82 121.07C253.953 119.772 250.842 119.101 247.695 119.101C244.548 119.101 241.437 119.772 238.57 121.07C234.65 118.2 228.62 117.59 224.57 120.34C223.933 119.578 223.144 118.957 222.254 118.516C221.364 118.076 220.392 117.825 219.4 117.78C217.4 117.71 216.12 119.09 214.75 120.52C217.63 121.97 219.1 125.2 220.12 128.26C222.723 136.011 223.833 144.185 223.39 152.35C237.19 145.61 248.9 134.3 256.82 121.07Z" fill="white"/>
<path opacity="0.5" d="M254.12 199C254.12 214.19 232.5 241.34 205.83 241.34C179.16 241.34 157.54 214.19 157.54 199C157.54 183.81 179.16 171.49 205.83 171.49C232.5 171.49 254.12 183.78 254.12 199Z" fill="white"/>
<path d="M247.63 200.31C247.63 212.82 229.82 235.19 207.85 235.19C185.88 235.19 168.08 212.78 168.08 200.31C168.08 187.84 185.88 177.64 207.85 177.64C229.82 177.64 247.63 187.78 247.63 200.31Z" fill="#407BFF"/>
<path opacity="0.5" d="M247.63 200.31C247.63 212.82 229.82 235.19 207.85 235.19C185.88 235.19 168.08 212.78 168.08 200.31C168.08 187.84 185.88 177.64 207.85 177.64C229.82 177.64 247.63 187.78 247.63 200.31Z" fill="white"/>
<path d="M262.45 298.56H147.16V317.37H262.45V298.56Z" fill="white"/>
<path d="M147.16 317.36L136.13 354.49H266.18L262.45 317.36H147.16Z" fill="#407BFF"/>
<path opacity="0.2" d="M147.16 317.36L136.13 354.49H266.18L262.45 317.36H147.16Z" fill="white"/>
<path d="M232.61 297.35H198.14V317.96H232.61V297.35Z" fill="#263238"/>
<path opacity="0.7" d="M232.61 297.35H198.14V317.96H232.61V297.35Z" fill="white"/>
<path opacity="0.7" d="M212.57 297.35L202.42 317.96H209.93L220.41 297.35H212.57Z" fill="white"/>
<path opacity="0.7" d="M223.63 297.35L213.48 317.96H218.85L229.32 297.35H223.63Z" fill="white"/>
<path opacity="0.2" d="M244.19 53.37C243.77 56.2 241.56 59.94 239.58 62.8C239.902 68.5228 239.566 74.2636 238.58 79.91C237.381 86.5602 234.019 92.6284 229.018 97.1724C224.016 101.716 217.654 104.482 210.92 105.04C210.795 107.305 210.795 109.575 210.92 111.84C211.061 114.77 211.64 117.662 212.64 120.42L240.11 123.22C239.338 130.471 236.626 137.38 232.26 143.22C231.94 143.65 231.61 144.08 231.26 144.5C221.54 156.81 204.07 160.63 189.54 154.16C184.957 152.168 180.557 149.779 176.39 147.02C168.15 141.48 161.04 133.78 157.69 124.74L183.24 121.45C184.56 117.71 184.86 111.95 185.46 107.45C185.88 104.38 185.24 97.74 183.98 91.51C183.021 91.0337 182.107 90.4714 181.25 89.83C181.25 92.76 179.25 97.83 179.25 97.83C169.93 94.76 162.25 76.12 161.25 69.94C156.06 79.57 156.52 74.03 156.12 69.94C155.54 64.05 155.39 57.94 157.4 52.39C158.834 48.2627 161.663 44.765 165.4 42.5C164.4 35.72 165.78 23.11 178.28 15.86C205.28 0.239993 223.6 13.94 226.49 15.36C228.37 16.28 230.35 16.98 232.15 18.05C233.974 19.0924 235.52 20.5592 236.657 22.3261C237.793 24.093 238.487 26.1079 238.68 28.2C238.81 30.92 237.29 33.98 235.11 36.15C244.39 37.34 244.95 48.26 244.19 53.37Z" fill="white"/>
<path opacity="0.2" d="M225 34.71L224.66 34.14C224.785 33.3986 224.785 32.6414 224.66 31.9C224.922 32.8125 225.037 33.7612 225 34.71V34.71Z" fill="white"/>
<path d="M149.53 324.6C146.718 325.516 143.848 326.244 140.94 326.78C140.49 326.86 140.05 326.94 139.62 327C138.21 327.21 136.89 327.34 135.62 327.4C116.27 328.4 115.77 312.24 115.29 304.01C114.813 293.004 115.087 281.979 116.11 271.01C117.45 255.74 119.99 239.88 123.68 228.01C129.02 210.89 137.68 209.01 145.03 208.88C146.45 208.88 147.84 208.88 149.14 208.88C149.14 208.88 148.2 213.73 147.75 218.41L144.83 239.15L140.77 267.93L140.14 272.42V272.67L137.94 288.25L137.43 291.84C137.2 294.23 137.03 297.6 139.64 299.52C140.008 299.805 140.411 300.04 140.84 300.22C142.54 300.98 145.05 301.29 148.7 300.86L149.07 311.08L149.14 312.92L149.26 316.1L149.46 321.88L149.53 324.6Z" fill="#FFB573"/>
<path d="M105.54 265.18C111.08 271.51 115.54 270.74 123.2 271.94C130.86 273.14 137.46 272.72 145.2 272.01C146.77 250.48 149.42 229.01 149.2 207.5C142.92 207.97 136.2 207.71 131.05 210.83C124.19 215 123.73 225.71 119.11 233.26C113.65 242.18 106.65 249.49 99.72 256.71C102.24 261.11 102.39 261.53 105.54 265.18Z" fill="#407BFF"/>
<g opacity="0.6">
<path d="M105.54 265.18C111.08 271.51 115.54 270.74 123.2 271.94C130.86 273.14 137.46 272.72 145.2 272.01C146.77 250.48 149.42 229.01 149.2 207.5C142.92 207.97 136.2 207.71 131.05 210.83C124.19 215 123.73 225.71 119.11 233.26C113.65 242.18 106.65 249.49 99.72 256.71C102.24 261.11 102.39 261.53 105.54 265.18Z" fill="black"/>
</g>
<path opacity="0.2" d="M144.83 239.14L134.15 272.7H147.63L144.83 239.14Z" fill="black"/>
<path d="M248.01 277.4C246.78 282.9 245.31 288.29 243.81 295.16C243.49 296.63 243.16 298.16 242.81 299.8C242.36 302.08 241.91 304.5 241.48 307.14C241 310.14 240.53 313.34 240.08 316.9C239.68 319.98 239.31 323.3 238.96 326.9C238.81 328.47 238.65 330.09 238.51 331.79C238.23 335.1 237.96 338.63 237.72 342.4C237.48 346.17 237.26 350.35 237.06 354.73C233.8 354.65 137.45 354.73 137.45 354.73C137.99 348.32 138.45 342.29 138.89 336.47C139.12 333.24 139.35 330.08 139.54 326.96V326.89C139.61 325.89 139.67 324.99 139.72 324.05C139.87 321.67 140 319.32 140.12 316.98C140.41 311.38 140.63 305.84 140.77 300.19C140.77 299.95 140.77 299.71 140.77 299.47C140.85 295.99 140.9 292.47 140.92 288.85C140.92 283.65 140.92 278.28 140.81 272.64C140.81 272.54 140.81 272.44 140.81 272.34C140.81 270.88 140.76 269.4 140.72 267.9C140.6 263.3 140.44 258.5 140.22 253.45C139.95 247.15 139.6 240.45 139.16 233.31C138.64 224.86 139.24 213.63 144.97 208.86C145.537 208.383 146.158 207.973 146.82 207.64C147.803 207.142 148.86 206.804 149.95 206.64L180.2 201.93L190.75 200.29L206.29 203.29L240.39 209.99C240.798 210.069 241.202 210.169 241.6 210.29C243.804 210.934 245.736 212.283 247.1 214.13C250.62 218.84 251.35 227.13 250.65 238.29C251.52 257.58 250.17 267.66 248.01 277.4Z" fill="#407BFF"/>
<path opacity="0.6" d="M248.01 277.4C246.78 282.9 245.31 288.29 243.81 295.16C243.49 296.63 243.16 298.16 242.81 299.8C242.36 302.08 241.91 304.5 241.48 307.14C241 310.14 240.53 313.34 240.08 316.9C239.68 319.98 239.31 323.3 238.96 326.9C238.81 328.47 238.65 330.09 238.51 331.79C238.23 335.1 237.96 338.63 237.72 342.4C237.48 346.17 237.26 350.35 237.06 354.73C233.8 354.65 137.45 354.73 137.45 354.73C137.99 348.32 138.45 342.29 138.89 336.47C139.12 333.24 139.35 330.08 139.54 326.96V326.89C139.61 325.89 139.67 324.99 139.72 324.05C139.87 321.67 140 319.32 140.12 316.98C140.41 311.38 140.63 305.84 140.77 300.19C140.77 299.95 140.77 299.71 140.77 299.47C140.85 295.99 140.9 292.47 140.92 288.85C140.92 283.65 140.92 278.28 140.81 272.64C140.81 272.54 140.81 272.44 140.81 272.34C140.81 270.88 140.76 269.4 140.72 267.9C140.6 263.3 140.44 258.5 140.22 253.45C139.95 247.15 139.6 240.45 139.16 233.31C138.64 224.86 139.24 213.63 144.97 208.86C145.537 208.383 146.158 207.973 146.82 207.64C147.803 207.142 148.86 206.804 149.95 206.64L180.2 201.93L190.75 200.29L206.29 203.29L240.39 209.99C240.798 210.069 241.202 210.169 241.6 210.29C243.804 210.934 245.736 212.283 247.1 214.13C250.62 218.84 251.35 227.13 250.65 238.29C251.52 257.58 250.17 267.66 248.01 277.4Z" fill="black"/>
<path d="M207.7 205.09C213.76 209.41 211.19 216.2 206.25 221.75C195.96 233.3 185.25 236.89 185.25 236.89C185.09 236.82 158.52 217.62 177.25 205.61C180.35 203.61 181.56 198.9 181.9 193.97C182.106 190.204 181.955 186.427 181.45 182.69C181.36 181.75 181.21 180.83 181.05 179.96C180.89 179.09 180.71 178.21 180.5 177.4L208.77 165.78C205.67 170.44 203.31 185.38 203.97 190.19C204.69 195.57 204.9 203.1 207.7 205.09Z" fill="#FFB573"/>
<path opacity="0.2" d="M181.99 193.97C182.196 190.204 182.045 186.427 181.54 182.69C181.45 181.75 181.3 180.83 181.14 179.96L202.93 175.78C198.39 180.35 191.95 189.61 181.99 193.97Z" fill="black"/>
<path d="M152.46 144.62C153.17 149.3 159.8 156.91 159.46 156.45C159.195 155.958 159.1 155.392 159.19 154.84C159.341 152.723 159.88 150.652 160.78 148.73C161.33 151.35 162.19 156.73 164.86 156.8C165.92 154.87 167.23 153.11 167.05 150.91C167.67 153.16 168.23 155.42 168.84 157.67C171.48 155.959 173.578 153.531 174.889 150.671C176.199 147.811 176.668 144.637 176.24 141.52C176.005 140.07 175.489 138.681 174.72 137.43C173.764 136.05 172.608 134.82 171.29 133.78C167.91 130.91 163.6 128.56 159.29 129.78C151.15 132.1 151.75 139.94 152.46 144.62Z" fill="#263238"/>
<path d="M158.12 166.37C161.62 185.44 184.45 195.5 199.52 181.84C208.22 173.97 209.61 164.58 211.19 149.94C211.44 147.72 211.69 145.39 211.98 142.94C212.441 139.08 212.042 135.167 210.81 131.48C210.302 129.94 209.631 128.458 208.81 127.06C205.866 121.746 201.15 117.635 195.485 115.442C189.82 113.249 183.564 113.114 177.81 115.06C158.99 121.42 154.95 149.21 158.12 166.37Z" fill="#FFB573"/>
<path d="M176.64 139.32C176.5 139.27 176.378 139.179 176.29 139.06C176.15 138.871 176.091 138.635 176.125 138.403C176.158 138.171 176.283 137.961 176.47 137.82V137.82C177.593 136.961 178.908 136.388 180.302 136.151C181.696 135.914 183.126 136.02 184.47 136.46C184.577 136.504 184.674 136.568 184.757 136.65C184.839 136.732 184.904 136.829 184.949 136.935C184.993 137.042 185.016 137.157 185.016 137.273C185.017 137.388 184.994 137.503 184.95 137.61V137.61C184.859 137.83 184.686 138.005 184.467 138.098C184.248 138.192 184.002 138.196 183.78 138.11C182.714 137.76 181.58 137.677 180.474 137.867C179.369 138.057 178.328 138.515 177.44 139.2C177.328 139.287 177.196 139.344 177.056 139.366C176.916 139.387 176.772 139.371 176.64 139.32V139.32Z" fill="#263238"/>
<path d="M166.98 140.66C166.885 140.548 166.765 140.459 166.629 140.402C166.494 140.345 166.347 140.32 166.2 140.33C165.056 140.474 163.894 140.351 162.806 139.969C161.718 139.587 160.733 138.958 159.93 138.13C159.774 137.947 159.554 137.832 159.314 137.809C159.075 137.787 158.837 137.859 158.65 138.01C158.472 138.163 158.358 138.379 158.332 138.612C158.306 138.846 158.37 139.081 158.51 139.27C159.499 140.331 160.728 141.139 162.094 141.628C163.459 142.117 164.922 142.272 166.36 142.08C166.481 142.071 166.599 142.038 166.707 141.983C166.815 141.927 166.911 141.851 166.988 141.757C167.066 141.664 167.124 141.556 167.158 141.439C167.193 141.323 167.204 141.201 167.19 141.08C167.154 140.925 167.082 140.781 166.98 140.66Z" fill="#263238"/>
<path d="M170.39 160.83C167.648 160.856 164.98 159.942 162.83 158.24C165.76 155.33 169.04 152.06 171.05 148.45L170.39 160.83Z" fill="#ED893E"/>
<path d="M163.57 149.54C162.821 149.481 162.092 149.274 161.424 148.93C160.757 148.587 160.164 148.114 159.68 147.54C159.635 147.492 159.599 147.436 159.576 147.374C159.552 147.312 159.541 147.247 159.543 147.181C159.545 147.115 159.56 147.05 159.587 146.99C159.613 146.93 159.652 146.875 159.7 146.83C159.748 146.785 159.804 146.749 159.866 146.726C159.928 146.702 159.993 146.691 160.059 146.693C160.125 146.695 160.19 146.71 160.25 146.737C160.31 146.764 160.365 146.802 160.41 146.85C161.52 148.02 163.26 149.18 165.22 148.03C165.335 147.963 165.471 147.943 165.599 147.975C165.728 148.007 165.84 148.087 165.91 148.2C165.976 148.316 165.994 148.453 165.961 148.582C165.927 148.711 165.844 148.821 165.73 148.89C165.081 149.297 164.335 149.521 163.57 149.54V149.54Z" fill="#263238"/>
<path d="M180.97 165.45C179.562 166.53 177.951 167.318 176.234 167.766C174.516 168.214 172.727 168.314 170.97 168.06C170.851 168.047 170.741 167.99 170.663 167.898C170.584 167.807 170.544 167.69 170.55 167.57C170.553 167.514 170.566 167.458 170.59 167.407C170.614 167.356 170.648 167.31 170.69 167.272C170.732 167.234 170.781 167.204 170.834 167.185C170.887 167.166 170.943 167.157 171 167.16V167.16C172.915 167.43 174.867 167.257 176.705 166.654C178.543 166.051 180.218 165.033 181.6 163.68C181.682 163.601 181.791 163.557 181.905 163.557C182.019 163.557 182.128 163.601 182.21 163.68V163.68C182.289 163.768 182.332 163.882 182.332 164C182.332 164.118 182.289 164.232 182.21 164.32C181.837 164.727 181.423 165.103 180.97 165.45Z" fill="#263238"/>
<path d="M201.24 177.78C203.548 177.348 205.727 176.394 207.61 174.99C207.61 177.52 209.31 181.86 209.31 181.86C217.36 179.21 223.99 163.1 224.88 157.76C229.36 166.08 228.97 161.3 229.32 157.76C229.82 152.67 229.94 147.4 228.21 142.6C226.48 137.8 222.51 133.51 217.47 132.68C216.532 132.592 215.587 132.756 214.734 133.157C213.88 133.558 213.151 134.181 212.62 134.96C211.758 136.508 211.195 138.204 210.96 139.96C208.62 152.57 208.72 167.32 201.24 177.78Z" fill="#263238"/>
<path d="M212.66 148.78C206.5 148.91 202.73 156.68 202.08 162C201.31 167.91 205.29 172.78 211 170.16C213.129 169.172 215.039 167.768 216.619 166.032C218.199 164.296 219.416 162.263 220.2 160.05C222.1 154.58 218.82 148.67 212.66 148.78Z" fill="#FFB573"/>
<path opacity="0.2" d="M229.75 246.91C229.75 246.91 222.27 280.76 227.46 301.19C232.65 321.62 243.01 331.92 243.01 331.92L244.86 246.92L229.75 246.91Z" fill="black"/>
<path opacity="0.2" d="M243.01 331.92C241.539 332.271 240.003 332.237 238.55 331.82C238.27 335.13 238 338.66 237.76 342.43C231.81 345.62 205.28 336.25 182.01 326.9C176.88 324.84 171.91 322.77 167.36 320.84C165.74 320.17 164.19 319.5 162.7 318.84C159.61 317.52 156.79 316.29 154.33 315.21C152.33 314.34 150.57 313.56 149.11 312.9C146.06 311.55 144.31 310.75 144.31 310.75L149.04 311.06L186.39 313.48L196.04 314.11L197.98 314.22L209.93 314.99L218.09 315.51H218.51L226.43 316.02L232.88 316.43L240.08 316.89L242.97 317.08C242.97 317.08 243.13 319.08 243.18 322.43V322.55C243.25 325.04 243.22 328.23 243.01 331.92Z" fill="black"/>
<path d="M258.39 277.53C256.91 293.17 254.73 308.62 252.93 318.76C251.68 325.82 247.69 330.76 243.01 331.94C241.539 332.291 240.003 332.257 238.55 331.84C238.33 331.78 238.12 331.71 237.9 331.63L202.1 322.4L201.79 322.31L197.96 321.31L198.02 314.21V313.64V310.83L198.1 301.96L202.94 302.22L226.59 303.48C227.069 303.614 227.572 303.635 228.06 303.54C230.11 303.15 231.81 300.75 232.06 297.59L232.52 290.73L233.52 275.6L235.45 246.89L237.22 220.31C237.416 217.442 237.868 214.598 238.57 211.81V211.81C241.578 211.938 244.515 212.763 247.15 214.22C252.72 217.22 258.77 223.59 259.75 236.65C260.57 247.49 259.81 262.59 258.39 277.53Z" fill="#FFB573"/>
<path d="M215.44 324.97L162.9 314.83C161.468 314.379 159.949 314.28 158.47 314.54L143.67 317.08C142.081 317.356 140.447 317.219 138.926 316.683C137.404 316.148 136.046 315.231 134.98 314.02L127.98 306.08C127.136 305.126 126.493 304.012 126.09 302.803C125.686 301.595 125.531 300.318 125.633 299.048C125.734 297.778 126.091 296.542 126.682 295.414C127.272 294.285 128.085 293.287 129.07 292.48L131.58 290.42C133.21 289.08 135.242 288.325 137.352 288.274C139.461 288.224 141.527 288.88 143.22 290.14V290.14C144.93 291.412 147.02 292.068 149.15 292H150.02C151.997 291.939 153.943 292.499 155.585 293.602C157.226 294.706 158.48 296.296 159.17 298.15L159.99 300.34L202.82 301.98L215.44 324.97Z" fill="#FFB573"/>
<path opacity="0.1" d="M152.46 301.59C154.97 301.1 157.46 300.7 159.98 300.29L159.17 298.13C158.48 296.276 157.226 294.686 155.585 293.582C153.943 292.479 151.997 291.919 150.02 291.98H149.15C147.02 292.048 144.93 291.392 143.22 290.12C141.527 288.86 139.461 288.204 137.352 288.254C135.242 288.305 133.21 289.06 131.58 290.4L129.07 292.46C127.446 293.794 126.311 295.63 125.844 297.679C125.377 299.728 125.604 301.874 126.49 303.78C131.28 304.23 148.47 302.37 152.46 301.59Z" fill="black"/>
<path opacity="0.2" d="M231.91 314.2C230.147 314.948 228.333 315.566 226.48 316.05V316.05C222.99 317.05 218.18 318.31 212.57 319.71C209.23 320.54 205.57 321.41 201.81 322.31C195.53 323.81 188.81 325.38 182.07 326.91C164.48 330.91 147.07 334.74 138.99 336.51C139.22 333.28 139.45 330.12 139.64 327C138.23 327.21 136.91 327.34 135.64 327.4V327.16L135.95 324.95L139.75 324.09L149.42 321.89L162.69 318.89L172.41 316.68L186.41 313.49L198.03 310.85L206.6 308.9L213.04 307.44C213.04 307.44 224.77 308.66 230.41 310.63C233.39 311.63 234.64 312.84 231.91 314.2Z" fill="black"/>
<path d="M121.55 299.88L202.18 298.39C203.673 298.263 205.115 297.787 206.39 297L219.17 289.09C220.54 288.239 222.105 287.754 223.715 287.68C225.326 287.607 226.929 287.948 228.37 288.67L237.83 293.4C238.966 293.97 239.976 294.762 240.8 295.73C241.624 296.698 242.245 297.822 242.627 299.034C243.008 300.247 243.142 301.524 243.021 302.789C242.899 304.054 242.525 305.282 241.92 306.4L240.39 309.28C239.379 311.132 237.777 312.593 235.84 313.43C233.903 314.267 231.742 314.432 229.7 313.9C227.64 313.36 214.7 315.47 211.92 312.48L210.32 310.78L146.17 325.88C141.622 326.952 136.947 327.379 132.28 327.15V327.15L121.55 299.88Z" fill="#FFB573"/>
<path d="M279.79 272.96C277.596 274.538 275.067 275.589 272.4 276.03C255.02 278.91 244.01 277.45 230 275.03C227.53 251.78 228.15 233.78 232.61 220.78C234.1 216.46 238.36 210.17 242.92 210.36C262.29 211.17 265.59 230.65 267.8 239.64C270.545 251.158 274.567 262.334 279.79 272.96V272.96Z" fill="#407BFF"/>
<path opacity="0.6" d="M279.79 272.96C277.596 274.538 275.067 275.589 272.4 276.03C255.02 278.91 244.01 277.45 230 275.03C227.53 251.78 228.15 233.78 232.61 220.78C234.1 216.46 238.36 210.17 242.92 210.36C262.29 211.17 265.59 230.65 267.8 239.64C270.545 251.158 274.567 262.334 279.79 272.96V272.96Z" fill="black"/>
<path d="M197 139.56C199.39 133.4 202.89 130.31 200.82 130.73C195.22 131.88 191.54 127.03 187.53 130.06C185.62 132.49 188.14 136.74 188.23 136.5C186.23 137.59 183.58 136.93 181.81 135.5C180.04 134.07 179.32 131.38 178.38 129.28C177.866 131.652 178.035 134.121 178.87 136.4C177.44 137.67 174.28 135.55 172.87 134.31C171.413 132.854 170.299 131.091 169.61 129.15C169.19 131.27 168.86 133.44 170.47 135.9C168.36 136.11 165.57 135.58 164.11 134.04C163.345 133.237 162.763 132.277 162.404 131.228C162.045 130.178 161.918 129.063 162.03 127.96C161.6 129.06 161.73 133.51 162.71 134.17C159.03 133.17 155.5 128.71 155.51 124.89C155.592 122.976 156.132 121.109 157.083 119.445C158.035 117.782 159.371 116.371 160.98 115.33C162.54 114.33 164.3 113.55 165.98 112.63C168.52 111.22 184.49 97.91 209.42 111.1C224.9 119.28 222.77 137.1 221.06 139.1C218.94 141.57 215.47 142.53 212.22 142.35C208.97 142.17 196.39 141.19 197 139.56Z" fill="#263238"/>
<path d="M200.32 130.68C198.703 132.419 197.495 134.499 196.786 136.765C196.076 139.032 195.883 141.429 196.22 143.78C196.93 148.46 203.57 156.08 203.22 155.61C202.955 155.118 202.86 154.552 202.95 154C203.101 151.883 203.64 149.812 204.54 147.89C205.1 150.51 205.95 155.89 208.63 155.96C209.69 154.03 210.99 152.27 210.81 150.07C211.43 152.32 211.99 154.58 212.61 156.83C215.248 155.117 217.345 152.689 218.655 149.83C219.966 146.97 220.436 143.797 220.01 140.68C219.772 139.23 219.252 137.84 218.48 136.59C217.515 135.22 216.348 134.003 215.02 132.98C211.64 130.11 207.16 127.25 203.02 128.98C202.5 129.21 200.16 130.06 200.32 130.68Z" fill="#263238"/>
<path d="M183.66 145.88C183.66 147.44 182.83 148.69 181.83 148.72C180.83 148.75 180.01 147.51 179.93 145.91C179.85 144.31 180.76 143.1 181.77 143.08C182.78 143.06 183.67 144.34 183.66 145.88Z" fill="#263238"/>
<path d="M29.7 290.19C30.1847 287.935 30.5187 285.65 30.7 283.35C31.7 275.62 36.24 269.64 42.01 268.47L46.18 267.61C46.18 267.61 39.64 267.61 36.91 265.7C31.13 261.7 29.8 249.7 29.8 249.7C29.8 249.7 28.18 261.7 22.39 265.7C19.66 267.61 13.12 267.61 13.12 267.61L17.29 268.47C23.07 269.64 27.65 275.62 28.61 283.35C28.824 285.651 29.1881 287.936 29.7 290.19V290.19Z" fill="#407BFF"/>
<g opacity="0.7">
<path d="M29.7 290.19C30.1847 287.935 30.5187 285.65 30.7 283.35C31.7 275.62 36.24 269.64 42.01 268.47L46.18 267.61C46.18 267.61 39.64 267.61 36.91 265.7C31.13 261.7 29.8 249.7 29.8 249.7C29.8 249.7 28.18 261.7 22.39 265.7C19.66 267.61 13.12 267.61 13.12 267.61L17.29 268.47C23.07 269.64 27.65 275.62 28.61 283.35C28.824 285.651 29.1881 287.936 29.7 290.19V290.19Z" fill="white"/>
</g>
<path d="M315.39 203.49C315.822 201.546 316.123 199.575 316.29 197.59C317.12 190.93 321.07 185.78 326.05 184.76L329.64 184.03C329.64 184.03 324 184.03 321.64 182.38C316.64 178.89 315.51 168.58 315.51 168.58C315.51 168.58 314.11 178.89 309.13 182.38C306.78 184.03 301.13 184.03 301.13 184.03L304.73 184.76C309.73 185.76 313.66 190.93 314.48 197.59C314.656 199.574 314.96 201.545 315.39 203.49Z" fill="#407BFF"/>
<g opacity="0.7">
<path d="M315.39 203.49C315.822 201.546 316.123 199.575 316.29 197.59C317.12 190.93 321.07 185.78 326.05 184.76L329.64 184.03C329.64 184.03 324 184.03 321.64 182.38C316.64 178.89 315.51 168.58 315.51 168.58C315.51 168.58 314.11 178.89 309.13 182.38C306.78 184.03 301.13 184.03 301.13 184.03L304.73 184.76C309.73 185.76 313.66 190.93 314.48 197.59C314.656 199.574 314.96 201.545 315.39 203.49Z" fill="white"/>
</g>
<path d="M115.03 97.44C115.23 97.36 115.77 93.44 116.35 88.78C117.56 78.99 123.35 71.42 130.68 69.93L135.96 68.85C135.96 68.85 127.67 68.85 124.22 66.43C116.89 61.31 115.22 46.17 115.22 46.17C115.22 46.17 113.22 61.31 105.85 66.43C102.39 68.85 94.11 68.85 94.11 68.85L99.39 69.93C106.7 71.42 112.5 78.99 113.71 88.78C114.29 93.48 114.82 97.36 115.03 97.44Z" fill="#407BFF"/>
<g opacity="0.7">
<path d="M115.03 97.44C115.23 97.36 115.77 93.44 116.35 88.78C117.56 78.99 123.35 71.42 130.68 69.93L135.96 68.85C135.96 68.85 127.67 68.85 124.22 66.43C116.89 61.31 115.22 46.17 115.22 46.17C115.22 46.17 113.22 61.31 105.85 66.43C102.39 68.85 94.11 68.85 94.11 68.85L99.39 69.93C106.7 71.42 112.5 78.99 113.71 88.78C114.29 93.48 114.82 97.36 115.03 97.44Z" fill="white"/>
</g>
<path d="M344.73 314.1C344.94 314.02 345.48 310.1 346.06 305.44C347.27 295.65 353.06 288.08 360.39 286.59L365.67 285.51C365.67 285.51 357.38 285.51 353.92 283.09C346.6 277.96 344.92 262.82 344.92 262.82C344.92 262.82 342.92 277.96 335.54 283.09C332.09 285.51 323.8 285.51 323.8 285.51L329.08 286.59C336.4 288.08 342.2 295.65 343.41 305.44C343.99 310.14 344.53 314.02 344.73 314.1Z" fill="#407BFF"/>
<g opacity="0.7">
<path d="M344.73 314.1C344.94 314.02 345.48 310.1 346.06 305.44C347.27 295.65 353.06 288.08 360.39 286.59L365.67 285.51C365.67 285.51 357.38 285.51 353.92 283.09C346.6 277.96 344.92 262.82 344.92 262.82C344.92 262.82 342.92 277.96 335.54 283.09C332.09 285.51 323.8 285.51 323.8 285.51L329.08 286.59C336.4 288.08 342.2 295.65 343.41 305.44C343.99 310.14 344.53 314.02 344.73 314.1Z" fill="white"/>
</g>
<path d="M260.55 99.78C260.87 98.3365 261.094 96.8732 261.22 95.4C261.83 90.46 264.76 86.63 268.46 85.87L271.13 85.33C271.13 85.33 266.94 85.33 265.2 84.11C261.49 81.52 260.64 73.86 260.64 73.86C260.64 73.86 259.64 81.52 255.91 84.11C254.16 85.33 249.97 85.33 249.97 85.33L252.64 85.87C256.34 86.63 259.27 90.46 259.88 95.4C260.012 96.8725 260.235 98.3354 260.55 99.78Z" fill="#407BFF"/>
<g opacity="0.7">
<path d="M260.55 99.78C260.87 98.3365 261.094 96.8732 261.22 95.4C261.83 90.46 264.76 86.63 268.46 85.87L271.13 85.33C271.13 85.33 266.94 85.33 265.2 84.11C261.49 81.52 260.64 73.86 260.64 73.86C260.64 73.86 259.64 81.52 255.91 84.11C254.16 85.33 249.97 85.33 249.97 85.33L252.64 85.87C256.34 86.63 259.27 90.46 259.88 95.4C260.012 96.8725 260.235 98.3354 260.55 99.78Z" fill="white"/>
</g>
<path d="M31.55 161.31C31.8761 159.868 32.1 158.404 32.22 156.93C32.83 151.99 35.77 148.16 39.46 147.4L42.13 146.86C42.13 146.86 37.94 146.86 36.2 145.64C32.5 143.05 31.65 135.4 31.65 135.4C31.65 135.4 30.65 143.05 26.91 145.64C25.16 146.86 20.97 146.86 20.97 146.86L23.64 147.4C27.34 148.16 30.27 151.99 30.88 156.93C31.0115 158.403 31.2353 159.865 31.55 161.31V161.31Z" fill="#407BFF"/>
<g opacity="0.7">
<path d="M31.55 161.31C31.8761 159.868 32.1 158.404 32.22 156.93C32.83 151.99 35.77 148.16 39.46 147.4L42.13 146.86C42.13 146.86 37.94 146.86 36.2 145.64C32.5 143.05 31.65 135.4 31.65 135.4C31.65 135.4 30.65 143.05 26.91 145.64C25.16 146.86 20.97 146.86 20.97 146.86L23.64 147.4C27.34 148.16 30.27 151.99 30.88 156.93C31.0115 158.403 31.2353 159.865 31.55 161.31V161.31Z" fill="white"/>
</g>
</g>
<defs>
<clipPath id="clip0_20_827">
<rect width="397.05" height="354.78" fill="white"/>
</clipPath>
</defs>
</svg>
