<svg width="597" height="445" viewBox="0 0 597 445" fill="none" xmlns="http://www.w3.org/2000/svg">
<g clip-path="url(#clip0_14_264)">
<path d="M595.052 244.372C596.237 226.845 597.934 209.306 596.368 191.779C594.513 171.163 589.578 150.336 580.077 131.85C571.271 115.072 558.651 100.589 543.231 89.5654C527.624 78.2053 509.819 70.2638 491.344 64.8205C471.605 59.009 451.234 55.9455 430.811 53.3816C388.701 43.0471 341.603 34.3562 293.651 17.3161C269.043 8.5726 246.804 3.61574 226.538 2.26148C223.156 1.78815 219.774 1.43314 216.458 1.11759C206.614 0.175662 196.722 -0.16244 186.836 0.10518C172.269 0.53907 158.267 5.36445 145.187 11.4389C133.408 16.8813 122.316 23.7002 112.144 31.7528C101.84 39.9592 92.7993 49.6345 85.312 60.4684C77.9111 71.4985 71.7795 83.3278 67.0337 95.7318C62.1417 108.454 57.9335 121.427 54.427 134.598C50.4792 148.877 46.7683 163.248 43.189 177.632C40.4167 188.746 37.7015 199.87 35.0433 211.002C31.9465 220.749 28.876 230.79 25.8318 241.124C20.4673 258.89 16.2217 276.973 13.1199 295.269C7.9614 308.417 1.86862 321.447 0.328981 335.686C-0.253546 341.513 0.00348525 347.393 1.09222 353.147C1.78916 356.964 2.77903 360.723 4.05308 364.389C5.66229 369.024 7.69752 373.5 10.1327 377.76C13.07 382.853 16.5321 387.626 20.4628 392C25.1458 397.185 30.3838 401.841 36.0829 405.884C42.9574 410.754 50.3176 414.9 58.0459 418.257C67.5829 422.378 77.4699 425.639 87.5886 427.999C99.4386 430.758 111.47 432.67 123.593 433.719C167.637 440.582 224.393 442.462 293.703 444.053C352.17 445.368 400.86 445.697 440.851 442.239C453.287 442.489 465.736 442.239 478.132 441.489C497.463 440.28 517.123 437.243 534.717 428.946C543.519 424.873 551.561 419.328 558.496 412.55C565.991 404.968 572.082 396.118 576.485 386.412C584.38 369.608 587.999 351.398 590.315 333.07C595.026 308.89 596.46 279.662 595.052 244.372ZM53.2295 146.707C56.6773 133.743 60.3093 120.792 64.6124 108.104C68.842 95.3428 74.2841 83.015 80.8642 71.2894C87.3498 59.9455 95.473 49.6185 104.972 40.641C114.488 31.7835 125.102 24.1831 136.555 18.0261C148.727 11.4521 161.794 5.79834 175.493 3.30019C184.823 1.60407 194.535 1.775 204.036 2.24833C127.093 8.08612 81.7722 73.6955 42.9916 186.796C46.2946 173.398 49.6765 160.04 53.2295 146.707ZM2.53975 349.597C2.53975 349.518 2.53975 349.478 2.53975 349.597V349.597ZM65.1914 419.032C57.0241 415.929 49.1899 412.013 41.8072 407.344C35.737 403.5 30.1102 398.998 25.0291 393.919C20.8074 389.697 17.0529 385.034 13.8305 380.009C11.1494 375.806 8.87146 371.36 7.02709 366.729C5.54011 362.928 4.35646 359.015 3.48722 355.027C3.14508 353.423 2.85557 351.819 2.61871 350.188L2.53975 349.676V349.61V349.334C2.53975 348.992 2.44764 348.65 2.42132 348.308C2.34236 347.642 2.27656 346.972 2.22393 346.297C1.02643 331.544 6.35596 317.371 11.8171 303.973L11.896 303.775C2.84241 373.369 26.595 407.344 82.5222 424.62C76.6511 423.063 70.8662 421.198 65.1914 419.032V419.032ZM482.882 64.6101C501.713 69.4486 519.965 76.5487 536.283 87.2644C551.951 97.2519 565.137 110.674 574.84 126.512C585.367 144.262 590.96 164.641 593.592 185.021C595.434 199.247 595 213.474 594.131 227.7C585.064 111.483 526.65 78.9548 447.852 57.7336C459.641 59.4132 471.334 61.7085 482.882 64.6101V64.6101ZM577.629 378.536C573.861 388.525 568.472 397.827 561.68 406.068C555.391 413.462 547.811 419.654 539.309 424.344C522.347 433.745 502.805 437.492 483.659 439.057C475.671 439.714 467.644 440.096 459.603 440.253C527.4 431.602 566.865 408.987 584.485 355.908C582.814 363.617 580.54 371.183 577.682 378.536H577.629Z" fill="#EAF2FF"/>
<path d="M593.605 310.678C591.562 304.166 587.549 298.447 582.117 294.309C573.445 288.037 562.009 287.288 551.692 288.221C525.097 290.64 500.095 303.605 476.381 314.951C465.433 320.211 454.471 325.68 442.943 329.52C426.534 334.989 410.361 341.563 393.491 345.56C376.62 349.557 359.961 349.728 343.419 344.246C328.443 339.133 314.464 331.473 302.099 321.604C276.491 301.448 258.239 274.021 243.645 245.24C236.302 230.777 230.131 215.762 223.13 201.128C216.905 188.045 209.26 175.16 197.693 166.127C186.534 157.384 172.69 153.176 158.728 151.888C144.34 150.532 129.824 151.784 115.881 155.582C90.9837 162.577 69.8235 179.249 52.361 197.841C44.7693 205.959 37.6725 214.525 31.1087 223.493C30.4902 225.504 29.8848 227.529 29.2664 229.567C32.9115 224.426 36.6882 219.377 40.636 214.473C57.0194 194.067 76.5874 174.95 100.458 163.576C112.421 158.019 125.312 154.729 138.476 153.873C153.675 152.69 169.611 153.873 183.691 160.105C212.392 172.846 222.222 204.743 234.486 231C247.896 259.729 263.7 287.906 286.4 310.402C296.811 320.831 308.639 329.745 321.535 336.883C334.445 343.917 348.815 349.452 363.579 350.504C379.976 351.674 396.149 347.533 411.598 342.457C419.625 339.828 427.547 336.896 435.535 334.148C441.562 332.07 447.602 330.138 453.497 327.679C477.724 317.568 500.555 304.288 525.584 296.123C544.481 289.93 574.497 283.08 587.749 303.171C590.207 306.992 591.988 311.209 593.013 315.635C593.263 313.978 593.434 312.335 593.605 310.678Z" fill="white"/>
<path d="M347.486 33.6067L341.919 32.121C319.819 34.2524 297.883 37.8365 276.254 42.8499C265.339 45.3758 254.586 48.5547 244.053 52.3692C234.97 55.5762 226.26 59.7553 218.077 64.8336C207.865 71.4077 200.259 80.9007 191.653 89.3287C180.52 100.268 166.65 110.366 150.359 110.366C143.005 110.308 135.791 108.346 129.422 104.673C123.777 101.451 118.224 96.8757 115.197 91.0117C112.63 85.6329 111.018 79.8493 110.433 73.919C109.662 67.7669 109.441 61.5582 109.775 55.3669C109.775 54.7621 109.775 54.1573 109.881 53.5656C109.117 54.4729 108.367 55.3932 107.617 56.3268C107.109 65.2768 107.925 74.2528 110.038 82.965C111.217 88.434 113.736 93.5254 117.368 97.783C122.213 103.045 128.225 107.098 134.923 109.616C141.747 112.245 149.132 113.083 156.373 112.049C164.045 110.76 171.348 107.831 177.783 103.463C184.516 98.8393 190.728 93.5007 196.311 87.5405C201.364 82.3733 206.141 76.8379 211.629 72.1177C218.419 66.2799 226.499 61.9805 234.657 58.3647C244.734 54.0098 255.124 50.419 265.74 47.6227C289.544 41.3254 313.812 36.9288 338.314 34.4745C341.367 34.194 344.424 33.9047 347.486 33.6067Z" fill="white"/>
<path d="M264.648 172.202C264.648 172.202 251.923 168.836 253.186 160.21C253.396 158.896 246.606 148.259 246.606 148.259C246.606 148.259 250.554 138.858 253.791 137.241C255.883 136.176 268.345 146.536 268.345 146.536C268.345 146.536 271.24 168.047 271.175 168.099C271.109 168.152 264.648 172.202 264.648 172.202Z" fill="#EA8577"/>
<path d="M259.805 136.596L256.41 132.613L254.686 136.32L256.87 139.923L259.805 136.596Z" fill="#EA8577"/>
<path d="M306.047 210.174C305.442 201.864 306.915 194.987 309.324 194.803C311.732 194.619 314.193 201.233 314.798 209.542C315.403 217.852 313.811 224.794 311.39 224.978C308.968 225.162 306.652 218.549 306.047 210.174Z" fill="#6F3D47"/>
<path d="M254.486 167.719L246.126 162.33C244.859 161.513 243.969 160.227 243.651 158.754C243.333 157.282 243.614 155.743 244.431 154.477L259.528 131.099C260.317 129.878 261.559 129.019 262.982 128.712C264.405 128.406 265.891 128.676 267.114 129.465L275.805 135.068C277.028 135.856 277.887 137.097 278.194 138.519C278.501 139.94 278.23 141.425 277.441 142.647L262.345 166.025C261.527 167.291 260.24 168.181 258.766 168.498C257.293 168.816 255.753 168.535 254.486 167.719V167.719Z" fill="#503C6B"/>
<path d="M260.325 168.389L243.152 157.319L260.068 131.124C260.766 130.042 261.866 129.283 263.124 129.011C264.383 128.74 265.699 128.98 266.781 129.677L275.793 135.487C276.875 136.184 277.635 137.283 277.907 138.541C278.178 139.799 277.938 141.113 277.24 142.194L260.325 168.389Z" fill="white"/>
<path d="M261.292 168.665C261.292 168.665 261.16 162.288 263.753 158.567C265.494 156.184 267.707 154.184 270.253 152.69C270.253 152.69 272.359 146.024 273.82 144.288C275.28 142.553 276.899 142.29 277.333 142.908C277.767 143.525 276.017 144.959 276.017 146.26C276.082 147.594 275.913 148.929 275.517 150.205C274.951 152.019 275.517 155.254 274.122 159.408C272.727 163.563 271.425 165.68 269.74 166.942C268.056 168.205 262.45 172.254 261.292 168.665Z" fill="#F8A68B"/>
<path d="M254.304 142.631C253.363 144.092 252.876 145.799 252.905 147.536C252.934 149.273 253.478 150.962 254.469 152.39C255.459 153.818 256.851 154.921 258.468 155.558C260.086 156.196 261.856 156.34 263.556 155.972C265.255 155.604 266.807 154.741 268.015 153.491C269.224 152.242 270.034 150.663 270.344 148.953C270.654 147.244 270.449 145.481 269.756 143.887C269.063 142.294 267.913 140.942 266.45 140.002C265.48 139.376 264.397 138.948 263.261 138.742C262.125 138.535 260.96 138.555 259.831 138.799C258.703 139.043 257.634 139.507 256.686 140.165C255.737 140.823 254.928 141.661 254.304 142.631V142.631Z" fill="#FFC339"/>
<path d="M259.209 150.631L259.85 151.045C260.815 151.667 262.102 151.39 262.724 150.426L265.45 146.206C266.073 145.242 265.796 143.956 264.831 143.334L264.19 142.92C263.225 142.298 261.938 142.575 261.315 143.539L258.589 147.759C257.967 148.723 258.244 150.009 259.209 150.631Z" fill="#503C6B"/>
<path d="M260.91 152.94C261.23 152.934 261.548 152.89 261.858 152.808C263.366 152.237 264.611 151.133 265.358 149.705C265.383 149.657 265.398 149.604 265.402 149.55C265.406 149.496 265.399 149.442 265.382 149.39C265.365 149.339 265.338 149.291 265.302 149.251C265.266 149.21 265.223 149.177 265.174 149.153C265.078 149.107 264.967 149.101 264.867 149.135C264.766 149.169 264.683 149.242 264.634 149.337C263.978 150.537 262.921 151.467 261.647 151.967C261.196 152.071 260.727 152.077 260.272 151.984C259.818 151.891 259.389 151.701 259.015 151.427C258.609 151.202 258.258 150.889 257.987 150.512C257.717 150.134 257.533 149.702 257.449 149.245C257.423 147.87 257.89 146.532 258.765 145.471C258.803 145.435 258.833 145.391 258.854 145.342C258.874 145.294 258.885 145.241 258.885 145.189C258.885 145.136 258.874 145.084 258.854 145.035C258.833 144.987 258.803 144.943 258.765 144.906C258.687 144.832 258.584 144.791 258.476 144.791C258.368 144.791 258.265 144.832 258.186 144.906C257.158 146.137 256.632 147.709 256.713 149.311C256.811 149.882 257.034 150.424 257.366 150.899C257.699 151.374 258.131 151.77 258.634 152.059C259.295 152.561 260.084 152.866 260.91 152.94V152.94Z" fill="#503C6B"/>
<path d="M256.923 154.767L257.278 154.977L259.015 152.282C259.075 152.191 259.096 152.081 259.073 151.975C259.051 151.869 258.988 151.776 258.897 151.717C258.806 151.657 258.696 151.637 258.589 151.659C258.483 151.681 258.39 151.744 258.331 151.835L256.594 154.53C256.698 154.617 256.808 154.696 256.923 154.767Z" fill="#503C6B"/>
<path d="M312.705 193.778L284.663 201.995C284.663 201.995 271.99 164.155 271.359 158.462C271.056 155.661 264.45 168.98 261.292 168.665C261.292 168.665 267.122 223.887 272.372 224.4C277.623 224.913 314.021 219.864 318.43 216.629C322.838 213.395 312.705 193.778 312.705 193.778Z" fill="#F8A68B"/>
<path d="M308.021 219.719C311.218 210.752 311.429 202.39 308.995 194.869L311.034 194.264C312.009 194.82 312.751 195.706 313.127 196.762L318.232 216.721C316.653 217.773 314.048 218.549 308.021 219.719Z" fill="#EA8577"/>
<path d="M344.354 184.18L309.021 194.882C313.061 198.498 315.601 221.179 311.653 224.992L338.261 214.946L344.354 184.18Z" fill="white"/>
<path d="M156.557 267.329L125.54 285.96C122.342 293.441 122.908 299.108 130.528 301.067L163.136 288.234L156.557 267.329Z" fill="#F8A68B"/>
<path d="M148.582 272.115L150.977 292.981L162.149 288.576L148.582 272.115Z" fill="#EA8577"/>
<path d="M172.019 330.69L159.754 350.412C159.057 361.956 160.347 363.415 171.164 359.839L194.311 336.672L172.019 330.69Z" fill="#F8A68B"/>
<path d="M166.597 339.394L180.125 350.846L173.045 361.364C173.045 361.364 179.625 372.79 168.558 376.932C165.926 377.918 158.031 376.196 151.793 376.932C144.648 377.786 138.857 381.008 132.133 380.087C119.539 378.352 112.92 376.025 112.131 370.568C111.341 365.112 122.842 368.188 131.58 365.033C143.424 360.76 155.267 351.648 157.438 349.965C161.307 347.046 166.597 339.394 166.597 339.394Z" fill="white"/>
<path d="M313.324 210.252L326.668 204.835L329.01 217.379L324.009 220.271L311.534 224.978C313.521 223.098 313.916 216.708 313.324 210.252Z" fill="#CBE3FF"/>
<path d="M170.321 333.438L183.533 347.322L186.81 344.101L170.321 333.438Z" fill="#EA8577"/>
<path d="M139.081 277.821C140.621 283.172 141.91 289.023 143.7 295.86L133.265 301.304C133.265 301.304 126.988 314.031 117.868 311.138C108.749 308.246 112.144 301.737 109.591 290.943C107.762 283.199 105.196 274.718 105.827 267.118C106.643 257.047 113.368 248.132 118.671 249.921C123.974 251.709 121.079 259.9 121.908 268.328C122.6 273.983 125.07 279.272 128.962 283.435L139.081 277.821Z" fill="white"/>
<path d="M365.211 160.552L371.028 180.866C371.028 180.866 347.341 208.175 338.577 204.967C329.813 201.759 352.144 181.589 352.144 181.589L347.762 169.138C347.762 169.138 356.947 156.989 365.211 160.552Z" fill="#F8A68B"/>
<path d="M351.315 179.328L349.315 173.582C355.079 170.045 366.777 167.205 366.777 167.205C366.777 167.205 361.356 178.644 351.315 179.328Z" fill="#EA8577"/>
<path d="M354.171 286.459C354.171 286.459 357.355 275.941 370.146 253.273C382.937 230.606 398.254 211.975 394.425 200.996C390.596 190.017 371.028 180.866 371.028 180.866C371.028 180.866 359.948 192.437 352.605 190.662C345.262 188.887 352.197 181.589 352.197 181.589C352.197 181.589 343.538 182.904 333.55 190.254C331.708 191.569 329.049 193.357 328.734 194.751C328.418 196.145 326.102 203.008 324.628 204.835C319.127 211.41 316.009 215.262 314.403 219.561C313.087 227.095 314.679 231.106 313.587 235.339C311.745 242.544 295.717 263.792 295.717 263.792L354.171 286.459Z" fill="white"/>
<path d="M364.29 165.128C364.29 165.128 358.697 176.501 348.828 176.79C338.958 177.08 336.353 174.818 335.8 172.846C335.247 170.874 340.301 161.105 340.301 161.105C340.301 161.105 336.274 159.159 336.419 157.686C336.498 156.818 345.696 147.496 345.696 147.496L349.841 139.305C349.841 139.305 353.552 131.179 365.198 139.305C376.844 147.431 364.29 165.128 364.29 165.128Z" fill="#F8A68B"/>
<path d="M390.017 219.732L371.001 244.148L364.172 242.82L332.655 262.135L367.277 268.078L392.635 233.512L390.017 219.732Z" fill="#CBE3FF"/>
<path d="M370.686 244.543C370.72 244.544 370.755 244.538 370.786 244.524C370.818 244.51 370.847 244.49 370.87 244.464L382.568 229.331C382.585 229.31 382.597 229.286 382.604 229.261C382.611 229.235 382.614 229.209 382.611 229.182C382.608 229.156 382.599 229.131 382.586 229.108C382.574 229.085 382.556 229.064 382.536 229.048C382.515 229.031 382.491 229.019 382.466 229.012C382.44 229.005 382.414 229.003 382.387 229.006C382.361 229.009 382.336 229.017 382.312 229.03C382.289 229.043 382.269 229.06 382.253 229.081L370.541 244.214C370.504 244.253 370.483 244.305 370.483 244.359C370.483 244.413 370.504 244.464 370.541 244.504L370.686 244.543Z" fill="#779FFF"/>
<path d="M359.684 235.747C355.894 229.383 354.513 223.23 356.592 221.981C358.671 220.732 363.435 224.9 367.225 231.263C371.015 237.627 372.396 243.793 370.317 245.029C368.238 246.265 363.474 242.11 359.684 235.747Z" fill="#6F3D47"/>
<path d="M362.974 157.568C362.974 157.568 351.42 157.213 349.315 150.56C349.063 150.101 348.777 149.661 348.459 149.245C348.459 149.245 349.973 147.207 348.749 146.352C348.776 145.379 349.028 144.426 349.485 143.566C349.941 142.707 350.59 141.964 351.381 141.396L367.383 149.876L362.974 157.568Z" fill="#EA8577"/>
<path d="M322.285 233.669C319.563 234.681 316.588 234.792 313.798 233.985C314.219 230.79 313.679 226.753 313.956 221.981C314.859 223.522 315.996 224.914 317.324 226.109C321.535 229.751 325.181 232.433 322.285 233.669Z" fill="#CBE3FF"/>
<path d="M360.079 215.919C351.289 225.018 343.604 224.111 339.88 232.591C336.155 241.072 338.445 248.671 323.325 249.999C325.562 250.696 332.616 242.834 341.748 235.05C348.323 229.134 354.45 222.74 360.079 215.919V215.919Z" fill="#CBE3FF"/>
<path d="M361.106 266.132C344.854 260.11 324.812 254.733 304.77 254.575L292.216 274.665L331.26 289.404L361.106 266.132Z" fill="#4A76D1"/>
<path d="M352.802 160.105C352.499 161.183 353.71 162.459 355.526 162.972C357.342 163.484 359.04 162.972 359.342 161.933C359.645 160.894 358.421 159.566 356.618 159.053C354.815 158.541 353.105 159.014 352.802 160.105Z" fill="#EA8577"/>
<path d="M347.183 147.772L346.657 152.203C346.657 152.203 348.854 154.53 350.815 154.833C352.776 155.135 353.763 155.096 353.763 155.096L353.868 151.322L347.183 147.772Z" fill="#EA8577"/>
<path d="M342.064 167.626C341.985 168.034 342.761 168.546 343.801 168.757C344.841 168.967 345.749 168.757 345.841 168.389C345.933 168.021 345.064 167.85 344.025 167.639C342.985 167.429 342.156 167.271 342.064 167.626Z" fill="#EA8577"/>
<path d="M336.445 157.673C336.195 158.028 337.037 159.053 338.34 159.947C339.643 160.842 340.893 161.262 341.143 160.934C341.393 160.605 340.459 159.934 339.169 159.027C337.879 158.12 336.656 157.318 336.445 157.673Z" fill="#EA8577"/>
<path d="M370.672 238.902C370.672 238.902 356.895 257.704 334.524 263.397C312.153 269.091 290.466 245.187 287.966 242.505C285.466 239.823 291.822 231.119 291.822 231.119C291.822 231.119 291.124 227.582 291.914 226.924C292.703 226.267 298.059 225.478 299.48 226.517C301.085 228.088 302.519 229.824 303.757 231.697C305.02 231.837 306.222 232.319 307.231 233.091C308.929 234.406 306.376 241.295 306.376 241.295C306.376 241.295 312.956 245.463 320.18 243.333C327.405 241.203 332.273 243.149 332.273 243.149L356.881 219.772C365.317 224.124 369.646 234.327 370.672 238.902Z" fill="#F8A68B"/>
<path d="M333.274 261.031C332.326 258.611 334.116 255.64 337.287 254.391C340.459 253.142 343.788 254.075 344.749 256.495C345.117 257.537 345.117 258.674 344.749 259.716C341.759 261.167 338.634 262.32 335.419 263.161C334.938 262.964 334.502 262.675 334.134 262.309C333.766 261.944 333.473 261.509 333.274 261.031Z" fill="#EA8577"/>
<path d="M356.816 219.719C362.329 228.502 366.725 236.417 367.001 243.215C368.35 241.908 369.579 240.482 370.672 238.955C369.937 234.922 368.311 231.103 365.915 227.776C363.518 224.449 360.41 221.697 356.816 219.719V219.719Z" fill="#EA8577"/>
<path d="M291.808 231.119L295.204 228.423C295.204 228.423 293.032 227.424 292.282 228.068C291.532 228.713 291.808 231.119 291.808 231.119Z" fill="#EA8577"/>
<path d="M359.763 183.614C357.21 184.771 355.276 184.863 354.355 183.22C354.211 183.447 354.126 183.707 354.11 183.976C354.094 184.244 354.146 184.513 354.261 184.756C354.377 184.999 354.553 185.208 354.771 185.365C354.99 185.522 355.245 185.621 355.513 185.652C357.71 186.139 359.763 183.614 359.763 183.614Z" fill="#EA8577"/>
<path d="M303.652 231.697L305.073 236.509C305.073 236.509 306.021 234.458 305.402 233.275C305.021 232.561 304.401 232.003 303.652 231.697V231.697Z" fill="#EA8577"/>
<path d="M356.776 219.732L370.107 204.204C370.124 204.185 370.145 204.169 370.169 204.158C370.193 204.148 370.219 204.142 370.245 204.142C370.271 204.142 370.297 204.148 370.321 204.158C370.344 204.169 370.366 204.185 370.383 204.204C370.403 204.223 370.419 204.245 370.43 204.27C370.44 204.295 370.446 204.322 370.446 204.349C370.446 204.376 370.44 204.403 370.43 204.428C370.419 204.453 370.403 204.475 370.383 204.494L357.158 219.864L356.776 219.732Z" fill="#779FFF"/>
<path d="M350.223 274.494C350.223 274.494 246.685 222.046 238.184 220.508C229.683 218.97 264.279 284.855 295.783 299.016C327.286 313.176 350.223 274.494 350.223 274.494Z" fill="#779FFF"/>
<path d="M237.5 220.574L149.28 271.799L166.203 287.853L252.528 254.693L237.5 220.574Z" fill="#779FFF"/>
<path d="M248.712 246.042L252.515 254.693L166.189 287.853L162.452 284.303C167.716 280.503 220.169 242.952 232.197 242.834C235.079 242.807 241.105 244.07 248.712 246.042Z" fill="#5587F0"/>
<path d="M246.961 245.595C272.491 252.037 339.248 291.114 339.248 291.114L300.48 300.764C298.873 300.299 297.303 299.715 295.783 299.016C277.583 290.864 258.331 265.343 246.961 245.595Z" fill="#5587F0"/>
<path d="M231.539 244.411C228.316 247.244 225.396 250.403 222.827 253.839C219.472 258.467 215.432 264.357 211.089 270.76C193.824 296.334 172.019 330.69 172.019 330.69L195.85 338.329L245.159 290.154C245.159 290.154 275.201 308.246 300.02 304.775C308.258 303.618 306.744 295.15 295.967 286.814C289.889 280.403 283.335 274.461 276.359 269.038C258.186 254.325 237.473 240.783 231.539 244.411Z" fill="#779FFF"/>
<path d="M186.165 334.253C186.165 334.253 228.051 269.827 239 267.355C249.949 264.883 288.071 303.158 288.071 303.158L277.333 313.676C257.778 313.413 245.132 290.141 245.132 290.141L195.851 338.329L186.165 334.253Z" fill="#5587F0"/>
<path d="M341.498 288.931L341.709 288.589C340.893 288.116 260.121 241.624 237.895 240.52C228.565 240.046 212.616 246.633 190.521 260.084C174.072 270.09 160.176 280.358 160.044 280.464L160.281 280.792C160.426 280.687 174.296 270.418 190.732 260.426C212.458 247.278 228.749 240.467 237.868 240.927C259.963 242.032 340.695 288.471 341.498 288.931Z" fill="#3849C9"/>
<path d="M185.323 330.308C187.257 328.625 232.605 289.168 233.434 285.605C233.63 283.84 233.483 282.054 232.999 280.345C232.46 277.716 231.947 275.086 233.578 274.179C233.674 274.11 233.786 274.067 233.904 274.053C234.021 274.039 234.14 274.055 234.249 274.1C235.197 274.455 235.921 276.73 236.618 278.952C237.316 281.174 238.053 283.475 239.105 283.922C239.248 283.992 239.406 284.029 239.566 284.029C239.726 284.029 239.883 283.992 240.026 283.922C241.474 283.199 241.619 280.332 241.777 277.348C241.935 274.363 242.092 271.207 243.685 271.207C243.807 271.207 243.929 271.231 244.042 271.278C244.155 271.326 244.257 271.395 244.343 271.484C245.29 272.443 245.251 275.665 245.211 278.505C245.211 281.805 245.132 284.658 246.409 284.947C247.685 285.237 248.777 283.751 249.935 282.16C251.093 280.569 252.304 278.899 253.62 279.267C256.252 280.017 277.86 302.014 286.268 313.124L286.584 312.874C277.978 301.488 256.541 279.662 253.686 278.873C252.094 278.439 250.817 280.188 249.567 281.923C248.488 283.396 247.475 284.789 246.461 284.553C245.448 284.316 245.553 281.239 245.58 278.505C245.58 275.441 245.659 272.272 244.593 271.194C244.469 271.068 244.322 270.969 244.159 270.901C243.996 270.833 243.822 270.799 243.645 270.8C241.671 270.8 241.5 273.969 241.329 277.374C241.184 280.161 241.04 283.041 239.803 283.646C239.713 283.691 239.614 283.714 239.513 283.714C239.413 283.714 239.314 283.691 239.224 283.646C238.342 283.264 237.645 281.016 236.96 278.925C236.197 276.519 235.486 274.245 234.328 273.811C234.159 273.747 233.977 273.723 233.796 273.741C233.616 273.759 233.442 273.819 233.289 273.916C231.407 275.007 231.973 277.676 232.526 280.49C232.996 282.161 233.139 283.906 232.947 285.631C232.315 288.405 201.298 315.964 184.981 330.151L185.323 330.308Z" fill="#3849C9"/>
<path d="M352.302 155.214H352.828C352.937 155.214 353.04 155.171 353.117 155.095C353.193 155.018 353.236 154.915 353.236 154.807C353.236 154.698 353.193 154.595 353.117 154.518C353.04 154.442 352.937 154.399 352.828 154.399C351.762 154.556 350.674 154.403 349.692 153.961C348.71 153.518 347.876 152.803 347.288 151.901C347.221 151.827 347.129 151.78 347.029 151.769C346.929 151.759 346.829 151.785 346.748 151.844C346.666 151.902 346.609 151.989 346.588 152.087C346.566 152.184 346.581 152.287 346.63 152.374C347.236 153.31 348.081 154.067 349.079 154.567C350.076 155.066 351.189 155.29 352.302 155.214V155.214Z" fill="#522D34"/>
<path d="M392.477 153.15C391.754 157.91 393.28 162.617 393.096 167.363C393.081 169.607 392.497 171.81 391.398 173.766C390.39 175.403 388.933 176.718 387.201 177.553C385.037 178.571 382.579 178.772 380.279 178.118C379.963 178.039 380.068 177.54 380.384 177.619C382.364 178.176 384.471 178.071 386.386 177.321C388.3 176.571 389.917 175.217 390.99 173.464C393.306 169.519 392.596 164.773 392.096 160.487C391.734 158.026 391.694 155.529 391.977 153.058C391.977 152.729 392.53 152.834 392.477 153.15Z" fill="#783238"/>
<path d="M375.818 138.674C376.868 137.969 378.07 137.523 379.325 137.372C380.581 137.221 381.855 137.37 383.042 137.806C385.69 138.823 387.938 140.668 389.451 143.065C389.929 143.651 390.267 144.338 390.438 145.074C390.609 145.81 390.609 146.576 390.438 147.312C390.332 147.615 389.832 147.523 389.938 147.207C390.504 145.537 389.477 143.894 388.49 142.592C387.491 141.238 386.251 140.079 384.832 139.173C383.55 138.299 382.039 137.822 380.487 137.801C378.936 137.78 377.412 138.216 376.107 139.055C375.831 139.239 375.555 138.818 375.818 138.621V138.674Z" fill="#783238"/>
<path d="M376.857 137.924C369.146 153.203 360.632 170.887 354.171 174.226C354.039 176.764 367.054 180.143 381.042 178.513C395.03 176.882 395.609 150.178 389.03 143.525C382.45 136.873 376.857 137.924 376.857 137.924Z" fill="#783238"/>
<path d="M362.619 168.165C363.119 170.795 387.727 173.293 389.332 152.966C389.832 139.121 376.857 137.924 376.857 137.924C376.857 137.924 369.935 122.949 356.987 124.053C344.038 125.157 340.208 137.201 340.669 142.46C341.13 147.72 343.669 149.035 343.669 149.035C343.874 147.789 344.338 146.599 345.032 145.544C345.725 144.488 346.633 143.59 347.696 142.907C351.144 140.962 351.526 141.435 351.526 141.435C350.54 142.402 349.826 143.61 349.454 144.939C349.083 146.268 349.066 147.671 349.407 149.008C350.407 153.978 360.579 155.582 360.579 155.582L358.303 153.308C360.753 153.916 363.285 154.129 365.803 153.939C367.29 160.421 366.317 163.721 362.619 168.165Z" fill="#783238"/>
<path d="M381.068 168.704C386.687 169.927 390.188 167.876 392.32 165.378C390.859 172.07 387.293 177.79 381.042 178.526C367.054 180.156 354.039 176.777 354.171 174.24C357.645 172.452 361.711 166.509 365.922 159.027C369.655 163.954 375.026 167.386 381.068 168.704V168.704Z" fill="#6A2C31"/>
<path d="M361.446 168.346L363.089 169.487C365.601 171.231 369.054 170.61 370.799 168.099L373.277 164.536C375.023 162.025 374.401 158.576 371.888 156.832L370.246 155.691C367.733 153.947 364.281 154.568 362.535 157.079L360.057 160.642C358.311 163.153 358.933 166.602 361.446 168.346Z" fill="#FFC339"/>
<path d="M365.738 170.032L361.329 166.969C361.116 166.822 360.934 166.636 360.793 166.419C360.652 166.202 360.556 165.959 360.51 165.705C360.463 165.451 360.467 165.19 360.522 164.938C360.577 164.685 360.681 164.446 360.829 164.234L365.474 157.555C365.623 157.342 365.812 157.161 366.031 157.021C366.249 156.882 366.493 156.787 366.749 156.742C367.004 156.697 367.266 156.702 367.519 156.758C367.773 156.814 368.012 156.919 368.225 157.068L372.633 160.132C372.853 160.282 373.039 160.477 373.18 160.703C373.32 160.93 373.412 161.183 373.449 161.446C373.494 161.701 373.489 161.963 373.432 162.216C373.376 162.468 373.27 162.707 373.12 162.919L368.475 169.598C368.324 169.818 368.129 170.004 367.903 170.144C367.676 170.285 367.423 170.376 367.159 170.413C366.915 170.46 366.665 170.46 366.422 170.413C366.17 170.334 365.937 170.205 365.738 170.032V170.032ZM366.817 157.147C366.615 157.181 366.423 157.256 366.251 157.367C366.079 157.477 365.931 157.622 365.817 157.791L361.171 164.47C361.053 164.638 360.969 164.827 360.924 165.026C360.879 165.226 360.874 165.433 360.91 165.635C360.945 165.836 361.021 166.029 361.131 166.202C361.241 166.374 361.385 166.523 361.553 166.64L365.975 169.703C366.315 169.937 366.735 170.027 367.142 169.953C367.548 169.879 367.909 169.648 368.146 169.309L372.791 162.63C372.91 162.462 372.993 162.271 373.036 162.07C373.079 161.869 373.081 161.661 373.041 161.46C373.007 161.258 372.932 161.066 372.821 160.894C372.71 160.722 372.566 160.575 372.396 160.46L367.988 157.397C367.812 157.279 367.616 157.194 367.409 157.147C367.213 157.108 367.012 157.108 366.817 157.147V157.147Z" fill="#503C6B"/>
<path d="M371.199 157.384C371.323 157.403 371.45 157.387 371.564 157.335C371.679 157.284 371.776 157.2 371.844 157.094C371.844 157.094 374.291 153.018 376.476 148.495C379.463 142.29 380.608 138.095 379.858 136.057C379.397 134.742 378.673 134.059 377.726 133.914C376.762 133.867 375.818 134.198 375.094 134.835L375.739 135.873C376.228 135.404 376.877 135.137 377.555 135.124C378.028 135.124 378.423 135.65 378.726 136.439C380.042 139.936 373.462 152.045 370.83 156.424C370.748 156.564 370.724 156.73 370.763 156.888C370.802 157.045 370.902 157.181 371.041 157.265C371.09 157.309 371.143 157.348 371.199 157.384V157.384Z" fill="#FFC339"/>
<path d="M371.712 161.933C371.033 162.983 370.277 163.98 369.449 164.918C369.238 165.167 368.856 164.826 369.067 164.576C369.868 163.678 370.599 162.72 371.251 161.709C371.282 161.65 371.335 161.604 371.399 161.582C371.463 161.56 371.532 161.563 371.594 161.591C371.653 161.622 371.699 161.675 371.721 161.738C371.743 161.802 371.74 161.872 371.712 161.933V161.933Z" fill="white"/>
<path d="M368.435 166.232L367.698 167.311C367.679 167.337 367.653 167.358 367.623 167.372C367.593 167.385 367.56 167.392 367.527 167.389C367.468 167.413 367.402 167.413 367.343 167.389C367.295 167.34 367.268 167.274 367.268 167.205C367.268 167.136 367.295 167.07 367.343 167.021L368.08 165.943C368.102 165.919 368.128 165.899 368.157 165.886C368.187 165.872 368.219 165.865 368.251 165.864C368.319 165.862 368.385 165.885 368.435 165.93C368.459 165.953 368.477 165.981 368.49 166.011C368.503 166.042 368.509 166.074 368.509 166.107C368.509 166.14 368.503 166.173 368.49 166.204C368.477 166.234 368.459 166.262 368.435 166.285V166.232Z" fill="white"/>
<path d="M376.976 139.252C376.349 135.946 374.886 132.854 372.725 130.272C370.396 127.498 366.896 124.816 363.053 125.644C362.724 125.644 362.566 125.236 362.882 125.158C364.383 124.935 365.915 125.07 367.354 125.552C368.792 126.035 370.096 126.85 371.159 127.932C373.261 129.81 374.939 132.114 376.081 134.69C376.721 136.138 377.189 137.656 377.476 139.213C377.542 139.542 377.028 139.568 376.976 139.213V139.252Z" fill="#783238"/>
<path d="M306.797 297.241L307.086 296.952C306.942 296.82 293.124 282.949 277.149 269.498C255.66 251.419 240.711 242.689 232.697 243.53C227.551 245.253 216.274 262.306 211.023 270.616L211.681 270.366C217.024 261.964 227.92 245.582 232.802 243.925C251.58 241.992 306.244 296.689 306.797 297.241Z" fill="#3849C9"/>
<path d="M353.907 151.559C353.907 151.638 347.236 149.626 346.67 148.39C346.104 147.154 346.486 145.103 348.815 146.405C351.144 147.707 354 150.941 353.907 151.559Z" fill="#6A2C31"/>
<path d="M252.988 135.808C252.988 137.78 253.725 139.41 254.778 139.45C255.831 139.489 256.752 137.924 256.818 135.952C256.884 133.98 257.081 131.876 255.041 132.31C253.002 132.744 253.067 133.835 252.988 135.808Z" fill="#F8A68B"/>
<path d="M249.883 139.739C250.133 141.974 251.199 143.683 252.238 143.578C253.278 143.473 253.936 141.553 253.686 139.318C253.436 137.083 253.278 134.677 251.317 135.479C249.356 136.281 249.62 137.504 249.883 139.739Z" fill="#F8A68B"/>
<path d="M246.725 143.775C246.948 145.945 248.04 147.601 249.054 147.496C250.067 147.391 250.764 145.524 250.528 143.368C250.291 141.211 250.159 138.871 248.198 139.647C246.238 140.423 246.488 141.606 246.725 143.775Z" fill="#F8A68B"/>
<path d="M245.382 149.574C246.014 151.414 247.251 152.663 248.133 152.361C249.014 152.059 249.225 150.323 248.593 148.417C247.962 146.51 247.383 144.564 245.843 145.629C244.303 146.694 244.751 147.72 245.382 149.574Z" fill="#F8A68B"/>
<path d="M195.824 338.329L178.296 320.868L170.321 333.438L184.968 346.218L195.824 338.329Z" fill="#4A76D1"/>
<path d="M166.203 287.853L159.899 265.422L148.582 272.115L154.425 291.627L166.203 287.853Z" fill="#4A76D1"/>
<path d="M347.328 165.877C348.029 165.878 348.729 165.816 349.42 165.693C349.447 165.69 349.474 165.681 349.498 165.668C349.521 165.654 349.542 165.635 349.558 165.613C349.574 165.591 349.585 165.565 349.591 165.538C349.597 165.511 349.597 165.484 349.591 165.457C349.579 165.405 349.547 165.361 349.503 165.332C349.46 165.302 349.406 165.291 349.354 165.299C347.988 165.587 346.575 165.577 345.213 165.271C343.85 164.965 342.57 164.369 341.459 163.524C341.441 163.498 341.417 163.476 341.39 163.46C341.362 163.444 341.331 163.435 341.3 163.433C341.268 163.43 341.236 163.435 341.207 163.447C341.177 163.459 341.151 163.477 341.129 163.501C341.108 163.524 341.092 163.552 341.083 163.582C341.074 163.613 341.072 163.645 341.077 163.676C341.082 163.708 341.094 163.737 341.112 163.763C341.131 163.789 341.155 163.811 341.182 163.826C342.923 165.215 345.101 165.942 347.328 165.877V165.877Z" fill="#522D34"/>
<path d="M361.145 192.713C358.422 193.969 355.445 194.576 352.447 194.488C351.122 194.405 349.854 193.919 348.815 193.094C347.898 192.283 347.22 191.238 346.854 190.07C346.523 188.845 346.44 187.566 346.609 186.309C346.779 185.051 347.198 183.84 347.841 182.746L348.552 182.523C347.272 184.504 346.775 186.889 347.157 189.215C347.401 190.43 347.99 191.548 348.854 192.437C349.879 193.392 351.217 193.943 352.618 193.988C355.416 194.043 358.193 193.482 360.75 192.345C363.452 191.238 365.979 189.746 368.251 187.914C370.334 186.24 372.267 184.387 374.028 182.378L374.489 182.628C370.863 186.956 366.3 190.404 361.145 192.713V192.713Z" fill="#779FFF"/>
<path d="M396.609 135.978C396.578 136.259 396.492 136.531 396.356 136.778C396.22 137.025 396.036 137.243 395.816 137.42C395.595 137.596 395.342 137.728 395.071 137.806C394.799 137.885 394.515 137.909 394.234 137.878C393.953 137.847 393.681 137.761 393.434 137.625C393.186 137.489 392.968 137.305 392.791 137.085C392.615 136.865 392.484 136.612 392.405 136.341C392.326 136.07 392.302 135.786 392.333 135.505C392.395 134.938 392.681 134.42 393.126 134.064C393.572 133.707 394.141 133.542 394.708 133.605C395.275 133.668 395.794 133.953 396.151 134.398C396.507 134.843 396.672 135.412 396.609 135.978V135.978Z" fill="#503C6B"/>
<path d="M402.834 134.48C402.787 134.903 402.615 135.304 402.341 135.63C402.066 135.957 401.701 136.195 401.291 136.314C400.881 136.433 400.445 136.428 400.038 136.299C399.631 136.17 399.271 135.924 399.004 135.591C398.738 135.258 398.575 134.854 398.539 134.429C398.502 134.004 398.592 133.578 398.798 133.204C399.003 132.83 399.315 132.526 399.694 132.329C400.073 132.133 400.501 132.053 400.926 132.1C401.495 132.163 402.015 132.449 402.373 132.895C402.731 133.341 402.897 133.911 402.834 134.48V134.48Z" fill="#503C6B"/>
<path d="M396.333 136.32H396.254C396.173 136.314 396.097 136.276 396.043 136.214C395.989 136.153 395.961 136.073 395.965 135.992L396.636 127.406C396.644 127.334 396.675 127.267 396.725 127.214C396.775 127.162 396.841 127.128 396.912 127.117L403.768 126.512C403.817 126.505 403.867 126.512 403.914 126.53C403.96 126.548 404 126.578 404.031 126.617C404.064 126.651 404.089 126.693 404.102 126.739C404.116 126.785 404.119 126.833 404.11 126.88L402.794 134.624C402.773 134.697 402.725 134.76 402.661 134.8C402.597 134.841 402.52 134.857 402.445 134.846C402.37 134.835 402.301 134.797 402.252 134.739C402.202 134.682 402.175 134.608 402.176 134.532L403.387 127.169L397.228 127.748L396.57 136.057C396.56 136.119 396.532 136.177 396.49 136.223C396.448 136.27 396.394 136.304 396.333 136.32Z" fill="#503C6B"/>
<path d="M397.833 109.051C398.025 109.398 398.108 109.794 398.072 110.188C398.037 110.582 397.884 110.957 397.634 111.264C397.384 111.571 397.047 111.796 396.668 111.911C396.288 112.025 395.883 112.023 395.505 111.906C395.127 111.789 394.792 111.561 394.544 111.253C394.296 110.944 394.146 110.568 394.113 110.173C394.08 109.779 394.167 109.384 394.361 109.038C394.554 108.693 394.847 108.414 395.201 108.236C395.66 108.005 396.191 107.962 396.682 108.114C397.172 108.266 397.585 108.602 397.833 109.051V109.051Z" fill="#503C6B"/>
<path d="M397.557 109.419C397.494 109.433 397.428 109.427 397.369 109.401C397.309 109.375 397.26 109.331 397.228 109.274L393.28 102.385C393.255 102.338 393.242 102.286 393.242 102.234C393.242 102.181 393.255 102.129 393.28 102.082C393.304 102.036 393.339 101.997 393.383 101.969C393.427 101.941 393.478 101.926 393.53 101.925C394.344 101.836 395.168 101.924 395.944 102.183C396.721 102.441 397.433 102.865 398.031 103.424C398.06 103.452 398.083 103.485 398.099 103.523C398.114 103.56 398.122 103.6 398.122 103.64C398.122 103.681 398.114 103.721 398.099 103.758C398.083 103.795 398.06 103.829 398.031 103.857C398.001 103.887 397.966 103.91 397.928 103.926C397.89 103.942 397.849 103.95 397.807 103.95C397.765 103.95 397.724 103.942 397.686 103.926C397.647 103.91 397.613 103.887 397.583 103.857C396.625 102.974 395.359 102.502 394.057 102.543L397.754 108.972C397.776 109.006 397.79 109.045 397.796 109.085C397.802 109.125 397.8 109.165 397.791 109.205C397.781 109.244 397.763 109.281 397.739 109.313C397.715 109.345 397.684 109.372 397.649 109.393C397.621 109.41 397.59 109.419 397.557 109.419V109.419Z" fill="#503C6B"/>
<path d="M411.664 120.569C411.733 120.921 411.696 121.287 411.557 121.618C411.419 121.95 411.184 122.233 410.884 122.432C410.584 122.63 410.232 122.735 409.872 122.733C409.513 122.731 409.162 122.623 408.864 122.421C408.566 122.22 408.335 121.934 408.199 121.601C408.064 121.268 408.031 120.902 408.104 120.55C408.177 120.199 408.353 119.876 408.609 119.624C408.866 119.372 409.192 119.202 409.545 119.136C409.778 119.09 410.019 119.091 410.252 119.138C410.485 119.185 410.706 119.278 410.903 119.412C411.1 119.545 411.268 119.716 411.399 119.914C411.53 120.113 411.62 120.335 411.664 120.569V120.569Z" fill="#503C6B"/>
<path d="M417.664 116.427C417.753 116.9 417.65 117.388 417.379 117.785C417.108 118.182 416.69 118.455 416.217 118.544C415.748 118.624 415.267 118.517 414.877 118.247C414.486 117.976 414.217 117.564 414.127 117.097C414.038 116.631 414.135 116.148 414.397 115.752C414.66 115.357 415.068 115.08 415.533 114.981C416.007 114.892 416.497 114.994 416.897 115.265C417.296 115.536 417.572 115.954 417.664 116.427Z" fill="#503C6B"/>
<path d="M411.414 120.779C411.334 120.792 411.252 120.775 411.184 120.731C411.116 120.687 411.067 120.62 411.045 120.543L409.137 112.154C409.119 112.081 409.127 112.003 409.161 111.936C409.195 111.868 409.252 111.815 409.321 111.786L415.651 109.156C415.691 109.133 415.736 109.121 415.783 109.121C415.829 109.121 415.874 109.133 415.914 109.156C415.955 109.176 415.991 109.206 416.019 109.242C416.046 109.279 416.064 109.322 416.072 109.367L417.638 116.309C417.647 116.349 417.647 116.391 417.64 116.432C417.632 116.473 417.617 116.512 417.594 116.547C417.571 116.581 417.542 116.611 417.508 116.635C417.474 116.658 417.435 116.675 417.395 116.684C417.354 116.692 417.312 116.693 417.271 116.685C417.23 116.678 417.192 116.662 417.157 116.64C417.122 116.617 417.092 116.588 417.068 116.554C417.045 116.519 417.028 116.481 417.02 116.44L415.546 109.866L409.795 112.259L411.664 120.385C411.674 120.425 411.675 120.467 411.668 120.509C411.662 120.55 411.647 120.589 411.625 120.625C411.603 120.66 411.574 120.691 411.54 120.715C411.506 120.739 411.468 120.757 411.427 120.766L411.414 120.779Z" fill="#503C6B"/>
<path d="M410.032 114.678C409.959 114.686 409.886 114.669 409.824 114.629C409.763 114.589 409.717 114.528 409.696 114.458C409.674 114.388 409.677 114.313 409.705 114.245C409.733 114.177 409.783 114.121 409.848 114.087L416.125 111.26C416.196 111.244 416.27 111.254 416.335 111.287C416.4 111.32 416.451 111.374 416.48 111.441C416.51 111.507 416.515 111.582 416.496 111.652C416.477 111.722 416.434 111.783 416.375 111.825L410.098 114.678H410.032Z" fill="#503C6B"/>
<path d="M328.141 197.012C327.754 199.87 326.65 202.584 324.931 204.901C323.233 207.347 321.127 209.464 319.298 211.804C317.451 214.074 315.94 216.598 314.811 219.298C314.407 220.388 314.163 221.531 314.087 222.691C313.956 224.308 313.877 225.912 313.89 227.529C313.89 230.698 315.127 234.235 313.377 237.141C313.206 237.43 312.758 237.141 312.929 236.891C314.521 234.261 313.521 231.079 313.403 228.213C313.35 226.617 313.39 225.019 313.521 223.427C313.563 222.231 313.744 221.044 314.061 219.89C314.972 217.378 316.254 215.016 317.864 212.882C319.575 210.476 321.667 208.372 323.47 206.032C325.666 203.474 327.106 200.355 327.628 197.025C327.628 196.697 328.168 196.697 328.141 197.025V197.012Z" fill="#779FFF"/>
<path d="M188.547 389.712C188.547 389.712 175.388 338.855 206.76 307.049C238.132 275.244 298.717 295.216 325.839 283.067C352.96 270.918 363.711 257.257 377.95 240.888C392.188 224.518 391.043 200.47 406.387 210.805C421.731 221.139 453.221 268.288 450.3 315.359C447.378 362.429 418.625 389.712 418.625 389.712H188.547Z" fill="#FFC339"/>
<path d="M173.045 361.378C173.045 361.378 179.625 372.803 168.558 376.945C166.966 377.55 163.465 377.155 159.57 376.945C160.57 368.99 165.584 364.27 173.045 361.378Z" fill="#98BFFF"/>
<path d="M119.697 366.86C123.882 368.478 128.014 373.434 126.672 379.246C117.618 377.576 112.802 375.196 112.131 370.594C111.631 367.544 115.078 367.123 119.697 366.86Z" fill="#98BFFF"/>
<path d="M161.86 345.56C162.794 346.178 163.742 346.875 164.663 347.467C166.185 345.496 167.561 343.418 168.782 341.248L169.177 341.59C167.96 343.735 166.592 345.791 165.084 347.743C166.018 348.4 166.953 349.058 167.874 349.728C169.343 347.886 170.663 345.93 171.822 343.877L172.216 344.219C171.058 346.259 169.738 348.202 168.269 350.031L170.624 351.753C172.058 349.991 173.414 348.151 174.677 346.257L175.072 346.586C173.809 348.462 172.458 350.285 171.019 352.056C172.006 352.792 172.98 353.541 173.94 354.291C175.311 352.529 176.51 350.64 177.52 348.65L177.914 348.992C176.901 350.972 175.703 352.852 174.335 354.606L176.454 356.276L176.177 356.697C171.458 352.901 166.571 349.316 161.518 345.942L161.86 345.56Z" fill="#98BFFF"/>
<path d="M142.845 292.481L142.963 292.994L137.068 295.978L137.778 298.95L137.318 299.187C135.844 293.156 134.563 287.077 133.475 280.95L133.949 280.687C134.067 281.345 134.173 282.002 134.304 282.646C135.995 281.515 137.752 280.487 139.568 279.57C139.568 279.741 139.66 279.911 139.713 280.069C137.899 281.005 136.141 282.045 134.449 283.185L134.844 285.25C136.66 284.237 138.502 283.291 140.371 282.383C140.371 282.554 140.45 282.725 140.502 282.883C138.616 283.759 136.765 284.724 134.949 285.776C135.107 286.604 135.265 287.432 135.436 288.261C137.279 287.221 139.207 286.341 141.2 285.631C141.2 285.802 141.279 285.96 141.331 286.131C139.33 286.841 137.393 287.721 135.541 288.76C135.765 289.838 135.989 290.903 136.226 291.968L141.897 288.892L142.016 289.404L136.226 292.494L136.897 295.466L142.845 292.481Z" fill="#98BFFF"/>
<path d="M131.791 303.789C129.422 307.339 124.369 313.203 117.868 311.138C110.946 308.943 111.289 304.67 110.657 297.99C118.21 294.953 128.501 298.753 131.791 303.789Z" fill="#98BFFF"/>
<path d="M118.671 249.921C121.856 250.999 122.079 254.404 121.935 258.782C118.605 264.278 112.999 265.712 106.143 264.857C107.683 255.758 113.776 248.264 118.671 249.921Z" fill="#98BFFF"/>
<path d="M446.075 340.472C437.298 372.028 418.625 389.712 418.625 389.712H188.547C188.547 389.712 182.454 339.67 239.29 329.349C296.125 319.027 292.822 355.645 358.053 366.86C395.794 373.329 425.81 359.866 446.075 340.472Z" fill="#FF8E44"/>
<path d="M105.327 390.119H517.741C517.849 390.119 517.953 390.076 518.03 390C518.106 389.924 518.149 389.82 518.149 389.712C518.149 389.604 518.106 389.5 518.03 389.424C517.953 389.347 517.849 389.304 517.741 389.304H105.327C105.219 389.304 105.115 389.347 105.039 389.424C104.962 389.5 104.919 389.604 104.919 389.712C104.919 389.82 104.962 389.924 105.039 390C105.115 390.076 105.219 390.119 105.327 390.119Z" fill="#3E2E53"/>
<path d="M185.652 349.268C186.797 337.578 190.974 326.389 197.772 316.805C204.484 307.173 213.542 299.408 224.09 294.243C236.987 288.05 251.449 286.788 265.569 286.775C273.267 286.775 280.952 287.077 288.637 287.248C296.533 287.419 304.507 287.551 312.442 287.524C328.233 287.602 344.013 286.724 359.698 284.895C361.711 284.645 363.711 284.382 365.711 284.079C367.027 283.895 367.54 285.854 366.251 286.052C350.814 288.211 335.253 289.362 319.667 289.497C304.139 289.733 288.624 289.234 273.096 288.905C258.621 288.602 243.645 288.786 229.881 293.967C219.083 298.138 209.578 305.082 202.325 314.097C195.023 323.018 190.159 333.677 188.205 345.034C187.981 346.441 187.797 347.861 187.665 349.268C187.534 350.675 185.507 350.583 185.626 349.268H185.652Z" fill="#FF9C40"/>
<path d="M306.994 288.234C318.855 284.185 330.65 279.973 342.38 275.599C354.109 271.225 365.799 266.671 377.449 261.938C383.941 259.308 390.411 256.622 396.86 253.878C397.096 253.754 397.37 253.722 397.629 253.791C397.887 253.859 398.11 254.021 398.254 254.246C398.389 254.48 398.426 254.758 398.357 255.019C398.288 255.28 398.119 255.503 397.886 255.64C386.279 260.575 374.603 265.339 362.856 269.932C351.109 274.525 339.384 278.93 327.681 283.146C321.005 285.539 314.311 287.884 307.6 290.18C307.346 290.228 307.084 290.179 306.865 290.042C306.646 289.906 306.487 289.692 306.419 289.443C306.351 289.194 306.379 288.929 306.498 288.7C306.617 288.471 306.817 288.296 307.06 288.208L306.994 288.234Z" fill="#FF9C40"/>
<path d="M338.09 276.717C346.214 270.809 354.258 264.791 362.224 258.664C370.19 252.537 378.002 246.357 385.661 240.125C390.047 236.619 394.399 233.025 398.715 229.344C398.91 229.159 399.169 229.056 399.439 229.056C399.708 229.056 399.967 229.159 400.162 229.344C400.351 229.537 400.456 229.797 400.456 230.067C400.456 230.337 400.351 230.596 400.162 230.79C392.434 237.259 384.621 243.627 376.726 249.894C368.83 256.162 360.834 262.332 352.736 268.407C348.227 271.799 343.687 275.156 339.116 278.478C338.882 278.613 338.604 278.649 338.343 278.581C338.082 278.512 337.859 278.343 337.721 278.11C337.59 277.875 337.556 277.599 337.624 277.339C337.693 277.079 337.86 276.856 338.09 276.717V276.717Z" fill="#FF9C40"/>
<path d="M68.5602 284.579L69.3498 284.342C67.6596 277.824 66.8933 271.101 67.0732 264.37C67.2159 249.556 72.1198 235.179 81.0616 223.361L80.4168 222.862C71.3615 234.826 66.3973 249.384 66.2573 264.384C66.0781 271.19 66.8532 277.988 68.5602 284.579V284.579Z" fill="white"/>
<path d="M79.5482 225.123C79.5482 225.123 92.3128 220.824 97.3528 213.802C102.393 206.781 93.7208 202.811 84.9567 212.212C76.1926 221.613 79.5482 225.123 79.5482 225.123Z" fill="white"/>
<path d="M74.7056 232.447C74.7056 232.355 78.7455 204.835 71.7316 210.66C64.7177 216.485 72.7317 236.47 72.7317 236.47L74.7056 232.447Z" fill="white"/>
<path d="M69.6129 244.937C70.2577 244.753 94.8131 240.677 93.4577 233.814C92.1022 226.951 71.9553 238.271 71.9553 238.271L69.6129 244.937Z" fill="white"/>
<path d="M66.7574 269.827C66.7574 269.827 92.5365 257.126 88.6282 249.815C84.7199 242.505 66.889 259.755 66.889 259.755L66.7574 269.827Z" fill="white"/>
<path d="M68.297 248.277C68.297 248.277 66.0863 222.664 60.3093 229.686C54.5323 236.707 67.1522 257.06 67.1522 257.06L68.297 248.277Z" fill="white"/>
<path d="M498.029 210.726C499.986 202.684 500.805 194.408 500.463 186.139C500.022 167.915 493.729 150.316 482.514 135.939L481.882 136.452C492.982 150.683 499.21 168.102 499.647 186.139C499.984 194.335 499.16 202.537 497.199 210.502L498.029 210.726Z" fill="white"/>
<path d="M483.672 138.542C483.672 138.542 468.065 133.546 461.814 125.079C455.563 116.611 466.038 111.654 476.855 122.922C487.672 134.19 483.672 138.542 483.672 138.542Z" fill="white"/>
<path d="M489.699 147.444C489.633 147.338 484.29 113.903 492.936 120.871C501.582 127.84 492.173 152.308 492.173 152.308L489.699 147.444Z" fill="white"/>
<path d="M496.12 162.538C495.344 162.34 465.393 157.804 466.92 149.389C468.446 140.975 493.16 154.465 493.16 154.465L496.12 162.538Z" fill="white"/>
<path d="M500.042 192.805C500.042 192.805 468.459 177.816 473.078 168.849C477.697 159.882 499.7 180.525 499.7 180.525L500.042 192.805Z" fill="white"/>
<path d="M497.779 166.587C497.779 166.587 500.016 135.387 507.174 143.815C514.333 152.243 499.279 177.251 499.279 177.251L497.779 166.587Z" fill="white"/>
<path d="M275.951 144.341C275.951 144.761 275.78 145.537 276.083 145.945C276.07 146.05 276.07 146.156 276.083 146.26V146.563C275.386 146.195 275.412 145.248 275.465 144.551C275.503 143.938 275.636 143.335 275.859 142.763C276.077 142.689 276.302 142.64 276.53 142.618C276.214 143.143 276.016 143.731 275.951 144.341V144.341Z" fill="#EA8577"/>
<path d="M275.096 149.666L274.938 149.574H275.004H274.82H274.807H274.636C274.572 149.599 274.501 149.599 274.438 149.574C274.381 149.537 274.339 149.481 274.32 149.416C274.306 149.385 274.299 149.351 274.299 149.317C274.299 149.283 274.306 149.25 274.32 149.219C274.36 149.165 274.415 149.124 274.478 149.1C274.646 149.054 274.823 149.054 274.991 149.1C275.06 149.087 275.132 149.087 275.201 149.1C275.292 149.135 275.376 149.184 275.451 149.245C275.477 149.268 275.498 149.296 275.511 149.328C275.525 149.36 275.531 149.394 275.53 149.429C275.53 149.461 275.522 149.493 275.509 149.523C275.495 149.552 275.476 149.578 275.451 149.6C275.431 149.625 275.405 149.646 275.375 149.66C275.345 149.673 275.313 149.68 275.28 149.679H275.201C275.167 149.689 275.13 149.689 275.096 149.679V149.666Z" fill="#EA8577"/>
<path d="M253.462 138.345C253.429 138.039 253.429 137.731 253.462 137.425C253.44 136.856 253.587 136.294 253.883 135.808C253.969 135.704 254.075 135.62 254.194 135.56C254.314 135.501 254.445 135.466 254.579 135.46C254.713 135.454 254.847 135.476 254.972 135.524C255.097 135.573 255.21 135.647 255.304 135.742C255.729 136.121 256.035 136.614 256.186 137.162C256.278 137.476 256.344 137.797 256.384 138.122C256.267 138.381 256.117 138.625 255.936 138.845C255.919 138.319 255.835 137.798 255.686 137.293C255.541 136.82 255.225 136.11 254.686 135.978C254.146 135.847 254.015 136.833 253.988 137.188C253.925 137.834 254.01 138.487 254.239 139.095C254.258 139.145 254.258 139.202 254.239 139.252C253.901 139.027 253.633 138.713 253.462 138.345V138.345Z" fill="#EA8577"/>
<path d="M251.501 143.368C251.234 143.171 251.006 142.926 250.83 142.645C250.791 142.445 250.765 142.243 250.751 142.04C250.674 141.372 250.71 140.697 250.857 140.041C250.881 139.904 250.934 139.774 251.011 139.659C251.089 139.543 251.19 139.445 251.307 139.371C251.425 139.297 251.557 139.248 251.694 139.227C251.832 139.207 251.973 139.215 252.107 139.252C252.691 139.516 253.159 139.983 253.423 140.567C253.515 140.725 253.594 140.883 253.673 141.041C253.64 141.388 253.574 141.731 253.475 142.066C253.369 141.599 253.182 141.154 252.923 140.751C252.712 140.409 251.949 139.292 251.475 139.883C251.328 140.111 251.25 140.376 251.251 140.646C251.219 141.031 251.219 141.418 251.251 141.803C251.276 142.332 251.359 142.857 251.501 143.368Z" fill="#EA8577"/>
<path d="M247.29 144.196C247.344 143.881 247.503 143.593 247.743 143.38C247.982 143.167 248.286 143.042 248.606 143.026C249.277 143.026 249.738 143.683 250.067 144.196C250.259 144.493 250.427 144.805 250.567 145.13C250.534 145.423 250.477 145.713 250.396 145.997C249.949 144.867 249.001 142.829 248.093 143.788C247.58 144.328 247.856 145.301 248.093 145.932C248.269 146.472 248.513 146.989 248.817 147.47C248.438 147.353 248.109 147.112 247.883 146.786C247.817 146.642 247.751 146.484 247.698 146.339C247.38 145.672 247.24 144.934 247.29 144.196V144.196Z" fill="#EA8577"/>
<path d="M246.83 151.927C246.554 151.682 246.315 151.399 246.119 151.086C246.119 150.875 246.119 150.665 246.027 150.455C246.027 149.797 245.922 148.837 246.501 148.39C247.08 147.943 247.751 148.509 248.185 148.956L248.896 149.692C248.928 150.024 248.928 150.359 248.896 150.691C248.828 150.437 248.68 150.211 248.475 150.047L247.83 149.376C247.54 149.087 246.948 148.311 246.606 148.982C246.486 149.264 246.437 149.571 246.461 149.876C246.463 150.197 246.485 150.518 246.527 150.836C246.646 151.204 246.738 151.572 246.83 151.927Z" fill="#EA8577"/>
<path d="M279.86 223.979C277.377 224.292 274.875 224.432 272.372 224.4C271.227 224.295 270.056 221.586 268.924 217.431C274.557 216.853 278.123 221.179 279.86 223.979Z" fill="#EA8577"/>
<path d="M284.663 201.995L286.532 208.307C287.26 206.059 287.373 203.658 286.861 201.351L284.663 201.995Z" fill="#EA8577"/>
<path d="M272.675 164.037C272.675 163.826 272.556 163.616 272.504 163.419C271.824 164.365 270.982 165.184 270.017 165.838C269.74 166.009 270.017 166.456 270.28 166.272C271.188 165.654 271.996 164.9 272.675 164.037V164.037Z" fill="#EA8577"/>
<path d="M318.443 211.791C318.437 211.817 318.437 211.844 318.443 211.87V212.225C318.443 212.567 318.917 212.54 318.956 212.225C319.826 205.557 318.23 198.801 314.469 193.226L313.956 193.37C317.607 198.777 319.199 205.312 318.443 211.791V211.791Z" fill="#779FFF"/>
<path d="M374.581 238.784C374.641 235.104 373.975 231.448 372.62 228.026C371.265 224.604 369.248 221.481 366.685 218.838C365.978 218.118 365.231 217.438 364.448 216.8C363.571 216 362.522 215.411 361.382 215.078C361.066 214.999 361.198 214.512 361.527 214.591C363.363 215.218 365.007 216.305 366.304 217.747C367.666 219.046 368.896 220.478 369.975 222.02C372.154 225.144 373.688 228.671 374.489 232.394C374.944 234.493 375.151 236.637 375.107 238.784C375.107 239.113 374.581 239.113 374.594 238.784H374.581Z" fill="#779FFF"/>
<path d="M410.453 364.678C398.478 375.196 380.858 372.922 366.488 369.937C349.582 366.545 333.304 360.557 318.232 352.187C310.79 347.944 303.743 343.042 297.177 337.54C290.729 332.189 284.452 326.522 277.123 322.393C269.946 318.331 261.784 316.333 253.541 316.621C245.322 316.959 237.291 319.177 230.065 323.103C215.8 330.769 205.549 344.272 199.048 358.827C198.224 360.668 197.456 362.535 196.745 364.428C196.285 365.638 194.324 365.112 194.785 363.889C200.43 348.9 209.47 334.858 222.59 325.378C235.71 315.898 253.015 311.756 268.648 316.477C276.688 318.909 283.65 323.734 290.124 328.954C296.598 334.174 303.139 340.038 310.245 344.837C324.776 354.441 340.822 361.531 357.71 365.809C365.736 368.066 373.958 369.559 382.266 370.266C389.767 370.752 397.728 370.174 404.439 366.479C406.087 365.587 407.627 364.51 409.032 363.271C410.019 362.403 411.453 363.836 410.466 364.704L410.453 364.678Z" fill="#FF8E44"/>
<path d="M401.689 368.53C401.453 368.658 401.178 368.691 400.918 368.622C400.659 368.554 400.436 368.389 400.294 368.162C400.163 367.927 400.128 367.651 400.197 367.391C400.266 367.131 400.433 366.908 400.663 366.768C412.365 361.531 422.697 353.661 430.85 343.772C435.019 338.706 438.554 333.152 441.378 327.232C446.225 317.108 448.982 306.112 449.484 294.9C449.944 298.45 450.247 302.027 450.365 305.629C449.178 312.563 447.141 319.324 444.299 325.759C441.541 331.975 438.032 337.83 433.85 343.194C425.843 353.484 415.578 361.802 403.847 367.505L401.689 368.53Z" fill="#FF8E44"/>
<path d="M454.063 303.539C454.063 303.539 434.548 275.822 443.536 270.195C452.524 264.568 455.274 270.024 463.275 275.915C471.276 281.805 468.038 269.13 475.644 269.919C483.251 270.708 481.671 280.687 487.883 281.95C494.094 283.212 494.554 263.003 505.2 272.194C515.846 281.384 501.516 311.073 501.516 311.073L454.063 303.539Z" fill="#697F64"/>
<path d="M447.641 306.431C447.641 306.431 440.785 298.674 446.457 293.678C452.129 288.681 462.117 300.778 466.341 298.411C470.565 296.044 467.025 281.318 477.013 280.911C487.001 280.503 487.935 287.485 492.936 286.801C497.936 286.117 500.108 268.275 510.872 275.126C521.636 281.976 507.135 307.089 507.135 307.089L447.641 306.431Z" fill="#A7C99F"/>
<path d="M493.541 307.615C493.507 307.628 493.47 307.628 493.436 307.615C493.412 307.602 493.391 307.585 493.374 307.564C493.357 307.544 493.344 307.519 493.337 307.494C493.329 307.468 493.327 307.441 493.331 307.414C493.334 307.387 493.343 307.362 493.357 307.339L507.727 282.489C507.739 282.465 507.756 282.443 507.777 282.426C507.798 282.409 507.822 282.397 507.848 282.389C507.874 282.382 507.901 282.38 507.928 282.383C507.955 282.387 507.98 282.396 508.003 282.41C508.049 282.437 508.083 282.481 508.097 282.532C508.112 282.583 508.107 282.638 508.082 282.686L493.778 307.523C493.756 307.563 493.72 307.595 493.676 307.612C493.633 307.629 493.585 307.63 493.541 307.615V307.615Z" fill="#697F64"/>
<path d="M482.869 306.707C482.823 306.706 482.78 306.69 482.744 306.661C482.708 306.633 482.683 306.594 482.672 306.55L478.118 288.234C478.106 288.182 478.114 288.127 478.141 288.081C478.168 288.034 478.212 288 478.263 287.984C478.317 287.973 478.374 287.983 478.421 288.012C478.467 288.042 478.501 288.088 478.513 288.142L483.066 306.431C483.079 306.484 483.071 306.539 483.044 306.585C483.017 306.631 482.973 306.666 482.922 306.681L482.869 306.707Z" fill="#697F64"/>
<path d="M462.104 306.984C462.061 307 462.014 307 461.972 306.984L453.129 298.227C453.092 298.188 453.071 298.136 453.071 298.082C453.071 298.028 453.092 297.977 453.129 297.938C453.147 297.918 453.17 297.902 453.195 297.891C453.22 297.88 453.246 297.875 453.274 297.875C453.301 297.875 453.328 297.88 453.353 297.891C453.378 297.902 453.4 297.918 453.418 297.938L462.248 306.694C462.268 306.713 462.284 306.735 462.295 306.76C462.306 306.785 462.311 306.812 462.311 306.839C462.311 306.866 462.306 306.893 462.295 306.918C462.284 306.943 462.268 306.965 462.248 306.984C462.202 307.002 462.15 307.002 462.104 306.984V306.984Z" fill="#697F64"/>
<path d="M463.354 300.475C463.316 300.476 463.28 300.466 463.247 300.448C463.215 300.429 463.188 300.402 463.169 300.37L448.51 273.653C448.487 273.604 448.483 273.548 448.5 273.496C448.518 273.445 448.554 273.402 448.602 273.377C448.65 273.353 448.704 273.347 448.756 273.362C448.807 273.377 448.851 273.41 448.878 273.456L463.577 300.173C463.591 300.196 463.6 300.222 463.604 300.248C463.607 300.275 463.605 300.302 463.598 300.328C463.59 300.354 463.578 300.378 463.561 300.399C463.543 300.419 463.522 300.437 463.498 300.449L463.354 300.475Z" fill="#A7C99F"/>
<path d="M475.934 292.481C475.88 292.481 475.829 292.461 475.79 292.424C475.75 292.388 475.727 292.337 475.723 292.284L474.973 275.191C474.976 275.139 474.997 275.089 475.034 275.05C475.07 275.012 475.118 274.987 475.171 274.981C475.224 274.981 475.276 275.001 475.315 275.038C475.354 275.075 475.378 275.125 475.381 275.178L476.131 292.271C476.131 292.324 476.111 292.376 476.074 292.415C476.038 292.454 475.988 292.478 475.934 292.481V292.481Z" fill="#A7C99F"/>
<path d="M493.041 292.481C492.992 292.461 492.952 292.422 492.93 292.373C492.908 292.324 492.905 292.269 492.923 292.218L499.831 274.126C499.858 274.088 499.897 274.06 499.942 274.046C499.987 274.032 500.035 274.034 500.078 274.05C500.122 274.067 500.159 274.098 500.184 274.138C500.208 274.177 500.218 274.224 500.213 274.271L493.252 292.35C493.232 292.389 493.202 292.422 493.165 292.445C493.128 292.468 493.085 292.481 493.041 292.481V292.481Z" fill="#A7C99F"/>
<path d="M477.855 389.475C477.531 389.475 477.219 389.346 476.99 389.117C476.76 388.888 476.631 388.577 476.631 388.252V335.66C476.631 335.335 476.76 335.024 476.99 334.795C477.219 334.566 477.531 334.437 477.855 334.437C478.18 334.437 478.491 334.566 478.721 334.795C478.95 335.024 479.079 335.335 479.079 335.66V388.252C479.079 388.577 478.95 388.888 478.721 389.117C478.491 389.346 478.18 389.475 477.855 389.475Z" fill="#3E2E53"/>
<path d="M449.339 389.475H449.076C448.76 389.403 448.485 389.209 448.31 388.936C448.135 388.663 448.075 388.333 448.141 388.016L460.445 331.623C460.48 331.466 460.545 331.317 460.637 331.185C460.729 331.053 460.847 330.941 460.982 330.854C461.118 330.767 461.269 330.708 461.428 330.68C461.586 330.652 461.749 330.655 461.906 330.69C462.063 330.724 462.212 330.789 462.344 330.881C462.476 330.973 462.589 331.091 462.676 331.226C462.763 331.362 462.822 331.513 462.85 331.671C462.878 331.83 462.875 331.992 462.84 332.149L450.536 388.594C450.459 388.851 450.301 389.076 450.085 389.235C449.869 389.393 449.607 389.478 449.339 389.475V389.475Z" fill="#3E2E53"/>
<path d="M507.135 389.475C506.858 389.473 506.59 389.376 506.375 389.202C506.16 389.028 506.01 388.786 505.95 388.515L493.633 332.07C493.599 331.913 493.596 331.751 493.624 331.592C493.652 331.434 493.711 331.283 493.798 331.147C493.885 331.012 493.997 330.895 494.129 330.803C494.261 330.71 494.41 330.645 494.568 330.611C494.725 330.576 494.887 330.573 495.046 330.601C495.204 330.63 495.356 330.689 495.491 330.775C495.627 330.862 495.744 330.975 495.836 331.106C495.929 331.238 495.994 331.387 496.028 331.544L508.332 387.989C508.399 388.307 508.339 388.637 508.164 388.91C507.989 389.183 507.714 389.377 507.398 389.449L507.135 389.475Z" fill="#3E2E53"/>
<path d="M443.167 304.485V317.081C443.166 321.523 444.04 325.922 445.74 330.027C447.44 334.131 449.933 337.861 453.076 341.002C456.219 344.144 459.951 346.636 464.058 348.336C468.165 350.036 472.567 350.912 477.013 350.912C485.993 350.912 494.605 347.347 500.955 341.003C507.305 334.659 510.872 326.054 510.872 317.081V304.485H443.167Z" fill="white"/>
<path d="M500.081 341.852C502.246 339.831 504.139 337.537 505.714 335.029V304.485H500.081V341.852Z" fill="#FFEDDD"/>
<path d="M452.181 340.064C458.001 346.358 465.999 350.203 474.552 350.82V304.485H452.181V340.064Z" fill="#FFD9B8"/>
<path d="M510.885 309.705H443.167V309.981H510.885V309.705Z" fill="#E29570"/>
</g>
<defs>
<clipPath id="clip0_14_264">
<rect width="597" height="445" fill="white"/>
</clipPath>
</defs>
</svg>
