<svg width="41" height="40" viewBox="0 0 41 40" fill="none" xmlns="http://www.w3.org/2000/svg">
<path d="M37.9992 9.24994C31.9992 -6.16312e-05 19.7492 -2.75006 10.2492 2.99994C0.999205 8.74994 -2.00079 21.2499 3.99921 30.4999L4.49921 31.2499L2.4992 38.7499L9.9992 36.7499L10.7492 37.2499C13.9992 38.9999 17.4992 39.9999 20.9992 39.9999C24.7492 39.9999 28.4992 38.9999 31.7492 36.9999C40.9992 30.9999 43.7492 18.7499 37.9992 9.24994ZM32.7492 28.4999C31.7492 29.9999 30.4992 30.9999 28.7492 31.2499C27.7492 31.2499 26.4992 31.7499 21.4992 29.7499C17.2492 27.7499 13.7492 24.4999 11.2492 20.7499C9.7492 18.9999 8.9992 16.7499 8.7492 14.4999C8.7492 12.4999 9.49921 10.7499 10.7492 9.49994C11.2492 8.99994 11.7492 8.74994 12.2492 8.74994H13.4992C13.9992 8.74994 14.4992 8.74994 14.7492 9.74994C15.2492 10.9999 16.4992 13.9999 16.4992 14.2499C16.7492 14.4999 16.7492 14.9999 16.4992 15.2499C16.7492 15.7499 16.4992 16.2499 16.2492 16.4999C15.9992 16.7499 15.7492 17.2499 15.4992 17.4999C14.9992 17.7499 14.7492 18.2499 14.9992 18.7499C15.9992 20.2499 17.2492 21.7499 18.4992 22.9999C19.9992 24.2499 21.4992 25.2499 23.2492 25.9999C23.7492 26.2499 24.2492 26.2499 24.4992 25.7499C24.7492 25.2499 25.9992 23.9999 26.4992 23.4999C26.9992 22.9999 27.2492 22.9999 27.7492 23.2499L31.7492 25.2499C32.2492 25.4999 32.7492 25.7499 32.9992 25.9999C33.2492 26.7499 33.2492 27.7499 32.7492 28.4999Z" fill="#049223"/>
</svg>
